<?xml version="1.0" encoding="utf-8" standalone="no"?>
<!DOCTYPE svg PUBLIC "-//W3C//DTD SVG 1.1//EN"
  "http://www.w3.org/Graphics/SVG/1.1/DTD/svg11.dtd">
<svg xmlns:xlink="http://www.w3.org/1999/xlink" width="576pt" height="360pt" viewBox="0 0 576 360" xmlns="http://www.w3.org/2000/svg" version="1.1">
 <metadata>
  <rdf:RDF xmlns:dc="http://purl.org/dc/elements/1.1/" xmlns:cc="http://creativecommons.org/ns#" xmlns:rdf="http://www.w3.org/1999/02/22-rdf-syntax-ns#">
   <cc:Work>
    <dc:type rdf:resource="http://purl.org/dc/dcmitype/StillImage"/>
    <dc:date>2025-08-30T14:17:37.428394</dc:date>
    <dc:format>image/svg+xml</dc:format>
    <dc:creator>
     <cc:Agent>
      <dc:title>Matplotlib v3.10.3, https://matplotlib.org/</dc:title>
     </cc:Agent>
    </dc:creator>
   </cc:Work>
  </rdf:RDF>
 </metadata>
 <defs>
  <style type="text/css">*{stroke-linejoin: round; stroke-linecap: butt}</style>
 </defs>
 <g id="figure_1">
  <g id="patch_1">
   <path d="M 0 360 
L 576 360 
L 576 0 
L 0 0 
z
" style="fill: #ffffff"/>
  </g>
  <g id="axes_1">
   <g id="patch_2">
    <path d="M 44.57 318.04 
L 518.74 318.04 
L 518.74 10.8 
L 44.57 10.8 
z
" style="fill: #ffffff"/>
   </g>
   <g id="matplotlib.axis_1">
    <g id="xtick_1">
     <g id="line2d_1">
      <path d="M 65.758129 318.04 
L 65.758129 10.8 
" clip-path="url(#pc3283ddd76)" style="fill: none; stroke: #b0b0b0; stroke-width: 0.8; stroke-linecap: square"/>
     </g>
     <g id="line2d_2">
      <defs>
       <path id="m2fa4c245f6" d="M 0 0 
L 0 3.5 
" style="stroke: #000000; stroke-width: 0.8"/>
      </defs>
      <g>
       <use xlink:href="#m2fa4c245f6" x="65.758129" y="318.04" style="stroke: #000000; stroke-width: 0.8"/>
      </g>
     </g>
     <g id="text_1">
      <!-- 0 -->
      <g transform="translate(62.576879 332.638438) scale(0.1 -0.1)">
       <defs>
        <path id="DejaVuSans-30" d="M 2034 4250 
Q 1547 4250 1301 3770 
Q 1056 3291 1056 2328 
Q 1056 1369 1301 889 
Q 1547 409 2034 409 
Q 2525 409 2770 889 
Q 3016 1369 3016 2328 
Q 3016 3291 2770 3770 
Q 2525 4250 2034 4250 
z
M 2034 4750 
Q 2819 4750 3233 4129 
Q 3647 3509 3647 2328 
Q 3647 1150 3233 529 
Q 2819 -91 2034 -91 
Q 1250 -91 836 529 
Q 422 1150 422 2328 
Q 422 3509 836 4129 
Q 1250 4750 2034 4750 
z
" transform="scale(0.015625)"/>
       </defs>
       <use xlink:href="#DejaVuSans-30"/>
      </g>
     </g>
    </g>
    <g id="xtick_2">
     <g id="line2d_3">
      <path d="M 147.810896 318.04 
L 147.810896 10.8 
" clip-path="url(#pc3283ddd76)" style="fill: none; stroke: #b0b0b0; stroke-width: 0.8; stroke-linecap: square"/>
     </g>
     <g id="line2d_4">
      <g>
       <use xlink:href="#m2fa4c245f6" x="147.810896" y="318.04" style="stroke: #000000; stroke-width: 0.8"/>
      </g>
     </g>
     <g id="text_2">
      <!-- 1000 -->
      <g transform="translate(135.085896 332.638438) scale(0.1 -0.1)">
       <defs>
        <path id="DejaVuSans-31" d="M 794 531 
L 1825 531 
L 1825 4091 
L 703 3866 
L 703 4441 
L 1819 4666 
L 2450 4666 
L 2450 531 
L 3481 531 
L 3481 0 
L 794 0 
L 794 531 
z
" transform="scale(0.015625)"/>
       </defs>
       <use xlink:href="#DejaVuSans-31"/>
       <use xlink:href="#DejaVuSans-30" transform="translate(63.623047 0)"/>
       <use xlink:href="#DejaVuSans-30" transform="translate(127.246094 0)"/>
       <use xlink:href="#DejaVuSans-30" transform="translate(190.869141 0)"/>
      </g>
     </g>
    </g>
    <g id="xtick_3">
     <g id="line2d_5">
      <path d="M 229.863663 318.04 
L 229.863663 10.8 
" clip-path="url(#pc3283ddd76)" style="fill: none; stroke: #b0b0b0; stroke-width: 0.8; stroke-linecap: square"/>
     </g>
     <g id="line2d_6">
      <g>
       <use xlink:href="#m2fa4c245f6" x="229.863663" y="318.04" style="stroke: #000000; stroke-width: 0.8"/>
      </g>
     </g>
     <g id="text_3">
      <!-- 2000 -->
      <g transform="translate(217.138663 332.638438) scale(0.1 -0.1)">
       <defs>
        <path id="DejaVuSans-32" d="M 1228 531 
L 3431 531 
L 3431 0 
L 469 0 
L 469 531 
Q 828 903 1448 1529 
Q 2069 2156 2228 2338 
Q 2531 2678 2651 2914 
Q 2772 3150 2772 3378 
Q 2772 3750 2511 3984 
Q 2250 4219 1831 4219 
Q 1534 4219 1204 4116 
Q 875 4013 500 3803 
L 500 4441 
Q 881 4594 1212 4672 
Q 1544 4750 1819 4750 
Q 2544 4750 2975 4387 
Q 3406 4025 3406 3419 
Q 3406 3131 3298 2873 
Q 3191 2616 2906 2266 
Q 2828 2175 2409 1742 
Q 1991 1309 1228 531 
z
" transform="scale(0.015625)"/>
       </defs>
       <use xlink:href="#DejaVuSans-32"/>
       <use xlink:href="#DejaVuSans-30" transform="translate(63.623047 0)"/>
       <use xlink:href="#DejaVuSans-30" transform="translate(127.246094 0)"/>
       <use xlink:href="#DejaVuSans-30" transform="translate(190.869141 0)"/>
      </g>
     </g>
    </g>
    <g id="xtick_4">
     <g id="line2d_7">
      <path d="M 311.91643 318.04 
L 311.91643 10.8 
" clip-path="url(#pc3283ddd76)" style="fill: none; stroke: #b0b0b0; stroke-width: 0.8; stroke-linecap: square"/>
     </g>
     <g id="line2d_8">
      <g>
       <use xlink:href="#m2fa4c245f6" x="311.91643" y="318.04" style="stroke: #000000; stroke-width: 0.8"/>
      </g>
     </g>
     <g id="text_4">
      <!-- 3000 -->
      <g transform="translate(299.19143 332.638438) scale(0.1 -0.1)">
       <defs>
        <path id="DejaVuSans-33" d="M 2597 2516 
Q 3050 2419 3304 2112 
Q 3559 1806 3559 1356 
Q 3559 666 3084 287 
Q 2609 -91 1734 -91 
Q 1441 -91 1130 -33 
Q 819 25 488 141 
L 488 750 
Q 750 597 1062 519 
Q 1375 441 1716 441 
Q 2309 441 2620 675 
Q 2931 909 2931 1356 
Q 2931 1769 2642 2001 
Q 2353 2234 1838 2234 
L 1294 2234 
L 1294 2753 
L 1863 2753 
Q 2328 2753 2575 2939 
Q 2822 3125 2822 3475 
Q 2822 3834 2567 4026 
Q 2313 4219 1838 4219 
Q 1578 4219 1281 4162 
Q 984 4106 628 3988 
L 628 4550 
Q 988 4650 1302 4700 
Q 1616 4750 1894 4750 
Q 2613 4750 3031 4423 
Q 3450 4097 3450 3541 
Q 3450 3153 3228 2886 
Q 3006 2619 2597 2516 
z
" transform="scale(0.015625)"/>
       </defs>
       <use xlink:href="#DejaVuSans-33"/>
       <use xlink:href="#DejaVuSans-30" transform="translate(63.623047 0)"/>
       <use xlink:href="#DejaVuSans-30" transform="translate(127.246094 0)"/>
       <use xlink:href="#DejaVuSans-30" transform="translate(190.869141 0)"/>
      </g>
     </g>
    </g>
    <g id="xtick_5">
     <g id="line2d_9">
      <path d="M 393.969197 318.04 
L 393.969197 10.8 
" clip-path="url(#pc3283ddd76)" style="fill: none; stroke: #b0b0b0; stroke-width: 0.8; stroke-linecap: square"/>
     </g>
     <g id="line2d_10">
      <g>
       <use xlink:href="#m2fa4c245f6" x="393.969197" y="318.04" style="stroke: #000000; stroke-width: 0.8"/>
      </g>
     </g>
     <g id="text_5">
      <!-- 4000 -->
      <g transform="translate(381.244197 332.638438) scale(0.1 -0.1)">
       <defs>
        <path id="DejaVuSans-34" d="M 2419 4116 
L 825 1625 
L 2419 1625 
L 2419 4116 
z
M 2253 4666 
L 3047 4666 
L 3047 1625 
L 3713 1625 
L 3713 1100 
L 3047 1100 
L 3047 0 
L 2419 0 
L 2419 1100 
L 313 1100 
L 313 1709 
L 2253 4666 
z
" transform="scale(0.015625)"/>
       </defs>
       <use xlink:href="#DejaVuSans-34"/>
       <use xlink:href="#DejaVuSans-30" transform="translate(63.623047 0)"/>
       <use xlink:href="#DejaVuSans-30" transform="translate(127.246094 0)"/>
       <use xlink:href="#DejaVuSans-30" transform="translate(190.869141 0)"/>
      </g>
     </g>
    </g>
    <g id="xtick_6">
     <g id="line2d_11">
      <path d="M 476.021963 318.04 
L 476.021963 10.8 
" clip-path="url(#pc3283ddd76)" style="fill: none; stroke: #b0b0b0; stroke-width: 0.8; stroke-linecap: square"/>
     </g>
     <g id="line2d_12">
      <g>
       <use xlink:href="#m2fa4c245f6" x="476.021963" y="318.04" style="stroke: #000000; stroke-width: 0.8"/>
      </g>
     </g>
     <g id="text_6">
      <!-- 5000 -->
      <g transform="translate(463.296963 332.638438) scale(0.1 -0.1)">
       <defs>
        <path id="DejaVuSans-35" d="M 691 4666 
L 3169 4666 
L 3169 4134 
L 1269 4134 
L 1269 2991 
Q 1406 3038 1543 3061 
Q 1681 3084 1819 3084 
Q 2600 3084 3056 2656 
Q 3513 2228 3513 1497 
Q 3513 744 3044 326 
Q 2575 -91 1722 -91 
Q 1428 -91 1123 -41 
Q 819 9 494 109 
L 494 744 
Q 775 591 1075 516 
Q 1375 441 1709 441 
Q 2250 441 2565 725 
Q 2881 1009 2881 1497 
Q 2881 1984 2565 2268 
Q 2250 2553 1709 2553 
Q 1456 2553 1204 2497 
Q 953 2441 691 2322 
L 691 4666 
z
" transform="scale(0.015625)"/>
       </defs>
       <use xlink:href="#DejaVuSans-35"/>
       <use xlink:href="#DejaVuSans-30" transform="translate(63.623047 0)"/>
       <use xlink:href="#DejaVuSans-30" transform="translate(127.246094 0)"/>
       <use xlink:href="#DejaVuSans-30" transform="translate(190.869141 0)"/>
      </g>
     </g>
    </g>
    <g id="text_7">
     <!-- Time (s) -->
     <g transform="translate(261.326094 346.316563) scale(0.1 -0.1)">
      <defs>
       <path id="DejaVuSans-54" d="M -19 4666 
L 3928 4666 
L 3928 4134 
L 2272 4134 
L 2272 0 
L 1638 0 
L 1638 4134 
L -19 4134 
L -19 4666 
z
" transform="scale(0.015625)"/>
       <path id="DejaVuSans-69" d="M 603 3500 
L 1178 3500 
L 1178 0 
L 603 0 
L 603 3500 
z
M 603 4863 
L 1178 4863 
L 1178 4134 
L 603 4134 
L 603 4863 
z
" transform="scale(0.015625)"/>
       <path id="DejaVuSans-6d" d="M 3328 2828 
Q 3544 3216 3844 3400 
Q 4144 3584 4550 3584 
Q 5097 3584 5394 3201 
Q 5691 2819 5691 2113 
L 5691 0 
L 5113 0 
L 5113 2094 
Q 5113 2597 4934 2840 
Q 4756 3084 4391 3084 
Q 3944 3084 3684 2787 
Q 3425 2491 3425 1978 
L 3425 0 
L 2847 0 
L 2847 2094 
Q 2847 2600 2669 2842 
Q 2491 3084 2119 3084 
Q 1678 3084 1418 2786 
Q 1159 2488 1159 1978 
L 1159 0 
L 581 0 
L 581 3500 
L 1159 3500 
L 1159 2956 
Q 1356 3278 1631 3431 
Q 1906 3584 2284 3584 
Q 2666 3584 2933 3390 
Q 3200 3197 3328 2828 
z
" transform="scale(0.015625)"/>
       <path id="DejaVuSans-65" d="M 3597 1894 
L 3597 1613 
L 953 1613 
Q 991 1019 1311 708 
Q 1631 397 2203 397 
Q 2534 397 2845 478 
Q 3156 559 3463 722 
L 3463 178 
Q 3153 47 2828 -22 
Q 2503 -91 2169 -91 
Q 1331 -91 842 396 
Q 353 884 353 1716 
Q 353 2575 817 3079 
Q 1281 3584 2069 3584 
Q 2775 3584 3186 3129 
Q 3597 2675 3597 1894 
z
M 3022 2063 
Q 3016 2534 2758 2815 
Q 2500 3097 2075 3097 
Q 1594 3097 1305 2825 
Q 1016 2553 972 2059 
L 3022 2063 
z
" transform="scale(0.015625)"/>
       <path id="DejaVuSans-20" transform="scale(0.015625)"/>
       <path id="DejaVuSans-28" d="M 1984 4856 
Q 1566 4138 1362 3434 
Q 1159 2731 1159 2009 
Q 1159 1288 1364 580 
Q 1569 -128 1984 -844 
L 1484 -844 
Q 1016 -109 783 600 
Q 550 1309 550 2009 
Q 550 2706 781 3412 
Q 1013 4119 1484 4856 
L 1984 4856 
z
" transform="scale(0.015625)"/>
       <path id="DejaVuSans-73" d="M 2834 3397 
L 2834 2853 
Q 2591 2978 2328 3040 
Q 2066 3103 1784 3103 
Q 1356 3103 1142 2972 
Q 928 2841 928 2578 
Q 928 2378 1081 2264 
Q 1234 2150 1697 2047 
L 1894 2003 
Q 2506 1872 2764 1633 
Q 3022 1394 3022 966 
Q 3022 478 2636 193 
Q 2250 -91 1575 -91 
Q 1294 -91 989 -36 
Q 684 19 347 128 
L 347 722 
Q 666 556 975 473 
Q 1284 391 1588 391 
Q 1994 391 2212 530 
Q 2431 669 2431 922 
Q 2431 1156 2273 1281 
Q 2116 1406 1581 1522 
L 1381 1569 
Q 847 1681 609 1914 
Q 372 2147 372 2553 
Q 372 3047 722 3315 
Q 1072 3584 1716 3584 
Q 2034 3584 2315 3537 
Q 2597 3491 2834 3397 
z
" transform="scale(0.015625)"/>
       <path id="DejaVuSans-29" d="M 513 4856 
L 1013 4856 
Q 1481 4119 1714 3412 
Q 1947 2706 1947 2009 
Q 1947 1309 1714 600 
Q 1481 -109 1013 -844 
L 513 -844 
Q 928 -128 1133 580 
Q 1338 1288 1338 2009 
Q 1338 2731 1133 3434 
Q 928 4138 513 4856 
z
" transform="scale(0.015625)"/>
      </defs>
      <use xlink:href="#DejaVuSans-54"/>
      <use xlink:href="#DejaVuSans-69" transform="translate(57.958984 0)"/>
      <use xlink:href="#DejaVuSans-6d" transform="translate(85.742188 0)"/>
      <use xlink:href="#DejaVuSans-65" transform="translate(183.154297 0)"/>
      <use xlink:href="#DejaVuSans-20" transform="translate(244.677734 0)"/>
      <use xlink:href="#DejaVuSans-28" transform="translate(276.464844 0)"/>
      <use xlink:href="#DejaVuSans-73" transform="translate(315.478516 0)"/>
      <use xlink:href="#DejaVuSans-29" transform="translate(367.578125 0)"/>
     </g>
    </g>
   </g>
   <g id="matplotlib.axis_2">
    <g id="ytick_1">
     <g id="line2d_13">
      <path d="M 44.57 316.955305 
L 518.74 316.955305 
" clip-path="url(#pc3283ddd76)" style="fill: none; stroke: #b0b0b0; stroke-width: 0.8; stroke-linecap: square"/>
     </g>
     <g id="line2d_14">
      <defs>
       <path id="ma3aaf99882" d="M 0 0 
L -3.5 0 
" style="stroke: #000000; stroke-width: 0.8"/>
      </defs>
      <g>
       <use xlink:href="#ma3aaf99882" x="44.57" y="316.955305" style="stroke: #000000; stroke-width: 0.8"/>
      </g>
     </g>
     <g id="text_8">
      <!-- 24 -->
      <g style="fill: #1f77b4" transform="translate(24.845 320.754523) scale(0.1 -0.1)">
       <use xlink:href="#DejaVuSans-32"/>
       <use xlink:href="#DejaVuSans-34" transform="translate(63.623047 0)"/>
      </g>
     </g>
    </g>
    <g id="ytick_2">
     <g id="line2d_15">
      <path d="M 44.57 249.161836 
L 518.74 249.161836 
" clip-path="url(#pc3283ddd76)" style="fill: none; stroke: #b0b0b0; stroke-width: 0.8; stroke-linecap: square"/>
     </g>
     <g id="line2d_16">
      <g>
       <use xlink:href="#ma3aaf99882" x="44.57" y="249.161836" style="stroke: #000000; stroke-width: 0.8"/>
      </g>
     </g>
     <g id="text_9">
      <!-- 25 -->
      <g style="fill: #1f77b4" transform="translate(24.845 252.961055) scale(0.1 -0.1)">
       <use xlink:href="#DejaVuSans-32"/>
       <use xlink:href="#DejaVuSans-35" transform="translate(63.623047 0)"/>
      </g>
     </g>
    </g>
    <g id="ytick_3">
     <g id="line2d_17">
      <path d="M 44.57 181.368367 
L 518.74 181.368367 
" clip-path="url(#pc3283ddd76)" style="fill: none; stroke: #b0b0b0; stroke-width: 0.8; stroke-linecap: square"/>
     </g>
     <g id="line2d_18">
      <g>
       <use xlink:href="#ma3aaf99882" x="44.57" y="181.368367" style="stroke: #000000; stroke-width: 0.8"/>
      </g>
     </g>
     <g id="text_10">
      <!-- 26 -->
      <g style="fill: #1f77b4" transform="translate(24.845 185.167586) scale(0.1 -0.1)">
       <defs>
        <path id="DejaVuSans-36" d="M 2113 2584 
Q 1688 2584 1439 2293 
Q 1191 2003 1191 1497 
Q 1191 994 1439 701 
Q 1688 409 2113 409 
Q 2538 409 2786 701 
Q 3034 994 3034 1497 
Q 3034 2003 2786 2293 
Q 2538 2584 2113 2584 
z
M 3366 4563 
L 3366 3988 
Q 3128 4100 2886 4159 
Q 2644 4219 2406 4219 
Q 1781 4219 1451 3797 
Q 1122 3375 1075 2522 
Q 1259 2794 1537 2939 
Q 1816 3084 2150 3084 
Q 2853 3084 3261 2657 
Q 3669 2231 3669 1497 
Q 3669 778 3244 343 
Q 2819 -91 2113 -91 
Q 1303 -91 875 529 
Q 447 1150 447 2328 
Q 447 3434 972 4092 
Q 1497 4750 2381 4750 
Q 2619 4750 2861 4703 
Q 3103 4656 3366 4563 
z
" transform="scale(0.015625)"/>
       </defs>
       <use xlink:href="#DejaVuSans-32"/>
       <use xlink:href="#DejaVuSans-36" transform="translate(63.623047 0)"/>
      </g>
     </g>
    </g>
    <g id="ytick_4">
     <g id="line2d_19">
      <path d="M 44.57 113.574898 
L 518.74 113.574898 
" clip-path="url(#pc3283ddd76)" style="fill: none; stroke: #b0b0b0; stroke-width: 0.8; stroke-linecap: square"/>
     </g>
     <g id="line2d_20">
      <g>
       <use xlink:href="#ma3aaf99882" x="44.57" y="113.574898" style="stroke: #000000; stroke-width: 0.8"/>
      </g>
     </g>
     <g id="text_11">
      <!-- 27 -->
      <g style="fill: #1f77b4" transform="translate(24.845 117.374117) scale(0.1 -0.1)">
       <defs>
        <path id="DejaVuSans-37" d="M 525 4666 
L 3525 4666 
L 3525 4397 
L 1831 0 
L 1172 0 
L 2766 4134 
L 525 4134 
L 525 4666 
z
" transform="scale(0.015625)"/>
       </defs>
       <use xlink:href="#DejaVuSans-32"/>
       <use xlink:href="#DejaVuSans-37" transform="translate(63.623047 0)"/>
      </g>
     </g>
    </g>
    <g id="ytick_5">
     <g id="line2d_21">
      <path d="M 44.57 45.78143 
L 518.74 45.78143 
" clip-path="url(#pc3283ddd76)" style="fill: none; stroke: #b0b0b0; stroke-width: 0.8; stroke-linecap: square"/>
     </g>
     <g id="line2d_22">
      <g>
       <use xlink:href="#ma3aaf99882" x="44.57" y="45.78143" style="stroke: #000000; stroke-width: 0.8"/>
      </g>
     </g>
     <g id="text_12">
      <!-- 28 -->
      <g style="fill: #1f77b4" transform="translate(24.845 49.580649) scale(0.1 -0.1)">
       <defs>
        <path id="DejaVuSans-38" d="M 2034 2216 
Q 1584 2216 1326 1975 
Q 1069 1734 1069 1313 
Q 1069 891 1326 650 
Q 1584 409 2034 409 
Q 2484 409 2743 651 
Q 3003 894 3003 1313 
Q 3003 1734 2745 1975 
Q 2488 2216 2034 2216 
z
M 1403 2484 
Q 997 2584 770 2862 
Q 544 3141 544 3541 
Q 544 4100 942 4425 
Q 1341 4750 2034 4750 
Q 2731 4750 3128 4425 
Q 3525 4100 3525 3541 
Q 3525 3141 3298 2862 
Q 3072 2584 2669 2484 
Q 3125 2378 3379 2068 
Q 3634 1759 3634 1313 
Q 3634 634 3220 271 
Q 2806 -91 2034 -91 
Q 1263 -91 848 271 
Q 434 634 434 1313 
Q 434 1759 690 2068 
Q 947 2378 1403 2484 
z
M 1172 3481 
Q 1172 3119 1398 2916 
Q 1625 2713 2034 2713 
Q 2441 2713 2670 2916 
Q 2900 3119 2900 3481 
Q 2900 3844 2670 4047 
Q 2441 4250 2034 4250 
Q 1625 4250 1398 4047 
Q 1172 3844 1172 3481 
z
" transform="scale(0.015625)"/>
       </defs>
       <use xlink:href="#DejaVuSans-32"/>
       <use xlink:href="#DejaVuSans-38" transform="translate(63.623047 0)"/>
      </g>
     </g>
    </g>
    <g id="text_13">
     <!-- Temperature (°C) -->
     <g style="fill: #1f77b4" transform="translate(18.765313 207.571563) rotate(-90) scale(0.1 -0.1)">
      <defs>
       <path id="DejaVuSans-70" d="M 1159 525 
L 1159 -1331 
L 581 -1331 
L 581 3500 
L 1159 3500 
L 1159 2969 
Q 1341 3281 1617 3432 
Q 1894 3584 2278 3584 
Q 2916 3584 3314 3078 
Q 3713 2572 3713 1747 
Q 3713 922 3314 415 
Q 2916 -91 2278 -91 
Q 1894 -91 1617 61 
Q 1341 213 1159 525 
z
M 3116 1747 
Q 3116 2381 2855 2742 
Q 2594 3103 2138 3103 
Q 1681 3103 1420 2742 
Q 1159 2381 1159 1747 
Q 1159 1113 1420 752 
Q 1681 391 2138 391 
Q 2594 391 2855 752 
Q 3116 1113 3116 1747 
z
" transform="scale(0.015625)"/>
       <path id="DejaVuSans-72" d="M 2631 2963 
Q 2534 3019 2420 3045 
Q 2306 3072 2169 3072 
Q 1681 3072 1420 2755 
Q 1159 2438 1159 1844 
L 1159 0 
L 581 0 
L 581 3500 
L 1159 3500 
L 1159 2956 
Q 1341 3275 1631 3429 
Q 1922 3584 2338 3584 
Q 2397 3584 2469 3576 
Q 2541 3569 2628 3553 
L 2631 2963 
z
" transform="scale(0.015625)"/>
       <path id="DejaVuSans-61" d="M 2194 1759 
Q 1497 1759 1228 1600 
Q 959 1441 959 1056 
Q 959 750 1161 570 
Q 1363 391 1709 391 
Q 2188 391 2477 730 
Q 2766 1069 2766 1631 
L 2766 1759 
L 2194 1759 
z
M 3341 1997 
L 3341 0 
L 2766 0 
L 2766 531 
Q 2569 213 2275 61 
Q 1981 -91 1556 -91 
Q 1019 -91 701 211 
Q 384 513 384 1019 
Q 384 1609 779 1909 
Q 1175 2209 1959 2209 
L 2766 2209 
L 2766 2266 
Q 2766 2663 2505 2880 
Q 2244 3097 1772 3097 
Q 1472 3097 1187 3025 
Q 903 2953 641 2809 
L 641 3341 
Q 956 3463 1253 3523 
Q 1550 3584 1831 3584 
Q 2591 3584 2966 3190 
Q 3341 2797 3341 1997 
z
" transform="scale(0.015625)"/>
       <path id="DejaVuSans-74" d="M 1172 4494 
L 1172 3500 
L 2356 3500 
L 2356 3053 
L 1172 3053 
L 1172 1153 
Q 1172 725 1289 603 
Q 1406 481 1766 481 
L 2356 481 
L 2356 0 
L 1766 0 
Q 1100 0 847 248 
Q 594 497 594 1153 
L 594 3053 
L 172 3053 
L 172 3500 
L 594 3500 
L 594 4494 
L 1172 4494 
z
" transform="scale(0.015625)"/>
       <path id="DejaVuSans-75" d="M 544 1381 
L 544 3500 
L 1119 3500 
L 1119 1403 
Q 1119 906 1312 657 
Q 1506 409 1894 409 
Q 2359 409 2629 706 
Q 2900 1003 2900 1516 
L 2900 3500 
L 3475 3500 
L 3475 0 
L 2900 0 
L 2900 538 
Q 2691 219 2414 64 
Q 2138 -91 1772 -91 
Q 1169 -91 856 284 
Q 544 659 544 1381 
z
M 1991 3584 
L 1991 3584 
z
" transform="scale(0.015625)"/>
       <path id="DejaVuSans-b0" d="M 1600 4347 
Q 1350 4347 1178 4173 
Q 1006 4000 1006 3750 
Q 1006 3503 1178 3333 
Q 1350 3163 1600 3163 
Q 1850 3163 2022 3333 
Q 2194 3503 2194 3750 
Q 2194 3997 2020 4172 
Q 1847 4347 1600 4347 
z
M 1600 4750 
Q 1800 4750 1984 4673 
Q 2169 4597 2303 4453 
Q 2447 4313 2519 4134 
Q 2591 3956 2591 3750 
Q 2591 3338 2302 3052 
Q 2013 2766 1594 2766 
Q 1172 2766 890 3047 
Q 609 3328 609 3750 
Q 609 4169 896 4459 
Q 1184 4750 1600 4750 
z
" transform="scale(0.015625)"/>
       <path id="DejaVuSans-43" d="M 4122 4306 
L 4122 3641 
Q 3803 3938 3442 4084 
Q 3081 4231 2675 4231 
Q 1875 4231 1450 3742 
Q 1025 3253 1025 2328 
Q 1025 1406 1450 917 
Q 1875 428 2675 428 
Q 3081 428 3442 575 
Q 3803 722 4122 1019 
L 4122 359 
Q 3791 134 3420 21 
Q 3050 -91 2638 -91 
Q 1578 -91 968 557 
Q 359 1206 359 2328 
Q 359 3453 968 4101 
Q 1578 4750 2638 4750 
Q 3056 4750 3426 4639 
Q 3797 4528 4122 4306 
z
" transform="scale(0.015625)"/>
      </defs>
      <use xlink:href="#DejaVuSans-54"/>
      <use xlink:href="#DejaVuSans-65" transform="translate(44.083984 0)"/>
      <use xlink:href="#DejaVuSans-6d" transform="translate(105.607422 0)"/>
      <use xlink:href="#DejaVuSans-70" transform="translate(203.019531 0)"/>
      <use xlink:href="#DejaVuSans-65" transform="translate(266.496094 0)"/>
      <use xlink:href="#DejaVuSans-72" transform="translate(328.019531 0)"/>
      <use xlink:href="#DejaVuSans-61" transform="translate(369.132812 0)"/>
      <use xlink:href="#DejaVuSans-74" transform="translate(430.412109 0)"/>
      <use xlink:href="#DejaVuSans-75" transform="translate(469.621094 0)"/>
      <use xlink:href="#DejaVuSans-72" transform="translate(533 0)"/>
      <use xlink:href="#DejaVuSans-65" transform="translate(571.863281 0)"/>
      <use xlink:href="#DejaVuSans-20" transform="translate(633.386719 0)"/>
      <use xlink:href="#DejaVuSans-28" transform="translate(665.173828 0)"/>
      <use xlink:href="#DejaVuSans-b0" transform="translate(704.1875 0)"/>
      <use xlink:href="#DejaVuSans-43" transform="translate(754.1875 0)"/>
      <use xlink:href="#DejaVuSans-29" transform="translate(824.011719 0)"/>
     </g>
    </g>
   </g>
   <g id="line2d_23">
    <path d="M 66.123182 105.439682 
L 66.256682 92.558923 
L 66.323473 96.626531 
L 66.45689 92.558923 
L 66.857308 92.558923 
L 66.990726 88.491315 
L 67.324106 88.491315 
L 67.457278 83.745772 
L 69.455755 83.745772 
L 69.588927 88.491315 
L 69.722098 88.491315 
L 69.788725 83.745772 
L 69.85527 88.491315 
L 70.454665 49.849038 
L 70.521292 49.849038 
L 70.654464 45.78143 
L 70.721091 45.78143 
L 70.854262 41.713822 
L 70.987434 41.713822 
L 71.120934 37.646214 
L 71.387277 37.646214 
L 71.520531 32.900671 
L 71.720329 32.900671 
L 71.786874 28.833063 
L 71.853501 32.900671 
L 71.986673 28.833063 
L 72.919366 28.833063 
L 72.985993 24.765455 
L 73.052538 28.833063 
L 73.119165 24.765455 
L 73.252336 28.833063 
L 73.651933 28.833063 
L 73.785105 32.900671 
L 74.251329 32.900671 
L 74.384829 37.646214 
L 74.784426 37.646214 
L 74.917597 41.713822 
L 75.450366 41.713822 
L 75.583538 45.78143 
L 75.849963 45.78143 
L 75.983463 49.849038 
L 76.38306 49.849038 
L 76.449605 54.594581 
L 76.516231 49.849038 
L 76.649403 54.594581 
L 77.049 54.594581 
L 77.182172 58.662189 
L 77.51547 58.662189 
L 77.648642 62.729797 
L 78.314582 62.729797 
L 78.447754 66.797405 
L 79.579343 66.797405 
L 79.645806 71.542948 
L 79.712351 66.797405 
L 79.845358 71.542948 
L 81.042262 71.542948 
L 81.108725 75.610556 
L 81.241814 71.542948 
L 81.374822 71.542948 
L 81.507829 75.610556 
L 83.104248 75.610556 
L 83.237256 79.678164 
L 85.166562 79.678164 
L 85.29957 83.745772 
L 85.366115 83.745772 
L 85.432577 79.678164 
L 85.565585 83.745772 
L 87.162168 83.745772 
L 87.22863 88.491315 
L 87.295175 83.745772 
L 87.428183 88.491315 
L 87.56119 88.491315 
L 87.627735 83.745772 
L 87.760743 88.491315 
L 88.958139 88.491315 
L 89.024683 92.558923 
L 89.091146 88.491315 
L 89.224154 92.558923 
L 89.290698 88.491315 
L 89.423706 92.558923 
L 90.95358 92.558923 
L 91.086587 96.626531 
L 92.550409 96.626531 
L 92.683416 100.694139 
L 93.81476 100.694139 
L 93.881223 105.439682 
L 94.014312 100.694139 
L 94.080857 100.694139 
L 94.213947 105.439682 
L 94.281148 100.694139 
L 94.414237 105.439682 
L 95.678424 105.439682 
L 95.811432 109.50729 
L 95.944521 105.439682 
L 96.077857 109.50729 
L 97.20879 109.50729 
L 97.275335 113.574898 
L 97.341798 109.50729 
L 97.408343 113.574898 
L 97.474888 109.50729 
L 97.607731 113.574898 
L 98.938381 113.574898 
L 99.004844 117.642507 
L 99.071388 113.574898 
L 99.204724 117.642507 
L 100.402202 117.642507 
L 100.53521 122.388049 
L 100.601754 122.388049 
L 100.668545 117.642507 
L 100.801553 122.388049 
L 102.132203 122.388049 
L 102.265456 126.455658 
L 103.529479 126.455658 
L 103.862367 160.352392 
L 104.328263 160.352392 
L 104.461353 164.42 
L 104.661069 164.42 
L 104.794159 168.487608 
L 104.927248 168.487608 
L 105.060338 173.233151 
L 105.326845 173.233151 
L 105.459935 177.300759 
L 105.859285 177.300759 
L 105.992375 181.368367 
L 106.791077 181.368367 
L 106.857868 185.435975 
L 106.990957 181.368367 
L 107.057502 185.435975 
L 107.124047 181.368367 
L 107.190592 185.435975 
L 107.257136 181.368367 
L 107.390226 185.435975 
L 109.520234 185.435975 
L 109.586779 190.181518 
L 109.719868 185.435975 
L 109.986376 185.435975 
L 110.05292 190.181518 
L 110.186092 185.435975 
L 110.319182 185.435975 
L 110.385726 190.181518 
L 110.518816 185.435975 
L 110.585443 190.181518 
L 110.718532 185.435975 
L 110.851622 185.435975 
L 110.984712 190.181518 
L 111.184428 190.181518 
L 111.250973 185.435975 
L 111.384062 190.181518 
L 111.450689 185.435975 
L 111.584025 190.181518 
L 118.506899 190.181518 
L 118.573444 194.249126 
L 118.706615 190.181518 
L 119.239548 190.181518 
L 119.306093 194.249126 
L 119.439265 190.181518 
L 119.638981 190.181518 
L 119.705526 194.249126 
L 119.838697 190.181518 
L 120.038414 190.181518 
L 120.104959 194.249126 
L 120.23813 190.181518 
L 120.304675 194.249126 
L 120.37122 190.181518 
L 120.437847 194.249126 
L 120.504392 190.181518 
L 120.570936 194.249126 
L 120.704108 190.181518 
L 120.837526 194.249126 
L 120.904153 190.181518 
L 120.970697 194.249126 
L 121.103869 190.181518 
L 121.237041 190.181518 
L 121.303585 194.249126 
L 121.370212 190.181518 
L 121.503302 194.249126 
L 121.569929 190.181518 
L 121.7031 194.249126 
L 121.769645 190.181518 
L 121.902817 194.249126 
L 122.102533 194.249126 
L 122.169078 190.181518 
L 122.30225 194.249126 
L 128.228593 194.249126 
L 128.361682 198.316734 
L 128.494854 194.249126 
L 128.628272 198.316734 
L 128.694899 198.316734 
L 128.82807 194.249126 
L 128.961242 198.316734 
L 134.023652 198.316734 
L 134.090196 202.384342 
L 134.22345 198.316734 
L 134.489793 198.316734 
L 134.622965 202.384342 
L 134.689592 202.384342 
L 134.756465 198.316734 
L 134.889636 202.384342 
L 138.886181 202.384342 
L 138.952807 207.129885 
L 139.085979 202.384342 
L 139.152606 202.384342 
L 139.285778 207.129885 
L 139.352322 202.384342 
L 139.419195 207.129885 
L 139.552449 202.384342 
L 139.618994 207.129885 
L 139.685621 202.384342 
L 139.818792 207.129885 
L 139.951964 207.129885 
L 140.018591 202.384342 
L 140.151762 207.129885 
L 144.543062 207.129885 
L 144.609607 211.197493 
L 144.742615 207.129885 
L 144.875622 211.197493 
L 145.00863 207.129885 
L 145.141637 211.197493 
L 149.066467 211.197493 
L 149.133012 215.265102 
L 149.199475 211.197493 
L 149.332564 215.265102 
L 149.465572 211.197493 
L 149.59858 215.265102 
L 149.798132 215.265102 
L 149.864595 211.197493 
L 149.931139 215.265102 
L 149.997602 211.197493 
L 150.130938 215.265102 
L 154.055111 215.265102 
L 154.121656 219.33271 
L 154.254746 215.265102 
L 154.321209 219.33271 
L 154.454298 215.265102 
L 154.520843 215.265102 
L 154.587634 219.33271 
L 154.654179 215.265102 
L 154.787186 219.33271 
L 154.853731 219.33271 
L 154.920276 215.265102 
L 155.053365 219.33271 
L 155.319463 219.33271 
L 155.386007 215.265102 
L 155.519097 219.33271 
L 158.380441 219.33271 
L 158.446986 224.078252 
L 158.579993 219.33271 
L 159.245605 219.33271 
L 159.378695 224.078252 
L 159.511703 219.33271 
L 159.7778 219.33271 
L 159.844344 224.078252 
L 159.910889 219.33271 
L 160.043979 224.078252 
L 160.975688 224.078252 
L 161.042233 219.33271 
L 161.175322 224.078252 
L 165.302002 224.078252 
L 165.368547 228.145861 
L 165.501719 224.078252 
L 165.634972 228.145861 
L 166.234286 228.145861 
L 166.300913 224.078252 
L 166.43433 228.145861 
L 170.165106 228.145861 
L 170.23165 232.213469 
L 170.364822 228.145861 
L 170.964546 228.145861 
L 171.097717 232.213469 
L 171.164344 228.145861 
L 171.297516 232.213469 
L 171.364143 232.213469 
L 171.497314 228.145861 
L 171.630486 232.213469 
L 171.830284 232.213469 
L 171.896911 228.145861 
L 172.030083 232.213469 
L 172.430008 232.213469 
L 172.496553 228.145861 
L 172.56318 232.213469 
L 172.629807 228.145861 
L 172.762978 232.213469 
L 176.959157 232.213469 
L 177.025619 236.281077 
L 177.158627 232.213469 
L 177.225172 236.281077 
L 177.358179 232.213469 
L 177.424642 236.281077 
L 177.491187 232.213469 
L 177.55765 236.281077 
L 177.624194 232.213469 
L 177.757202 236.281077 
L 177.890209 236.281077 
L 177.956672 232.213469 
L 178.023217 236.281077 
L 178.156225 232.213469 
L 178.289478 236.281077 
L 178.555493 236.281077 
L 178.622038 232.213469 
L 178.755046 236.281077 
L 183.07898 236.281077 
L 183.145443 241.02662 
L 183.211988 236.281077 
L 183.344995 241.02662 
L 183.41154 241.02662 
L 183.478003 236.281077 
L 183.61101 241.02662 
L 183.677555 241.02662 
L 183.810563 236.281077 
L 183.877108 236.281077 
L 184.010115 241.02662 
L 184.143123 236.281077 
L 184.276376 241.02662 
L 184.342921 236.281077 
L 184.409384 241.02662 
L 184.475929 236.281077 
L 184.608936 241.02662 
L 184.675399 236.281077 
L 184.808489 241.02662 
L 189.797133 241.02662 
L 189.863677 245.094228 
L 189.996767 241.02662 
L 190.06323 241.02662 
L 190.130021 245.094228 
L 190.26311 241.02662 
L 190.329655 241.02662 
L 190.3962 245.094228 
L 190.462745 241.02662 
L 190.529289 245.094228 
L 190.662297 241.02662 
L 190.728842 241.02662 
L 190.795387 245.094228 
L 190.861931 241.02662 
L 190.928476 245.094228 
L 190.994939 241.02662 
L 191.128029 245.094228 
L 196.185515 245.094228 
L 196.25206 249.161836 
L 196.385067 245.094228 
L 196.451612 245.094228 
L 196.518157 249.161836 
L 196.651246 245.094228 
L 196.917344 245.094228 
L 196.983888 249.161836 
L 197.116978 245.094228 
L 197.31653 245.094228 
L 197.383075 249.161836 
L 197.44962 245.094228 
L 197.582874 249.161836 
L 197.715963 249.161836 
L 197.782508 245.094228 
L 197.915597 249.161836 
L 198.181695 249.161836 
L 198.248239 245.094228 
L 198.381329 249.161836 
L 199.312956 249.161836 
L 199.379501 245.094228 
L 199.51259 249.161836 
L 204.504435 249.161836 
L 204.637606 253.229444 
L 204.770696 249.161836 
L 204.837241 253.229444 
L 204.970658 249.161836 
L 205.170293 249.161836 
L 205.236838 253.229444 
L 205.303382 249.161836 
L 205.370009 253.229444 
L 205.436554 249.161836 
L 205.503099 253.229444 
L 205.569644 249.161836 
L 205.636188 253.229444 
L 205.702733 249.161836 
L 205.835905 253.229444 
L 205.90245 253.229444 
L 206.035539 249.161836 
L 206.102084 253.229444 
L 206.168629 249.161836 
L 206.301801 253.229444 
L 213.625092 253.229444 
L 213.691637 257.974987 
L 213.758264 253.229444 
L 213.825055 257.974987 
L 213.958226 253.229444 
L 214.091398 253.229444 
L 214.157943 257.974987 
L 214.291114 253.229444 
L 214.357659 257.974987 
L 214.424286 253.229444 
L 214.490831 257.974987 
L 214.624002 253.229444 
L 214.757174 257.974987 
L 214.823719 257.974987 
L 214.890264 253.229444 
L 215.023435 257.974987 
L 215.090062 257.974987 
L 215.156607 253.229444 
L 215.289779 257.974987 
L 215.356652 253.229444 
L 215.489741 257.974987 
L 215.756084 257.974987 
L 215.822629 253.229444 
L 215.955801 257.974987 
L 216.488405 257.974987 
L 216.555032 253.229444 
L 216.688204 257.974987 
L 224.145488 257.974987 
L 224.212361 262.042595 
L 224.278905 257.974987 
L 224.345532 262.042595 
L 224.478704 257.974987 
L 224.545249 257.974987 
L 224.611875 262.042595 
L 224.745047 257.974987 
L 224.878219 257.974987 
L 225.01139 262.042595 
L 225.078017 257.974987 
L 225.144562 262.042595 
L 225.277816 257.974987 
L 225.34436 257.974987 
L 225.410987 262.042595 
L 225.544159 257.974987 
L 225.610786 257.974987 
L 225.744204 262.042595 
L 225.81083 262.042595 
L 225.944002 257.974987 
L 226.077174 262.042595 
L 226.210345 262.042595 
L 226.276972 257.974987 
L 226.410144 262.042595 
L 226.476771 262.042595 
L 226.609942 257.974987 
L 226.743196 262.042595 
L 226.809741 262.042595 
L 226.876368 257.974987 
L 227.009539 262.042595 
L 227.142711 262.042595 
L 227.209666 257.974987 
L 227.342838 262.042595 
L 227.542636 262.042595 
L 227.609263 257.974987 
L 227.742435 262.042595 
L 227.942233 262.042595 
L 228.00886 257.974987 
L 228.142032 262.042595 
L 228.34183 262.042595 
L 228.408457 257.974987 
L 228.541629 262.042595 
L 237.465359 262.042595 
L 237.531822 266.110203 
L 237.665076 262.042595 
L 238.06418 262.042595 
L 238.130643 266.110203 
L 238.263651 262.042595 
L 238.662755 262.042595 
L 238.729218 266.110203 
L 238.862226 262.042595 
L 238.92877 266.110203 
L 238.995315 262.042595 
L 239.062024 266.110203 
L 239.195032 262.042595 
L 239.261576 262.042595 
L 239.328121 266.110203 
L 239.461129 262.042595 
L 239.527592 266.110203 
L 239.594136 262.042595 
L 239.660599 266.110203 
L 239.793689 262.042595 
L 239.860151 266.110203 
L 239.993159 262.042595 
L 240.059704 266.110203 
L 240.192711 262.042595 
L 240.259256 266.110203 
L 240.392264 262.042595 
L 240.525517 266.110203 
L 240.658525 262.042595 
L 240.791614 266.110203 
L 241.323645 266.110203 
L 241.390189 262.042595 
L 241.523197 266.110203 
L 241.722749 266.110203 
L 241.789294 262.042595 
L 241.922302 266.110203 
L 242.055555 266.110203 
L 242.1221 262.042595 
L 242.188563 266.110203 
L 242.255108 262.042595 
L 242.388115 266.110203 
L 243.585593 266.110203 
L 243.652056 262.042595 
L 243.785145 266.110203 
L 253.632462 266.110203 
L 253.698925 270.177811 
L 253.832014 266.110203 
L 253.898395 266.110203 
L 253.964858 270.177811 
L 254.097947 266.110203 
L 254.630224 266.110203 
L 254.696769 270.177811 
L 254.829858 266.110203 
L 255.229045 266.110203 
L 255.29559 270.177811 
L 255.428925 266.110203 
L 255.561933 270.177811 
L 255.628478 266.110203 
L 255.695023 270.177811 
L 255.761567 266.110203 
L 255.894657 270.177811 
L 255.961202 270.177811 
L 256.027664 266.110203 
L 256.094209 270.177811 
L 256.227299 266.110203 
L 256.360388 266.110203 
L 256.493396 270.177811 
L 256.626486 266.110203 
L 256.759575 270.177811 
L 256.892911 270.177811 
L 257.026 266.110203 
L 257.092463 266.110203 
L 257.225553 270.177811 
L 257.35856 270.177811 
L 257.425105 266.110203 
L 257.558195 270.177811 
L 258.356732 270.177811 
L 258.423277 266.110203 
L 258.556285 270.177811 
L 269.279925 270.177811 
L 269.413178 274.923354 
L 269.54635 270.177811 
L 271.877387 270.177811 
L 271.943932 274.923354 
L 272.076939 270.177811 
L 273.074455 270.177811 
L 273.141246 274.923354 
L 273.274253 270.177811 
L 273.340798 270.177811 
L 273.407261 274.923354 
L 273.540269 270.177811 
L 273.606813 270.177811 
L 273.673358 274.923354 
L 273.806366 270.177811 
L 273.939373 270.177811 
L 274.005918 274.923354 
L 274.138926 270.177811 
L 274.271933 270.177811 
L 274.338478 274.923354 
L 274.471485 270.177811 
L 274.537948 270.177811 
L 274.604739 274.923354 
L 274.737747 270.177811 
L 274.870754 270.177811 
L 274.937299 274.923354 
L 275.003844 270.177811 
L 275.070306 274.923354 
L 275.203314 270.177811 
L 275.269859 274.923354 
L 275.336404 270.177811 
L 275.402866 274.923354 
L 275.535874 270.177811 
L 275.668963 270.177811 
L 275.735426 274.923354 
L 275.801971 270.177811 
L 275.934979 274.923354 
L 276.5338 274.923354 
L 276.666807 270.177811 
L 276.733352 274.923354 
L 276.866359 270.177811 
L 276.999367 274.923354 
L 277.065912 274.923354 
L 277.132375 270.177811 
L 277.198919 274.923354 
L 277.265464 270.177811 
L 277.398472 274.923354 
L 277.731278 274.923354 
L 277.79774 270.177811 
L 277.93083 274.923354 
L 278.329853 274.923354 
L 278.396397 270.177811 
L 278.529405 274.923354 
L 279.460786 274.923354 
L 279.593876 270.177811 
L 279.726883 274.923354 
L 292.235991 274.923354 
L 292.302536 278.990962 
L 292.43579 274.923354 
L 293.30079 274.923354 
L 293.433798 278.990962 
L 293.566887 274.923354 
L 293.766522 274.923354 
L 293.833067 278.990962 
L 293.96632 274.923354 
L 294.032865 278.990962 
L 294.165955 274.923354 
L 294.298962 274.923354 
L 294.365507 278.990962 
L 294.498597 274.923354 
L 294.964246 274.923354 
L 295.030791 278.990962 
L 295.097336 274.923354 
L 295.16388 278.990962 
L 295.296888 274.923354 
L 295.363679 278.990962 
L 295.496768 274.923354 
L 295.629858 278.990962 
L 295.76303 274.923354 
L 295.962664 274.923354 
L 296.095754 278.990962 
L 296.162298 278.990962 
L 296.228843 274.923354 
L 296.362015 278.990962 
L 296.42856 274.923354 
L 296.561649 278.990962 
L 296.628194 274.923354 
L 296.761284 278.990962 
L 296.828075 274.923354 
L 296.961246 278.990962 
L 297.160881 278.990962 
L 297.227425 274.923354 
L 297.360597 278.990962 
L 297.560231 278.990962 
L 297.693403 274.923354 
L 297.826493 278.990962 
L 297.893037 274.923354 
L 297.959582 278.990962 
L 298.092754 274.923354 
L 298.159299 278.990962 
L 298.225843 274.923354 
L 298.359179 278.990962 
L 298.891702 278.990962 
L 298.958246 274.923354 
L 299.091336 278.990962 
L 299.424142 278.990962 
L 299.557232 274.923354 
L 299.623858 278.990962 
L 299.690403 274.923354 
L 299.823739 278.990962 
L 300.289635 278.990962 
L 300.356261 274.923354 
L 300.489351 278.990962 
L 300.555896 274.923354 
L 300.688985 278.990962 
L 303.55156 278.990962 
L 303.618105 274.923354 
L 303.751195 278.990962 
L 319.198859 278.990962 
L 319.265486 283.05857 
L 319.398657 278.990962 
L 320.464851 278.990962 
L 320.531724 283.05857 
L 320.664896 278.990962 
L 322.862515 278.990962 
L 322.929142 283.05857 
L 322.995687 278.990962 
L 323.062313 283.05857 
L 323.195485 278.990962 
L 323.262112 278.990962 
L 323.395284 283.05857 
L 323.46191 283.05857 
L 323.59541 278.990962 
L 324.128179 278.990962 
L 324.194806 283.05857 
L 324.327977 278.990962 
L 324.527776 278.990962 
L 324.66103 283.05857 
L 324.794201 278.990962 
L 324.860828 278.990962 
L 324.927373 283.05857 
L 325.060873 278.990962 
L 325.127499 283.05857 
L 325.194044 278.990962 
L 325.260671 283.05857 
L 325.393843 278.990962 
L 325.660268 278.990962 
L 325.726895 283.05857 
L 325.860067 278.990962 
L 325.993238 278.990962 
L 326.059865 283.05857 
L 326.193037 278.990962 
L 326.392835 278.990962 
L 326.459708 283.05857 
L 326.526335 278.990962 
L 326.659507 283.05857 
L 326.726134 283.05857 
L 326.859305 278.990962 
L 326.992559 283.05857 
L 327.192357 283.05857 
L 327.258902 278.990962 
L 327.392156 283.05857 
L 327.458701 278.990962 
L 327.525327 283.05857 
L 327.658499 278.990962 
L 327.791753 283.05857 
L 327.924924 278.990962 
L 328.191596 278.990962 
L 328.258223 283.05857 
L 328.324768 278.990962 
L 328.391394 283.05857 
L 328.524566 278.990962 
L 328.591193 278.990962 
L 328.65782 283.05857 
L 328.790991 278.990962 
L 328.924163 283.05857 
L 328.99079 278.990962 
L 329.123962 283.05857 
L 329.257215 278.990962 
L 329.32376 278.990962 
L 329.45726 283.05857 
L 329.590432 278.990962 
L 329.657058 283.05857 
L 329.79023 278.990962 
L 329.856857 283.05857 
L 329.990029 278.990962 
L 330.056655 278.990962 
L 330.1232 283.05857 
L 330.256372 278.990962 
L 330.589342 278.990962 
L 330.722596 283.05857 
L 330.78914 283.05857 
L 330.855767 278.990962 
L 330.92264 283.05857 
L 330.989103 278.990962 
L 331.122111 283.05857 
L 331.188573 278.990962 
L 331.321581 283.05857 
L 331.587596 283.05857 
L 331.654141 278.990962 
L 331.787148 283.05857 
L 332.053163 283.05857 
L 332.186171 278.990962 
L 332.252716 283.05857 
L 332.319178 278.990962 
L 332.452432 283.05857 
L 332.518977 283.05857 
L 332.58544 278.990962 
L 332.718447 283.05857 
L 334.381493 283.05857 
L 334.448037 278.990962 
L 334.581045 283.05857 
L 335.711978 283.05857 
L 335.778523 278.990962 
L 335.911531 283.05857 
L 335.977993 283.05857 
L 336.044538 278.990962 
L 336.177546 283.05857 
L 338.106606 283.05857 
L 338.173151 278.990962 
L 338.306405 283.05857 
L 338.638965 283.05857 
L 338.705509 278.990962 
L 338.838517 283.05857 
L 384.095295 283.05857 
L 384.16184 287.126178 
L 384.295175 283.05857 
L 387.954975 283.05857 
L 388.02152 287.126178 
L 388.154609 283.05857 
L 395.476506 283.05857 
L 395.543051 287.126178 
L 395.676222 283.05857 
L 395.742767 283.05857 
L 395.809312 287.126178 
L 395.942401 283.05857 
L 396.142364 283.05857 
L 396.208909 287.126178 
L 396.341998 283.05857 
L 396.741349 283.05857 
L 396.807894 287.126178 
L 396.941066 283.05857 
L 397.074155 283.05857 
L 397.1407 287.126178 
L 397.27379 283.05857 
L 397.340417 287.126178 
L 397.473506 283.05857 
L 397.806558 283.05857 
L 397.873103 287.126178 
L 398.006193 283.05857 
L 398.804894 283.05857 
L 398.871439 287.126178 
L 399.004611 283.05857 
L 400.602506 283.05857 
L 400.669051 287.126178 
L 400.802141 283.05857 
L 401.06832 283.05857 
L 401.201409 287.126178 
L 401.334581 283.05857 
L 401.800395 283.05857 
L 401.866939 287.126178 
L 402.000029 283.05857 
L 402.133447 287.126178 
L 402.266618 283.05857 
L 402.466335 283.05857 
L 402.53288 287.126178 
L 402.599507 283.05857 
L 402.666051 287.126178 
L 402.732596 283.05857 
L 402.799223 287.126178 
L 402.932313 283.05857 
L 403.065484 283.05857 
L 403.132029 287.126178 
L 403.265201 283.05857 
L 404.596999 283.05857 
L 404.663544 287.126178 
L 404.730171 283.05857 
L 404.863342 287.126178 
L 404.929887 283.05857 
L 405.063305 287.126178 
L 405.129932 283.05857 
L 405.196477 287.126178 
L 405.329648 283.05857 
L 405.46282 287.126178 
L 405.529365 283.05857 
L 405.595909 287.126178 
L 405.662536 283.05857 
L 405.729081 287.126178 
L 405.862253 283.05857 
L 405.928798 287.126178 
L 405.995424 283.05857 
L 406.061969 287.126178 
L 406.195141 283.05857 
L 406.261686 283.05857 
L 406.328312 287.126178 
L 406.46173 283.05857 
L 406.528275 287.126178 
L 406.661447 283.05857 
L 406.794618 283.05857 
L 406.861163 287.126178 
L 406.92779 283.05857 
L 406.994335 287.126178 
L 407.060962 283.05857 
L 407.194051 287.126178 
L 407.327223 283.05857 
L 407.460395 283.05857 
L 407.593566 287.126178 
L 407.726656 287.126178 
L 407.793283 283.05857 
L 407.859827 287.126178 
L 407.926372 283.05857 
L 408.059872 287.126178 
L 408.126417 287.126178 
L 408.192962 283.05857 
L 408.259588 287.126178 
L 408.326133 283.05857 
L 408.459305 287.126178 
L 408.659021 287.126178 
L 408.792193 283.05857 
L 408.858738 287.126178 
L 408.925365 283.05857 
L 408.991909 287.126178 
L 409.058536 283.05857 
L 409.191626 287.126178 
L 409.258253 287.126178 
L 409.391424 283.05857 
L 409.524842 287.126178 
L 409.791103 287.126178 
L 409.924275 283.05857 
L 409.990902 283.05857 
L 410.123991 287.126178 
L 410.656678 287.126178 
L 410.789768 283.05857 
L 410.923267 283.05857 
L 410.989812 287.126178 
L 411.056357 283.05857 
L 411.189529 287.126178 
L 411.3227 287.126178 
L 411.389245 283.05857 
L 411.522417 287.126178 
L 411.722133 287.126178 
L 411.78876 283.05857 
L 411.921932 287.126178 
L 412.721044 287.126178 
L 412.78767 283.05857 
L 412.854215 287.126178 
L 412.92076 283.05857 
L 413.053932 287.126178 
L 413.852797 287.126178 
L 413.91967 283.05857 
L 414.052842 287.126178 
L 438.548629 287.126178 
L 438.615174 291.871721 
L 438.748263 287.126178 
L 441.410055 287.126178 
L 441.4766 291.871721 
L 441.609689 287.126178 
L 441.742697 287.126178 
L 441.809242 291.871721 
L 441.942331 287.126178 
L 442.87404 287.126178 
L 442.940585 291.871721 
L 443.073675 287.126178 
L 444.071929 287.126178 
L 444.138474 291.871721 
L 444.271563 287.126178 
L 444.471116 287.126178 
L 444.604205 291.871721 
L 444.737295 287.126178 
L 444.803839 291.871721 
L 444.936847 287.126178 
L 445.003638 287.126178 
L 445.070183 291.871721 
L 445.203272 287.126178 
L 445.269817 291.871721 
L 445.402825 287.126178 
L 446.068191 287.126178 
L 446.134735 291.871721 
L 446.267743 287.126178 
L 446.334288 291.871721 
L 446.467623 287.126178 
L 446.534168 291.871721 
L 446.667258 287.126178 
L 446.733803 287.126178 
L 446.86681 291.871721 
L 446.933355 291.871721 
L 446.9999 287.126178 
L 447.066445 291.871721 
L 447.199534 287.126178 
L 447.266079 287.126178 
L 447.399086 291.871721 
L 447.465631 287.126178 
L 447.532176 291.871721 
L 447.598721 287.126178 
L 447.73181 291.871721 
L 447.798273 291.871721 
L 447.864818 287.126178 
L 447.931363 291.871721 
L 447.998154 287.126178 
L 448.131243 291.871721 
L 448.197788 291.871721 
L 448.330796 287.126178 
L 448.39734 287.126178 
L 448.53043 291.871721 
L 448.596893 287.126178 
L 448.729982 291.871721 
L 448.863072 287.126178 
L 448.996079 291.871721 
L 449.062624 287.126178 
L 449.129169 291.871721 
L 449.262177 287.126178 
L 449.395266 291.871721 
L 449.462796 291.871721 
L 449.529422 287.126178 
L 449.595967 291.871721 
L 449.662594 287.126178 
L 449.729221 291.871721 
L 449.795766 287.126178 
L 449.862393 291.871721 
L 449.928937 287.126178 
L 450.062191 291.871721 
L 450.261907 291.871721 
L 450.328534 287.126178 
L 450.461706 291.871721 
L 450.528333 287.126178 
L 450.594878 291.871721 
L 450.728131 287.126178 
L 450.794676 287.126178 
L 450.861303 291.871721 
L 450.928176 287.126178 
L 451.061348 291.871721 
L 451.127974 291.871721 
L 451.194601 287.126178 
L 451.261146 291.871721 
L 451.3944 287.126178 
L 451.527571 291.871721 
L 451.72737 291.871721 
L 451.793997 287.126178 
L 451.927168 291.871721 
L 452.260139 291.871721 
L 452.326765 287.126178 
L 452.393638 291.871721 
L 452.460265 287.126178 
L 452.52681 291.871721 
L 452.593437 287.126178 
L 452.726609 291.871721 
L 453.392631 291.871721 
L 453.459258 287.126178 
L 453.592429 291.871721 
L 453.725601 291.871721 
L 453.792228 287.126178 
L 453.858855 291.871721 
L 453.992354 287.126178 
L 454.058899 291.871721 
L 454.125526 287.126178 
L 454.258698 291.871721 
L 454.325325 287.126178 
L 454.458496 291.871721 
L 454.658295 291.871721 
L 454.724922 287.126178 
L 454.858093 291.871721 
L 454.991347 287.126178 
L 455.057892 287.126178 
L 455.191145 291.871721 
L 455.657615 291.871721 
L 455.72416 287.126178 
L 455.857414 291.871721 
L 457.92219 291.871721 
L 457.988817 287.126178 
L 458.121988 291.871721 
L 458.188615 287.126178 
L 458.321787 291.871721 
L 458.521421 291.871721 
L 458.587966 287.126178 
L 458.72122 291.871721 
L 461.18551 291.871721 
L 461.252137 287.126178 
L 461.385473 291.871721 
L 464.245586 291.871721 
L 464.312377 287.126178 
L 464.445385 291.871721 
L 467.571923 291.871721 
L 467.638468 287.126178 
L 467.771476 291.871721 
L 467.837938 287.126178 
L 467.971028 291.871721 
L 468.702857 291.871721 
L 468.769401 287.126178 
L 468.902409 291.871721 
L 469.834364 291.871721 
L 469.900909 287.126178 
L 470.033917 291.871721 
L 476.154807 291.871721 
L 476.221352 287.126178 
L 476.354441 291.871721 
L 495.456079 291.871721 
L 495.589169 295.939329 
L 495.722258 295.939329 
L 495.855348 300.006937 
L 496.055064 300.006937 
L 496.188154 304.074545 
L 497.186818 304.074545 
L 497.186818 304.074545 
" clip-path="url(#pc3283ddd76)" style="fill: none; stroke: #1f77b4; stroke-width: 1.5; stroke-linecap: square"/>
   </g>
   <g id="patch_3">
    <path d="M 44.57 318.04 
L 44.57 10.8 
" style="fill: none; stroke: #000000; stroke-width: 0.8; stroke-linejoin: miter; stroke-linecap: square"/>
   </g>
   <g id="patch_4">
    <path d="M 518.74 318.04 
L 518.74 10.8 
" style="fill: none; stroke: #000000; stroke-width: 0.8; stroke-linejoin: miter; stroke-linecap: square"/>
   </g>
   <g id="patch_5">
    <path d="M 44.57 318.04 
L 518.74 318.04 
" style="fill: none; stroke: #000000; stroke-width: 0.8; stroke-linejoin: miter; stroke-linecap: square"/>
   </g>
   <g id="patch_6">
    <path d="M 44.57 10.8 
L 518.74 10.8 
" style="fill: none; stroke: #000000; stroke-width: 0.8; stroke-linejoin: miter; stroke-linecap: square"/>
   </g>
  </g>
  <g id="axes_2">
   <g id="matplotlib.axis_3">
    <g id="ytick_6">
     <g id="line2d_24">
      <defs>
       <path id="m5d802ca970" d="M 0 0 
L 3.5 0 
" style="stroke: #000000; stroke-width: 0.8"/>
      </defs>
      <g>
       <use xlink:href="#m5d802ca970" x="518.74" y="303.296819" style="stroke: #000000; stroke-width: 0.8"/>
      </g>
     </g>
     <g id="text_14">
      <!-- 1000 -->
      <g style="fill: #ff7f0e" transform="translate(525.74 307.096038) scale(0.1 -0.1)">
       <use xlink:href="#DejaVuSans-31"/>
       <use xlink:href="#DejaVuSans-30" transform="translate(63.623047 0)"/>
       <use xlink:href="#DejaVuSans-30" transform="translate(127.246094 0)"/>
       <use xlink:href="#DejaVuSans-30" transform="translate(190.869141 0)"/>
      </g>
     </g>
    </g>
    <g id="ytick_7">
     <g id="line2d_25">
      <g>
       <use xlink:href="#m5d802ca970" x="518.74" y="237.387836" style="stroke: #000000; stroke-width: 0.8"/>
      </g>
     </g>
     <g id="text_15">
      <!-- 1100 -->
      <g style="fill: #ff7f0e" transform="translate(525.74 241.187055) scale(0.1 -0.1)">
       <use xlink:href="#DejaVuSans-31"/>
       <use xlink:href="#DejaVuSans-31" transform="translate(63.623047 0)"/>
       <use xlink:href="#DejaVuSans-30" transform="translate(127.246094 0)"/>
       <use xlink:href="#DejaVuSans-30" transform="translate(190.869141 0)"/>
      </g>
     </g>
    </g>
    <g id="ytick_8">
     <g id="line2d_26">
      <g>
       <use xlink:href="#m5d802ca970" x="518.74" y="171.478852" style="stroke: #000000; stroke-width: 0.8"/>
      </g>
     </g>
     <g id="text_16">
      <!-- 1200 -->
      <g style="fill: #ff7f0e" transform="translate(525.74 175.278071) scale(0.1 -0.1)">
       <use xlink:href="#DejaVuSans-31"/>
       <use xlink:href="#DejaVuSans-32" transform="translate(63.623047 0)"/>
       <use xlink:href="#DejaVuSans-30" transform="translate(127.246094 0)"/>
       <use xlink:href="#DejaVuSans-30" transform="translate(190.869141 0)"/>
      </g>
     </g>
    </g>
    <g id="ytick_9">
     <g id="line2d_27">
      <g>
       <use xlink:href="#m5d802ca970" x="518.74" y="105.569868" style="stroke: #000000; stroke-width: 0.8"/>
      </g>
     </g>
     <g id="text_17">
      <!-- 1300 -->
      <g style="fill: #ff7f0e" transform="translate(525.74 109.369087) scale(0.1 -0.1)">
       <use xlink:href="#DejaVuSans-31"/>
       <use xlink:href="#DejaVuSans-33" transform="translate(63.623047 0)"/>
       <use xlink:href="#DejaVuSans-30" transform="translate(127.246094 0)"/>
       <use xlink:href="#DejaVuSans-30" transform="translate(190.869141 0)"/>
      </g>
     </g>
    </g>
    <g id="ytick_10">
     <g id="line2d_28">
      <g>
       <use xlink:href="#m5d802ca970" x="518.74" y="39.660885" style="stroke: #000000; stroke-width: 0.8"/>
      </g>
     </g>
     <g id="text_18">
      <!-- 1400 -->
      <g style="fill: #ff7f0e" transform="translate(525.74 43.460104) scale(0.1 -0.1)">
       <use xlink:href="#DejaVuSans-31"/>
       <use xlink:href="#DejaVuSans-34" transform="translate(63.623047 0)"/>
       <use xlink:href="#DejaVuSans-30" transform="translate(127.246094 0)"/>
       <use xlink:href="#DejaVuSans-30" transform="translate(190.869141 0)"/>
      </g>
     </g>
    </g>
    <g id="text_19">
     <!-- Pressure (Pa) -->
     <g style="fill: #ff7f0e" transform="translate(562.788438 197.109063) rotate(-90) scale(0.1 -0.1)">
      <defs>
       <path id="DejaVuSans-50" d="M 1259 4147 
L 1259 2394 
L 2053 2394 
Q 2494 2394 2734 2622 
Q 2975 2850 2975 3272 
Q 2975 3691 2734 3919 
Q 2494 4147 2053 4147 
L 1259 4147 
z
M 628 4666 
L 2053 4666 
Q 2838 4666 3239 4311 
Q 3641 3956 3641 3272 
Q 3641 2581 3239 2228 
Q 2838 1875 2053 1875 
L 1259 1875 
L 1259 0 
L 628 0 
L 628 4666 
z
" transform="scale(0.015625)"/>
      </defs>
      <use xlink:href="#DejaVuSans-50"/>
      <use xlink:href="#DejaVuSans-72" transform="translate(58.552734 0)"/>
      <use xlink:href="#DejaVuSans-65" transform="translate(97.416016 0)"/>
      <use xlink:href="#DejaVuSans-73" transform="translate(158.939453 0)"/>
      <use xlink:href="#DejaVuSans-73" transform="translate(211.039062 0)"/>
      <use xlink:href="#DejaVuSans-75" transform="translate(263.138672 0)"/>
      <use xlink:href="#DejaVuSans-72" transform="translate(326.517578 0)"/>
      <use xlink:href="#DejaVuSans-65" transform="translate(365.380859 0)"/>
      <use xlink:href="#DejaVuSans-20" transform="translate(426.904297 0)"/>
      <use xlink:href="#DejaVuSans-28" transform="translate(458.691406 0)"/>
      <use xlink:href="#DejaVuSans-50" transform="translate(497.705078 0)"/>
      <use xlink:href="#DejaVuSans-61" transform="translate(553.507812 0)"/>
      <use xlink:href="#DejaVuSans-29" transform="translate(614.787109 0)"/>
     </g>
    </g>
   </g>
   <g id="line2d_29">
    <path d="M 66.123182 303.936137 
L 66.523599 303.922955 
L 67.923748 303.705455 
L 68.190091 303.672501 
L 68.38989 303.659319 
L 68.523061 303.81091 
L 68.922658 303.8175 
L 68.989285 303.8175 
L 69.055912 299.909098 
L 69.189083 303.764773 
L 69.25571 303.81091 
L 69.322255 300.278188 
L 69.388882 301.075687 
L 69.455755 300.601142 
L 69.655553 303.850455 
L 69.722098 303.8175 
L 69.788725 303.37591 
L 70.121695 25.945225 
L 70.587837 25.338863 
L 71.054061 25.141136 
L 71.387277 25.015909 
L 73.119165 24.772045 
L 74.651172 25.127954 
L 74.984224 25.17409 
L 75.983463 25.470681 
L 76.516231 25.549771 
L 76.849202 25.648635 
L 77.248799 25.793635 
L 77.915067 25.885907 
L 78.647552 26.011134 
L 79.047313 26.030907 
L 79.246783 26.05068 
L 79.911821 26.149543 
L 80.443851 26.182498 
L 80.909255 26.222043 
L 81.17527 26.235225 
L 81.574374 26.261588 
L 82.239658 26.287952 
L 82.505673 26.301134 
L 82.838233 26.353861 
L 83.037785 26.360452 
L 84.700749 26.465906 
L 85.698592 26.558179 
L 86.031152 26.551588 
L 86.563265 26.604315 
L 86.896071 26.630679 
L 87.162168 26.670224 
L 87.361638 26.670224 
L 87.694198 26.683406 
L 88.359564 26.722951 
L 89.490251 26.828406 
L 90.022527 26.834997 
L 90.621102 26.881133 
L 91.685491 26.999769 
L 91.951588 27.012951 
L 93.149394 27.105223 
L 93.615125 27.131587 
L 94.480946 27.190905 
L 99.803381 27.672041 
L 99.936471 27.658859 
L 100.868098 27.757722 
L 101.134195 27.784086 
L 102.598098 27.876359 
L 103.063748 27.922495 
L 103.39639 27.955449 
L 103.462934 27.994995 
L 103.529479 36.306118 
L 103.662569 302.044549 
L 103.995539 252.355766 
L 104.328263 233.064206 
L 104.594442 227.844215 
L 104.927248 225.563764 
L 105.326845 224.588311 
L 105.659569 224.252175 
L 106.59136 224.074221 
L 107.124047 224.034676 
L 107.390226 224.028085 
L 108.455353 224.028085 
L 111.384062 224.120357 
L 111.717115 224.14013 
L 115.311108 224.238994 
L 115.577287 224.252175 
L 116.176518 224.271948 
L 117.042011 224.278539 
L 117.441444 224.298312 
L 120.637563 224.377402 
L 120.837526 224.397175 
L 121.503302 224.43013 
L 122.169078 224.469675 
L 122.768556 224.482857 
L 123.500959 224.489448 
L 123.833847 224.522402 
L 124.566414 224.535584 
L 124.899302 224.548766 
L 125.099018 224.561948 
L 126.430817 224.601493 
L 126.69716 224.58172 
L 126.963421 224.627857 
L 127.096839 224.634447 
L 127.496272 224.627857 
L 127.96225 224.627857 
L 128.161966 224.634447 
L 128.628272 224.660811 
L 128.894697 224.687175 
L 129.427466 224.687175 
L 130.160279 224.706947 
L 130.426622 224.72672 
L 130.959473 224.733311 
L 133.89048 224.832174 
L 134.55642 224.87172 
L 134.756465 224.858538 
L 135.35586 224.865129 
L 135.555659 224.878311 
L 136.954494 224.911265 
L 137.354091 224.937629 
L 138.619755 224.957401 
L 138.952807 224.957401 
L 139.419195 224.983765 
L 140.951203 225.029901 
L 141.749166 225.029901 
L 141.948718 225.062856 
L 142.747009 225.082629 
L 143.877697 225.122174 
L 144.14404 225.108992 
L 144.942085 225.128765 
L 145.607369 225.161719 
L 145.806921 225.161719 
L 149.532035 225.260583 
L 150.064147 225.267174 
L 150.529961 225.273765 
L 152.125969 225.333083 
L 152.657999 225.31331 
L 153.057022 225.339674 
L 153.456372 225.346264 
L 153.922104 225.372628 
L 158.313896 225.471492 
L 158.646538 225.471492 
L 159.112516 225.471492 
L 159.910889 225.517628 
L 160.310076 225.504446 
L 160.643046 225.524219 
L 160.909143 225.504446 
L 161.108778 225.517628 
L 161.44142 225.53081 
L 161.774061 225.543991 
L 163.171502 225.590128 
L 163.570935 225.557173 
L 163.837032 225.60331 
L 164.701868 225.6099 
L 164.901421 225.596719 
L 165.102204 225.60331 
L 169.432621 225.702173 
L 169.832135 225.715355 
L 173.761971 225.807627 
L 174.228441 225.833991 
L 174.494866 225.801036 
L 174.961008 225.833991 
L 175.427478 225.833991 
L 175.760448 225.853764 
L 179.752971 225.919673 
L 179.952524 225.952627 
L 180.285084 225.939445 
L 180.617643 225.952627 
L 181.016666 225.9724 
L 181.948129 225.978991 
L 182.214144 225.978991 
L 182.413696 226.025127 
L 183.344995 226.038309 
L 184.675399 226.071263 
L 184.941496 226.051491 
L 185.207511 226.064672 
L 186.005474 226.058082 
L 186.271489 226.084445 
L 186.803602 226.077854 
L 187.402423 226.091036 
L 188.133923 226.12399 
L 188.399938 226.137172 
L 188.532946 226.1174 
L 188.932296 226.12399 
L 189.730588 226.130581 
L 189.996767 226.143763 
L 194.788156 226.216263 
L 194.921164 226.242627 
L 195.120716 226.242627 
L 195.386895 226.242627 
L 196.584702 226.262399 
L 196.917344 226.242627 
L 197.183441 226.26899 
L 197.782508 226.288763 
L 198.11515 226.275581 
L 198.447874 226.295354 
L 204.903785 226.394217 
L 205.436554 226.420581 
L 205.702733 226.394217 
L 205.968994 226.420581 
L 206.235256 226.400808 
L 206.767942 226.41399 
L 207.101405 226.427172 
L 207.766935 226.407399 
L 213.691637 226.499672 
L 214.024771 226.512853 
L 214.357659 226.499672 
L 214.624002 226.512853 
L 214.890264 226.519444 
L 225.34436 226.618308 
L 225.877375 226.618308 
L 226.410144 226.598535 
L 226.876368 226.624899 
L 236.001866 226.71058 
L 236.268292 226.70399 
L 236.600769 226.671035 
L 237.398815 226.717171 
L 249.906036 226.789671 
L 250.10567 226.829217 
L 251.303476 226.802853 
L 251.702663 226.816035 
L 252.301484 226.796262 
L 252.501365 226.802853 
L 253.299738 226.829217 
L 267.481492 226.895126 
L 267.681291 226.92808 
L 268.680529 226.92808 
L 269.612977 226.941262 
L 270.212537 226.967625 
L 270.478962 226.941262 
L 270.811932 226.961035 
L 271.144902 226.934671 
L 271.877387 226.954444 
L 272.076939 226.961035 
L 284.517288 227.033534 
L 284.71684 227.053307 
L 285.914728 227.040125 
L 287.046072 227.059898 
L 287.312169 227.053307 
L 287.644811 227.079671 
L 288.709199 227.046716 
L 288.842207 227.059898 
L 302.419807 227.138989 
L 302.619441 227.152171 
L 303.751195 227.112625 
L 303.950911 227.138989 
L 304.483598 227.14558 
L 305.14921 227.125807 
L 305.815068 227.158762 
L 306.813322 227.158762 
L 307.878613 227.171943 
L 308.144874 227.152171 
L 308.544307 227.178534 
L 308.810897 227.138989 
L 309.343583 227.165352 
L 309.609844 227.152171 
L 310.608837 227.158762 
L 385.958713 227.224671 
L 386.091803 227.231261 
L 386.757169 227.204898 
L 387.888512 227.251034 
L 388.088064 227.224671 
L 389.086318 227.244443 
L 389.41896 227.211489 
L 389.818065 227.224671 
L 390.416722 227.211489 
L 391.015707 227.251034 
L 391.215342 227.231261 
L 392.280469 227.231261 
L 414.918581 227.323534 
L 415.318096 227.330125 
L 415.984364 227.29717 
L 416.250789 227.316943 
L 416.517215 227.303761 
L 416.783558 227.323534 
L 417.116856 227.303761 
L 417.316655 227.303761 
L 418.582319 227.330125 
L 419.11517 227.336716 
L 495.322743 227.376261 
L 495.389534 239.641923 
L 495.456079 304.002046 
L 495.522624 302.42023 
L 495.589169 300.377051 
L 495.655714 300.647278 
L 495.788803 303.843864 
L 496.055064 304.015227 
L 496.720594 304.061364 
L 497.053647 304.048182 
L 497.186818 304.054773 
L 497.186818 304.054773 
" clip-path="url(#pc3283ddd76)" style="fill: none; stroke: #ff7f0e; stroke-width: 1.5; stroke-linecap: square"/>
   </g>
   <g id="patch_7">
    <path d="M 44.57 318.04 
L 44.57 10.8 
" style="fill: none; stroke: #000000; stroke-width: 0.8; stroke-linejoin: miter; stroke-linecap: square"/>
   </g>
   <g id="patch_8">
    <path d="M 518.74 318.04 
L 518.74 10.8 
" style="fill: none; stroke: #000000; stroke-width: 0.8; stroke-linejoin: miter; stroke-linecap: square"/>
   </g>
   <g id="patch_9">
    <path d="M 44.57 318.04 
L 518.74 318.04 
" style="fill: none; stroke: #000000; stroke-width: 0.8; stroke-linejoin: miter; stroke-linecap: square"/>
   </g>
   <g id="patch_10">
    <path d="M 44.57 10.8 
L 518.74 10.8 
" style="fill: none; stroke: #000000; stroke-width: 0.8; stroke-linejoin: miter; stroke-linecap: square"/>
   </g>
   <g id="text_20">
    <!-- Temperature and Pressure vs Time -->
    <g transform="translate(177.765 4.8) scale(0.12 -0.12)">
     <defs>
      <path id="DejaVuSans-6e" d="M 3513 2113 
L 3513 0 
L 2938 0 
L 2938 2094 
Q 2938 2591 2744 2837 
Q 2550 3084 2163 3084 
Q 1697 3084 1428 2787 
Q 1159 2491 1159 1978 
L 1159 0 
L 581 0 
L 581 3500 
L 1159 3500 
L 1159 2956 
Q 1366 3272 1645 3428 
Q 1925 3584 2291 3584 
Q 2894 3584 3203 3211 
Q 3513 2838 3513 2113 
z
" transform="scale(0.015625)"/>
      <path id="DejaVuSans-64" d="M 2906 2969 
L 2906 4863 
L 3481 4863 
L 3481 0 
L 2906 0 
L 2906 525 
Q 2725 213 2448 61 
Q 2172 -91 1784 -91 
Q 1150 -91 751 415 
Q 353 922 353 1747 
Q 353 2572 751 3078 
Q 1150 3584 1784 3584 
Q 2172 3584 2448 3432 
Q 2725 3281 2906 2969 
z
M 947 1747 
Q 947 1113 1208 752 
Q 1469 391 1925 391 
Q 2381 391 2643 752 
Q 2906 1113 2906 1747 
Q 2906 2381 2643 2742 
Q 2381 3103 1925 3103 
Q 1469 3103 1208 2742 
Q 947 2381 947 1747 
z
" transform="scale(0.015625)"/>
      <path id="DejaVuSans-76" d="M 191 3500 
L 800 3500 
L 1894 563 
L 2988 3500 
L 3597 3500 
L 2284 0 
L 1503 0 
L 191 3500 
z
" transform="scale(0.015625)"/>
     </defs>
     <use xlink:href="#DejaVuSans-54"/>
     <use xlink:href="#DejaVuSans-65" transform="translate(44.083984 0)"/>
     <use xlink:href="#DejaVuSans-6d" transform="translate(105.607422 0)"/>
     <use xlink:href="#DejaVuSans-70" transform="translate(203.019531 0)"/>
     <use xlink:href="#DejaVuSans-65" transform="translate(266.496094 0)"/>
     <use xlink:href="#DejaVuSans-72" transform="translate(328.019531 0)"/>
     <use xlink:href="#DejaVuSans-61" transform="translate(369.132812 0)"/>
     <use xlink:href="#DejaVuSans-74" transform="translate(430.412109 0)"/>
     <use xlink:href="#DejaVuSans-75" transform="translate(469.621094 0)"/>
     <use xlink:href="#DejaVuSans-72" transform="translate(533 0)"/>
     <use xlink:href="#DejaVuSans-65" transform="translate(571.863281 0)"/>
     <use xlink:href="#DejaVuSans-20" transform="translate(633.386719 0)"/>
     <use xlink:href="#DejaVuSans-61" transform="translate(665.173828 0)"/>
     <use xlink:href="#DejaVuSans-6e" transform="translate(726.453125 0)"/>
     <use xlink:href="#DejaVuSans-64" transform="translate(789.832031 0)"/>
     <use xlink:href="#DejaVuSans-20" transform="translate(853.308594 0)"/>
     <use xlink:href="#DejaVuSans-50" transform="translate(885.095703 0)"/>
     <use xlink:href="#DejaVuSans-72" transform="translate(943.648438 0)"/>
     <use xlink:href="#DejaVuSans-65" transform="translate(982.511719 0)"/>
     <use xlink:href="#DejaVuSans-73" transform="translate(1044.035156 0)"/>
     <use xlink:href="#DejaVuSans-73" transform="translate(1096.134766 0)"/>
     <use xlink:href="#DejaVuSans-75" transform="translate(1148.234375 0)"/>
     <use xlink:href="#DejaVuSans-72" transform="translate(1211.613281 0)"/>
     <use xlink:href="#DejaVuSans-65" transform="translate(1250.476562 0)"/>
     <use xlink:href="#DejaVuSans-20" transform="translate(1312 0)"/>
     <use xlink:href="#DejaVuSans-76" transform="translate(1343.787109 0)"/>
     <use xlink:href="#DejaVuSans-73" transform="translate(1402.966797 0)"/>
     <use xlink:href="#DejaVuSans-20" transform="translate(1455.066406 0)"/>
     <use xlink:href="#DejaVuSans-54" transform="translate(1486.853516 0)"/>
     <use xlink:href="#DejaVuSans-69" transform="translate(1544.8125 0)"/>
     <use xlink:href="#DejaVuSans-6d" transform="translate(1572.595703 0)"/>
     <use xlink:href="#DejaVuSans-65" transform="translate(1670.007812 0)"/>
    </g>
   </g>
  </g>
 </g>
 <defs>
  <clipPath id="pc3283ddd76">
   <rect x="44.57" y="10.8" width="474.17" height="307.24"/>
  </clipPath>
 </defs>
</svg>
