<?xml version="1.0" encoding="utf-8" standalone="no"?>
<!DOCTYPE svg PUBLIC "-//W3C//DTD SVG 1.1//EN"
  "http://www.w3.org/Graphics/SVG/1.1/DTD/svg11.dtd">
<svg xmlns:xlink="http://www.w3.org/1999/xlink" width="576pt" height="360pt" viewBox="0 0 576 360" xmlns="http://www.w3.org/2000/svg" version="1.1">
 <metadata>
  <rdf:RDF xmlns:dc="http://purl.org/dc/elements/1.1/" xmlns:cc="http://creativecommons.org/ns#" xmlns:rdf="http://www.w3.org/1999/02/22-rdf-syntax-ns#">
   <cc:Work>
    <dc:type rdf:resource="http://purl.org/dc/dcmitype/StillImage"/>
    <dc:date>2025-09-04T11:41:57.332556</dc:date>
    <dc:format>image/svg+xml</dc:format>
    <dc:creator>
     <cc:Agent>
      <dc:title>Matplotlib v3.10.3, https://matplotlib.org/</dc:title>
     </cc:Agent>
    </dc:creator>
   </cc:Work>
  </rdf:RDF>
 </metadata>
 <defs>
  <style type="text/css">*{stroke-linejoin: round; stroke-linecap: butt}</style>
 </defs>
 <g id="figure_1">
  <g id="patch_1">
   <path d="M 0 360 
L 576 360 
L 576 0 
L 0 0 
z
" style="fill: #ffffff"/>
  </g>
  <g id="axes_1">
   <g id="patch_2">
    <path d="M 54.02 318.04 
L 518.74 318.04 
L 518.74 10.8 
L 54.02 10.8 
z
" style="fill: #ffffff"/>
   </g>
   <g id="matplotlib.axis_1">
    <g id="xtick_1">
     <g id="line2d_1">
      <path d="M 74.205919 318.04 
L 74.205919 10.8 
" clip-path="url(#p64cc269639)" style="fill: none; stroke: #b0b0b0; stroke-width: 0.8; stroke-linecap: square"/>
     </g>
     <g id="line2d_2">
      <defs>
       <path id="m963e0c9a83" d="M 0 0 
L 0 3.5 
" style="stroke: #000000; stroke-width: 0.8"/>
      </defs>
      <g>
       <use xlink:href="#m963e0c9a83" x="74.205919" y="318.04" style="stroke: #000000; stroke-width: 0.8"/>
      </g>
     </g>
     <g id="text_1">
      <!-- 0 -->
      <g transform="translate(71.024669 332.638438) scale(0.1 -0.1)">
       <defs>
        <path id="DejaVuSans-30" d="M 2034 4250 
Q 1547 4250 1301 3770 
Q 1056 3291 1056 2328 
Q 1056 1369 1301 889 
Q 1547 409 2034 409 
Q 2525 409 2770 889 
Q 3016 1369 3016 2328 
Q 3016 3291 2770 3770 
Q 2525 4250 2034 4250 
z
M 2034 4750 
Q 2819 4750 3233 4129 
Q 3647 3509 3647 2328 
Q 3647 1150 3233 529 
Q 2819 -91 2034 -91 
Q 1250 -91 836 529 
Q 422 1150 422 2328 
Q 422 3509 836 4129 
Q 1250 4750 2034 4750 
z
" transform="scale(0.015625)"/>
       </defs>
       <use xlink:href="#DejaVuSans-30"/>
      </g>
     </g>
    </g>
    <g id="xtick_2">
     <g id="line2d_3">
      <path d="M 126.898507 318.04 
L 126.898507 10.8 
" clip-path="url(#p64cc269639)" style="fill: none; stroke: #b0b0b0; stroke-width: 0.8; stroke-linecap: square"/>
     </g>
     <g id="line2d_4">
      <g>
       <use xlink:href="#m963e0c9a83" x="126.898507" y="318.04" style="stroke: #000000; stroke-width: 0.8"/>
      </g>
     </g>
     <g id="text_2">
      <!-- 250 -->
      <g transform="translate(117.354757 332.638438) scale(0.1 -0.1)">
       <defs>
        <path id="DejaVuSans-32" d="M 1228 531 
L 3431 531 
L 3431 0 
L 469 0 
L 469 531 
Q 828 903 1448 1529 
Q 2069 2156 2228 2338 
Q 2531 2678 2651 2914 
Q 2772 3150 2772 3378 
Q 2772 3750 2511 3984 
Q 2250 4219 1831 4219 
Q 1534 4219 1204 4116 
Q 875 4013 500 3803 
L 500 4441 
Q 881 4594 1212 4672 
Q 1544 4750 1819 4750 
Q 2544 4750 2975 4387 
Q 3406 4025 3406 3419 
Q 3406 3131 3298 2873 
Q 3191 2616 2906 2266 
Q 2828 2175 2409 1742 
Q 1991 1309 1228 531 
z
" transform="scale(0.015625)"/>
        <path id="DejaVuSans-35" d="M 691 4666 
L 3169 4666 
L 3169 4134 
L 1269 4134 
L 1269 2991 
Q 1406 3038 1543 3061 
Q 1681 3084 1819 3084 
Q 2600 3084 3056 2656 
Q 3513 2228 3513 1497 
Q 3513 744 3044 326 
Q 2575 -91 1722 -91 
Q 1428 -91 1123 -41 
Q 819 9 494 109 
L 494 744 
Q 775 591 1075 516 
Q 1375 441 1709 441 
Q 2250 441 2565 725 
Q 2881 1009 2881 1497 
Q 2881 1984 2565 2268 
Q 2250 2553 1709 2553 
Q 1456 2553 1204 2497 
Q 953 2441 691 2322 
L 691 4666 
z
" transform="scale(0.015625)"/>
       </defs>
       <use xlink:href="#DejaVuSans-32"/>
       <use xlink:href="#DejaVuSans-35" transform="translate(63.623047 0)"/>
       <use xlink:href="#DejaVuSans-30" transform="translate(127.246094 0)"/>
      </g>
     </g>
    </g>
    <g id="xtick_3">
     <g id="line2d_5">
      <path d="M 179.591094 318.04 
L 179.591094 10.8 
" clip-path="url(#p64cc269639)" style="fill: none; stroke: #b0b0b0; stroke-width: 0.8; stroke-linecap: square"/>
     </g>
     <g id="line2d_6">
      <g>
       <use xlink:href="#m963e0c9a83" x="179.591094" y="318.04" style="stroke: #000000; stroke-width: 0.8"/>
      </g>
     </g>
     <g id="text_3">
      <!-- 500 -->
      <g transform="translate(170.047344 332.638438) scale(0.1 -0.1)">
       <use xlink:href="#DejaVuSans-35"/>
       <use xlink:href="#DejaVuSans-30" transform="translate(63.623047 0)"/>
       <use xlink:href="#DejaVuSans-30" transform="translate(127.246094 0)"/>
      </g>
     </g>
    </g>
    <g id="xtick_4">
     <g id="line2d_7">
      <path d="M 232.283682 318.04 
L 232.283682 10.8 
" clip-path="url(#p64cc269639)" style="fill: none; stroke: #b0b0b0; stroke-width: 0.8; stroke-linecap: square"/>
     </g>
     <g id="line2d_8">
      <g>
       <use xlink:href="#m963e0c9a83" x="232.283682" y="318.04" style="stroke: #000000; stroke-width: 0.8"/>
      </g>
     </g>
     <g id="text_4">
      <!-- 750 -->
      <g transform="translate(222.739932 332.638438) scale(0.1 -0.1)">
       <defs>
        <path id="DejaVuSans-37" d="M 525 4666 
L 3525 4666 
L 3525 4397 
L 1831 0 
L 1172 0 
L 2766 4134 
L 525 4134 
L 525 4666 
z
" transform="scale(0.015625)"/>
       </defs>
       <use xlink:href="#DejaVuSans-37"/>
       <use xlink:href="#DejaVuSans-35" transform="translate(63.623047 0)"/>
       <use xlink:href="#DejaVuSans-30" transform="translate(127.246094 0)"/>
      </g>
     </g>
    </g>
    <g id="xtick_5">
     <g id="line2d_9">
      <path d="M 284.976269 318.04 
L 284.976269 10.8 
" clip-path="url(#p64cc269639)" style="fill: none; stroke: #b0b0b0; stroke-width: 0.8; stroke-linecap: square"/>
     </g>
     <g id="line2d_10">
      <g>
       <use xlink:href="#m963e0c9a83" x="284.976269" y="318.04" style="stroke: #000000; stroke-width: 0.8"/>
      </g>
     </g>
     <g id="text_5">
      <!-- 1000 -->
      <g transform="translate(272.251269 332.638438) scale(0.1 -0.1)">
       <defs>
        <path id="DejaVuSans-31" d="M 794 531 
L 1825 531 
L 1825 4091 
L 703 3866 
L 703 4441 
L 1819 4666 
L 2450 4666 
L 2450 531 
L 3481 531 
L 3481 0 
L 794 0 
L 794 531 
z
" transform="scale(0.015625)"/>
       </defs>
       <use xlink:href="#DejaVuSans-31"/>
       <use xlink:href="#DejaVuSans-30" transform="translate(63.623047 0)"/>
       <use xlink:href="#DejaVuSans-30" transform="translate(127.246094 0)"/>
       <use xlink:href="#DejaVuSans-30" transform="translate(190.869141 0)"/>
      </g>
     </g>
    </g>
    <g id="xtick_6">
     <g id="line2d_11">
      <path d="M 337.668857 318.04 
L 337.668857 10.8 
" clip-path="url(#p64cc269639)" style="fill: none; stroke: #b0b0b0; stroke-width: 0.8; stroke-linecap: square"/>
     </g>
     <g id="line2d_12">
      <g>
       <use xlink:href="#m963e0c9a83" x="337.668857" y="318.04" style="stroke: #000000; stroke-width: 0.8"/>
      </g>
     </g>
     <g id="text_6">
      <!-- 1250 -->
      <g transform="translate(324.943857 332.638438) scale(0.1 -0.1)">
       <use xlink:href="#DejaVuSans-31"/>
       <use xlink:href="#DejaVuSans-32" transform="translate(63.623047 0)"/>
       <use xlink:href="#DejaVuSans-35" transform="translate(127.246094 0)"/>
       <use xlink:href="#DejaVuSans-30" transform="translate(190.869141 0)"/>
      </g>
     </g>
    </g>
    <g id="xtick_7">
     <g id="line2d_13">
      <path d="M 390.361445 318.04 
L 390.361445 10.8 
" clip-path="url(#p64cc269639)" style="fill: none; stroke: #b0b0b0; stroke-width: 0.8; stroke-linecap: square"/>
     </g>
     <g id="line2d_14">
      <g>
       <use xlink:href="#m963e0c9a83" x="390.361445" y="318.04" style="stroke: #000000; stroke-width: 0.8"/>
      </g>
     </g>
     <g id="text_7">
      <!-- 1500 -->
      <g transform="translate(377.636445 332.638438) scale(0.1 -0.1)">
       <use xlink:href="#DejaVuSans-31"/>
       <use xlink:href="#DejaVuSans-35" transform="translate(63.623047 0)"/>
       <use xlink:href="#DejaVuSans-30" transform="translate(127.246094 0)"/>
       <use xlink:href="#DejaVuSans-30" transform="translate(190.869141 0)"/>
      </g>
     </g>
    </g>
    <g id="xtick_8">
     <g id="line2d_15">
      <path d="M 443.054032 318.04 
L 443.054032 10.8 
" clip-path="url(#p64cc269639)" style="fill: none; stroke: #b0b0b0; stroke-width: 0.8; stroke-linecap: square"/>
     </g>
     <g id="line2d_16">
      <g>
       <use xlink:href="#m963e0c9a83" x="443.054032" y="318.04" style="stroke: #000000; stroke-width: 0.8"/>
      </g>
     </g>
     <g id="text_8">
      <!-- 1750 -->
      <g transform="translate(430.329032 332.638438) scale(0.1 -0.1)">
       <use xlink:href="#DejaVuSans-31"/>
       <use xlink:href="#DejaVuSans-37" transform="translate(63.623047 0)"/>
       <use xlink:href="#DejaVuSans-35" transform="translate(127.246094 0)"/>
       <use xlink:href="#DejaVuSans-30" transform="translate(190.869141 0)"/>
      </g>
     </g>
    </g>
    <g id="xtick_9">
     <g id="line2d_17">
      <path d="M 495.74662 318.04 
L 495.74662 10.8 
" clip-path="url(#p64cc269639)" style="fill: none; stroke: #b0b0b0; stroke-width: 0.8; stroke-linecap: square"/>
     </g>
     <g id="line2d_18">
      <g>
       <use xlink:href="#m963e0c9a83" x="495.74662" y="318.04" style="stroke: #000000; stroke-width: 0.8"/>
      </g>
     </g>
     <g id="text_9">
      <!-- 2000 -->
      <g transform="translate(483.02162 332.638438) scale(0.1 -0.1)">
       <use xlink:href="#DejaVuSans-32"/>
       <use xlink:href="#DejaVuSans-30" transform="translate(63.623047 0)"/>
       <use xlink:href="#DejaVuSans-30" transform="translate(127.246094 0)"/>
       <use xlink:href="#DejaVuSans-30" transform="translate(190.869141 0)"/>
      </g>
     </g>
    </g>
    <g id="text_10">
     <!-- Time (s) -->
     <g transform="translate(266.051094 346.316563) scale(0.1 -0.1)">
      <defs>
       <path id="DejaVuSans-54" d="M -19 4666 
L 3928 4666 
L 3928 4134 
L 2272 4134 
L 2272 0 
L 1638 0 
L 1638 4134 
L -19 4134 
L -19 4666 
z
" transform="scale(0.015625)"/>
       <path id="DejaVuSans-69" d="M 603 3500 
L 1178 3500 
L 1178 0 
L 603 0 
L 603 3500 
z
M 603 4863 
L 1178 4863 
L 1178 4134 
L 603 4134 
L 603 4863 
z
" transform="scale(0.015625)"/>
       <path id="DejaVuSans-6d" d="M 3328 2828 
Q 3544 3216 3844 3400 
Q 4144 3584 4550 3584 
Q 5097 3584 5394 3201 
Q 5691 2819 5691 2113 
L 5691 0 
L 5113 0 
L 5113 2094 
Q 5113 2597 4934 2840 
Q 4756 3084 4391 3084 
Q 3944 3084 3684 2787 
Q 3425 2491 3425 1978 
L 3425 0 
L 2847 0 
L 2847 2094 
Q 2847 2600 2669 2842 
Q 2491 3084 2119 3084 
Q 1678 3084 1418 2786 
Q 1159 2488 1159 1978 
L 1159 0 
L 581 0 
L 581 3500 
L 1159 3500 
L 1159 2956 
Q 1356 3278 1631 3431 
Q 1906 3584 2284 3584 
Q 2666 3584 2933 3390 
Q 3200 3197 3328 2828 
z
" transform="scale(0.015625)"/>
       <path id="DejaVuSans-65" d="M 3597 1894 
L 3597 1613 
L 953 1613 
Q 991 1019 1311 708 
Q 1631 397 2203 397 
Q 2534 397 2845 478 
Q 3156 559 3463 722 
L 3463 178 
Q 3153 47 2828 -22 
Q 2503 -91 2169 -91 
Q 1331 -91 842 396 
Q 353 884 353 1716 
Q 353 2575 817 3079 
Q 1281 3584 2069 3584 
Q 2775 3584 3186 3129 
Q 3597 2675 3597 1894 
z
M 3022 2063 
Q 3016 2534 2758 2815 
Q 2500 3097 2075 3097 
Q 1594 3097 1305 2825 
Q 1016 2553 972 2059 
L 3022 2063 
z
" transform="scale(0.015625)"/>
       <path id="DejaVuSans-20" transform="scale(0.015625)"/>
       <path id="DejaVuSans-28" d="M 1984 4856 
Q 1566 4138 1362 3434 
Q 1159 2731 1159 2009 
Q 1159 1288 1364 580 
Q 1569 -128 1984 -844 
L 1484 -844 
Q 1016 -109 783 600 
Q 550 1309 550 2009 
Q 550 2706 781 3412 
Q 1013 4119 1484 4856 
L 1984 4856 
z
" transform="scale(0.015625)"/>
       <path id="DejaVuSans-73" d="M 2834 3397 
L 2834 2853 
Q 2591 2978 2328 3040 
Q 2066 3103 1784 3103 
Q 1356 3103 1142 2972 
Q 928 2841 928 2578 
Q 928 2378 1081 2264 
Q 1234 2150 1697 2047 
L 1894 2003 
Q 2506 1872 2764 1633 
Q 3022 1394 3022 966 
Q 3022 478 2636 193 
Q 2250 -91 1575 -91 
Q 1294 -91 989 -36 
Q 684 19 347 128 
L 347 722 
Q 666 556 975 473 
Q 1284 391 1588 391 
Q 1994 391 2212 530 
Q 2431 669 2431 922 
Q 2431 1156 2273 1281 
Q 2116 1406 1581 1522 
L 1381 1569 
Q 847 1681 609 1914 
Q 372 2147 372 2553 
Q 372 3047 722 3315 
Q 1072 3584 1716 3584 
Q 2034 3584 2315 3537 
Q 2597 3491 2834 3397 
z
" transform="scale(0.015625)"/>
       <path id="DejaVuSans-29" d="M 513 4856 
L 1013 4856 
Q 1481 4119 1714 3412 
Q 1947 2706 1947 2009 
Q 1947 1309 1714 600 
Q 1481 -109 1013 -844 
L 513 -844 
Q 928 -128 1133 580 
Q 1338 1288 1338 2009 
Q 1338 2731 1133 3434 
Q 928 4138 513 4856 
z
" transform="scale(0.015625)"/>
      </defs>
      <use xlink:href="#DejaVuSans-54"/>
      <use xlink:href="#DejaVuSans-69" transform="translate(57.958984 0)"/>
      <use xlink:href="#DejaVuSans-6d" transform="translate(85.742188 0)"/>
      <use xlink:href="#DejaVuSans-65" transform="translate(183.154297 0)"/>
      <use xlink:href="#DejaVuSans-20" transform="translate(244.677734 0)"/>
      <use xlink:href="#DejaVuSans-28" transform="translate(276.464844 0)"/>
      <use xlink:href="#DejaVuSans-73" transform="translate(315.478516 0)"/>
      <use xlink:href="#DejaVuSans-29" transform="translate(367.578125 0)"/>
     </g>
    </g>
   </g>
   <g id="matplotlib.axis_2">
    <g id="ytick_1">
     <g id="line2d_19">
      <path d="M 54.02 287.494554 
L 518.74 287.494554 
" clip-path="url(#p64cc269639)" style="fill: none; stroke: #b0b0b0; stroke-width: 0.8; stroke-linecap: square"/>
     </g>
     <g id="line2d_20">
      <defs>
       <path id="mef7aaf1112" d="M 0 0 
L -3.5 0 
" style="stroke: #000000; stroke-width: 0.8"/>
      </defs>
      <g>
       <use xlink:href="#mef7aaf1112" x="54.02" y="287.494554" style="stroke: #000000; stroke-width: 0.8"/>
      </g>
     </g>
     <g id="text_11">
      <!-- 24.5 -->
      <g style="fill: #1f77b4" transform="translate(24.754375 291.293773) scale(0.1 -0.1)">
       <defs>
        <path id="DejaVuSans-34" d="M 2419 4116 
L 825 1625 
L 2419 1625 
L 2419 4116 
z
M 2253 4666 
L 3047 4666 
L 3047 1625 
L 3713 1625 
L 3713 1100 
L 3047 1100 
L 3047 0 
L 2419 0 
L 2419 1100 
L 313 1100 
L 313 1709 
L 2253 4666 
z
" transform="scale(0.015625)"/>
        <path id="DejaVuSans-2e" d="M 684 794 
L 1344 794 
L 1344 0 
L 684 0 
L 684 794 
z
" transform="scale(0.015625)"/>
       </defs>
       <use xlink:href="#DejaVuSans-32"/>
       <use xlink:href="#DejaVuSans-34" transform="translate(63.623047 0)"/>
       <use xlink:href="#DejaVuSans-2e" transform="translate(127.246094 0)"/>
       <use xlink:href="#DejaVuSans-35" transform="translate(159.033203 0)"/>
      </g>
     </g>
    </g>
    <g id="ytick_2">
     <g id="line2d_21">
      <path d="M 54.02 223.725355 
L 518.74 223.725355 
" clip-path="url(#p64cc269639)" style="fill: none; stroke: #b0b0b0; stroke-width: 0.8; stroke-linecap: square"/>
     </g>
     <g id="line2d_22">
      <g>
       <use xlink:href="#mef7aaf1112" x="54.02" y="223.725355" style="stroke: #000000; stroke-width: 0.8"/>
      </g>
     </g>
     <g id="text_12">
      <!-- 25.0 -->
      <g style="fill: #1f77b4" transform="translate(24.754375 227.524574) scale(0.1 -0.1)">
       <use xlink:href="#DejaVuSans-32"/>
       <use xlink:href="#DejaVuSans-35" transform="translate(63.623047 0)"/>
       <use xlink:href="#DejaVuSans-2e" transform="translate(127.246094 0)"/>
       <use xlink:href="#DejaVuSans-30" transform="translate(159.033203 0)"/>
      </g>
     </g>
    </g>
    <g id="ytick_3">
     <g id="line2d_23">
      <path d="M 54.02 159.956156 
L 518.74 159.956156 
" clip-path="url(#p64cc269639)" style="fill: none; stroke: #b0b0b0; stroke-width: 0.8; stroke-linecap: square"/>
     </g>
     <g id="line2d_24">
      <g>
       <use xlink:href="#mef7aaf1112" x="54.02" y="159.956156" style="stroke: #000000; stroke-width: 0.8"/>
      </g>
     </g>
     <g id="text_13">
      <!-- 25.5 -->
      <g style="fill: #1f77b4" transform="translate(24.754375 163.755375) scale(0.1 -0.1)">
       <use xlink:href="#DejaVuSans-32"/>
       <use xlink:href="#DejaVuSans-35" transform="translate(63.623047 0)"/>
       <use xlink:href="#DejaVuSans-2e" transform="translate(127.246094 0)"/>
       <use xlink:href="#DejaVuSans-35" transform="translate(159.033203 0)"/>
      </g>
     </g>
    </g>
    <g id="ytick_4">
     <g id="line2d_25">
      <path d="M 54.02 96.186957 
L 518.74 96.186957 
" clip-path="url(#p64cc269639)" style="fill: none; stroke: #b0b0b0; stroke-width: 0.8; stroke-linecap: square"/>
     </g>
     <g id="line2d_26">
      <g>
       <use xlink:href="#mef7aaf1112" x="54.02" y="96.186957" style="stroke: #000000; stroke-width: 0.8"/>
      </g>
     </g>
     <g id="text_14">
      <!-- 26.0 -->
      <g style="fill: #1f77b4" transform="translate(24.754375 99.986176) scale(0.1 -0.1)">
       <defs>
        <path id="DejaVuSans-36" d="M 2113 2584 
Q 1688 2584 1439 2293 
Q 1191 2003 1191 1497 
Q 1191 994 1439 701 
Q 1688 409 2113 409 
Q 2538 409 2786 701 
Q 3034 994 3034 1497 
Q 3034 2003 2786 2293 
Q 2538 2584 2113 2584 
z
M 3366 4563 
L 3366 3988 
Q 3128 4100 2886 4159 
Q 2644 4219 2406 4219 
Q 1781 4219 1451 3797 
Q 1122 3375 1075 2522 
Q 1259 2794 1537 2939 
Q 1816 3084 2150 3084 
Q 2853 3084 3261 2657 
Q 3669 2231 3669 1497 
Q 3669 778 3244 343 
Q 2819 -91 2113 -91 
Q 1303 -91 875 529 
Q 447 1150 447 2328 
Q 447 3434 972 4092 
Q 1497 4750 2381 4750 
Q 2619 4750 2861 4703 
Q 3103 4656 3366 4563 
z
" transform="scale(0.015625)"/>
       </defs>
       <use xlink:href="#DejaVuSans-32"/>
       <use xlink:href="#DejaVuSans-36" transform="translate(63.623047 0)"/>
       <use xlink:href="#DejaVuSans-2e" transform="translate(127.246094 0)"/>
       <use xlink:href="#DejaVuSans-30" transform="translate(159.033203 0)"/>
      </g>
     </g>
    </g>
    <g id="ytick_5">
     <g id="line2d_27">
      <path d="M 54.02 32.417758 
L 518.74 32.417758 
" clip-path="url(#p64cc269639)" style="fill: none; stroke: #b0b0b0; stroke-width: 0.8; stroke-linecap: square"/>
     </g>
     <g id="line2d_28">
      <g>
       <use xlink:href="#mef7aaf1112" x="54.02" y="32.417758" style="stroke: #000000; stroke-width: 0.8"/>
      </g>
     </g>
     <g id="text_15">
      <!-- 26.5 -->
      <g style="fill: #1f77b4" transform="translate(24.754375 36.216977) scale(0.1 -0.1)">
       <use xlink:href="#DejaVuSans-32"/>
       <use xlink:href="#DejaVuSans-36" transform="translate(63.623047 0)"/>
       <use xlink:href="#DejaVuSans-2e" transform="translate(127.246094 0)"/>
       <use xlink:href="#DejaVuSans-35" transform="translate(159.033203 0)"/>
      </g>
     </g>
    </g>
    <g id="text_16">
     <!-- Temperature (°C) -->
     <g style="fill: #1f77b4" transform="translate(18.674688 207.571563) rotate(-90) scale(0.1 -0.1)">
      <defs>
       <path id="DejaVuSans-70" d="M 1159 525 
L 1159 -1331 
L 581 -1331 
L 581 3500 
L 1159 3500 
L 1159 2969 
Q 1341 3281 1617 3432 
Q 1894 3584 2278 3584 
Q 2916 3584 3314 3078 
Q 3713 2572 3713 1747 
Q 3713 922 3314 415 
Q 2916 -91 2278 -91 
Q 1894 -91 1617 61 
Q 1341 213 1159 525 
z
M 3116 1747 
Q 3116 2381 2855 2742 
Q 2594 3103 2138 3103 
Q 1681 3103 1420 2742 
Q 1159 2381 1159 1747 
Q 1159 1113 1420 752 
Q 1681 391 2138 391 
Q 2594 391 2855 752 
Q 3116 1113 3116 1747 
z
" transform="scale(0.015625)"/>
       <path id="DejaVuSans-72" d="M 2631 2963 
Q 2534 3019 2420 3045 
Q 2306 3072 2169 3072 
Q 1681 3072 1420 2755 
Q 1159 2438 1159 1844 
L 1159 0 
L 581 0 
L 581 3500 
L 1159 3500 
L 1159 2956 
Q 1341 3275 1631 3429 
Q 1922 3584 2338 3584 
Q 2397 3584 2469 3576 
Q 2541 3569 2628 3553 
L 2631 2963 
z
" transform="scale(0.015625)"/>
       <path id="DejaVuSans-61" d="M 2194 1759 
Q 1497 1759 1228 1600 
Q 959 1441 959 1056 
Q 959 750 1161 570 
Q 1363 391 1709 391 
Q 2188 391 2477 730 
Q 2766 1069 2766 1631 
L 2766 1759 
L 2194 1759 
z
M 3341 1997 
L 3341 0 
L 2766 0 
L 2766 531 
Q 2569 213 2275 61 
Q 1981 -91 1556 -91 
Q 1019 -91 701 211 
Q 384 513 384 1019 
Q 384 1609 779 1909 
Q 1175 2209 1959 2209 
L 2766 2209 
L 2766 2266 
Q 2766 2663 2505 2880 
Q 2244 3097 1772 3097 
Q 1472 3097 1187 3025 
Q 903 2953 641 2809 
L 641 3341 
Q 956 3463 1253 3523 
Q 1550 3584 1831 3584 
Q 2591 3584 2966 3190 
Q 3341 2797 3341 1997 
z
" transform="scale(0.015625)"/>
       <path id="DejaVuSans-74" d="M 1172 4494 
L 1172 3500 
L 2356 3500 
L 2356 3053 
L 1172 3053 
L 1172 1153 
Q 1172 725 1289 603 
Q 1406 481 1766 481 
L 2356 481 
L 2356 0 
L 1766 0 
Q 1100 0 847 248 
Q 594 497 594 1153 
L 594 3053 
L 172 3053 
L 172 3500 
L 594 3500 
L 594 4494 
L 1172 4494 
z
" transform="scale(0.015625)"/>
       <path id="DejaVuSans-75" d="M 544 1381 
L 544 3500 
L 1119 3500 
L 1119 1403 
Q 1119 906 1312 657 
Q 1506 409 1894 409 
Q 2359 409 2629 706 
Q 2900 1003 2900 1516 
L 2900 3500 
L 3475 3500 
L 3475 0 
L 2900 0 
L 2900 538 
Q 2691 219 2414 64 
Q 2138 -91 1772 -91 
Q 1169 -91 856 284 
Q 544 659 544 1381 
z
M 1991 3584 
L 1991 3584 
z
" transform="scale(0.015625)"/>
       <path id="DejaVuSans-b0" d="M 1600 4347 
Q 1350 4347 1178 4173 
Q 1006 4000 1006 3750 
Q 1006 3503 1178 3333 
Q 1350 3163 1600 3163 
Q 1850 3163 2022 3333 
Q 2194 3503 2194 3750 
Q 2194 3997 2020 4172 
Q 1847 4347 1600 4347 
z
M 1600 4750 
Q 1800 4750 1984 4673 
Q 2169 4597 2303 4453 
Q 2447 4313 2519 4134 
Q 2591 3956 2591 3750 
Q 2591 3338 2302 3052 
Q 2013 2766 1594 2766 
Q 1172 2766 890 3047 
Q 609 3328 609 3750 
Q 609 4169 896 4459 
Q 1184 4750 1600 4750 
z
" transform="scale(0.015625)"/>
       <path id="DejaVuSans-43" d="M 4122 4306 
L 4122 3641 
Q 3803 3938 3442 4084 
Q 3081 4231 2675 4231 
Q 1875 4231 1450 3742 
Q 1025 3253 1025 2328 
Q 1025 1406 1450 917 
Q 1875 428 2675 428 
Q 3081 428 3442 575 
Q 3803 722 4122 1019 
L 4122 359 
Q 3791 134 3420 21 
Q 3050 -91 2638 -91 
Q 1578 -91 968 557 
Q 359 1206 359 2328 
Q 359 3453 968 4101 
Q 1578 4750 2638 4750 
Q 3056 4750 3426 4639 
Q 3797 4528 4122 4306 
z
" transform="scale(0.015625)"/>
      </defs>
      <use xlink:href="#DejaVuSans-54"/>
      <use xlink:href="#DejaVuSans-65" transform="translate(44.083984 0)"/>
      <use xlink:href="#DejaVuSans-6d" transform="translate(105.607422 0)"/>
      <use xlink:href="#DejaVuSans-70" transform="translate(203.019531 0)"/>
      <use xlink:href="#DejaVuSans-65" transform="translate(266.496094 0)"/>
      <use xlink:href="#DejaVuSans-72" transform="translate(328.019531 0)"/>
      <use xlink:href="#DejaVuSans-61" transform="translate(369.132812 0)"/>
      <use xlink:href="#DejaVuSans-74" transform="translate(430.412109 0)"/>
      <use xlink:href="#DejaVuSans-75" transform="translate(469.621094 0)"/>
      <use xlink:href="#DejaVuSans-72" transform="translate(533 0)"/>
      <use xlink:href="#DejaVuSans-65" transform="translate(571.863281 0)"/>
      <use xlink:href="#DejaVuSans-20" transform="translate(633.386719 0)"/>
      <use xlink:href="#DejaVuSans-28" transform="translate(665.173828 0)"/>
      <use xlink:href="#DejaVuSans-b0" transform="translate(704.1875 0)"/>
      <use xlink:href="#DejaVuSans-43" transform="translate(754.1875 0)"/>
      <use xlink:href="#DejaVuSans-29" transform="translate(824.011719 0)"/>
     </g>
    </g>
   </g>
   <g id="line2d_29">
    <path d="M 75.143636 231.377659 
L 75.486138 208.420747 
L 75.657284 208.420747 
L 75.828429 199.493059 
L 75.999575 199.493059 
L 76.170931 191.840756 
L 76.513222 191.840756 
L 76.684368 184.188452 
L 77.026869 184.188452 
L 77.198015 176.536148 
L 77.36916 176.536148 
L 77.540517 167.60846 
L 77.882597 167.60846 
L 78.053532 159.956156 
L 78.395191 159.956156 
L 78.565915 152.303852 
L 79.249864 152.303852 
L 79.420799 144.651548 
L 82.15428 144.651548 
L 82.325215 135.723861 
L 82.495938 144.651548 
L 84.37601 144.651548 
L 84.717669 120.419253 
L 85.230051 96.186957 
L 85.400986 96.186957 
L 85.571921 88.534653 
L 85.91358 88.534653 
L 86.084304 80.88235 
L 86.255238 80.88235 
L 86.425962 71.954662 
L 86.596897 71.954662 
L 86.767832 64.302358 
L 87.109491 64.302358 
L 87.280215 56.650054 
L 87.621452 56.650054 
L 87.792176 48.99775 
L 88.475704 48.99775 
L 88.646428 40.070062 
L 89.329956 40.070062 
L 89.50068 32.417758 
L 90.525867 32.417758 
L 90.696591 24.765455 
L 102.146058 24.765455 
L 102.316993 32.417758 
L 102.487717 24.765455 
L 102.829376 24.765455 
L 103.00031 32.417758 
L 103.171034 32.417758 
L 103.341969 24.765455 
L 103.683628 24.765455 
L 103.854984 32.417758 
L 104.025919 24.765455 
L 104.196643 32.417758 
L 112.057112 32.417758 
L 112.228047 40.070062 
L 112.398982 40.070062 
L 112.569917 32.417758 
L 113.253445 32.417758 
L 113.42438 40.070062 
L 113.936973 40.070062 
L 114.107908 32.417758 
L 114.278843 40.070062 
L 114.449777 40.070062 
L 114.620712 32.417758 
L 114.791436 40.070062 
L 121.969642 40.070062 
L 122.140577 48.99775 
L 122.311512 40.070062 
L 122.653381 40.070062 
L 122.824105 48.99775 
L 126.072076 48.99775 
L 126.243011 56.650054 
L 126.413946 48.99775 
L 126.58488 48.99775 
L 126.755815 56.650054 
L 126.926539 48.99775 
L 127.097474 56.650054 
L 127.6107 56.650054 
L 127.781634 48.99775 
L 128.123504 48.99775 
L 128.294439 56.650054 
L 132.39624 56.650054 
L 132.567175 64.302358 
L 132.73811 64.302358 
L 132.908834 56.650054 
L 133.250703 56.650054 
L 133.421638 64.302358 
L 145.387703 64.302358 
L 145.558638 71.954662 
L 153.766457 71.954662 
L 153.937392 80.88235 
L 154.108327 71.954662 
L 155.134146 71.954662 
L 155.305081 80.88235 
L 155.476648 71.954662 
L 155.647793 71.954662 
L 155.818728 80.88235 
L 155.989663 71.954662 
L 156.160597 80.88235 
L 167.786268 80.88235 
L 167.957203 88.534653 
L 168.128138 80.88235 
L 168.641153 80.88235 
L 168.812088 88.534653 
L 168.983023 80.88235 
L 169.324892 80.88235 
L 169.495827 88.534653 
L 169.666762 88.534653 
L 169.837696 80.88235 
L 170.69237 80.88235 
L 170.863305 88.534653 
L 171.03445 80.88235 
L 171.205174 88.534653 
L 171.376952 88.534653 
L 171.547887 80.88235 
L 171.718822 88.534653 
L 171.889756 88.534653 
L 172.060902 80.88235 
L 172.231837 88.534653 
L 173.086721 88.534653 
L 173.257656 80.88235 
L 173.428591 88.534653 
L 173.770671 88.534653 
L 173.941606 80.88235 
L 174.112751 88.534653 
L 185.914626 88.534653 
L 186.085772 96.186957 
L 186.256707 88.534653 
L 187.111802 88.534653 
L 187.28358 96.186957 
L 187.796595 96.186957 
L 187.96753 88.534653 
L 188.138675 96.186957 
L 188.822625 96.186957 
L 188.99377 88.534653 
L 189.164705 96.186957 
L 189.335851 88.534653 
L 189.506785 96.186957 
L 198.232046 96.186957 
L 198.40298 103.839261 
L 198.574126 96.186957 
L 199.087141 96.186957 
L 199.258708 103.839261 
L 199.429854 96.186957 
L 199.771723 96.186957 
L 199.942869 103.839261 
L 200.626818 103.839261 
L 200.797753 96.186957 
L 200.968688 103.839261 
L 208.494876 103.839261 
L 208.666021 112.766949 
L 208.836956 103.839261 
L 209.008101 103.839261 
L 209.179247 112.766949 
L 209.350182 112.766949 
L 209.521327 103.839261 
L 209.692473 103.839261 
L 209.863407 112.766949 
L 210.034553 112.766949 
L 210.205698 103.839261 
L 210.376633 112.766949 
L 217.734415 112.766949 
L 217.90535 120.419253 
L 218.076496 112.766949 
L 218.418576 112.766949 
L 218.589721 120.419253 
L 218.760867 112.766949 
L 219.274725 112.766949 
L 219.445871 120.419253 
L 219.617016 120.419253 
L 219.787951 112.766949 
L 219.959096 120.419253 
L 220.130242 120.419253 
L 220.301177 112.766949 
L 220.472322 120.419253 
L 222.696371 120.419253 
L 223.210229 159.956156 
L 224.236681 159.956156 
L 224.407615 167.60846 
L 225.262921 167.60846 
L 225.434067 176.536148 
L 225.947293 176.536148 
L 226.118438 184.188452 
L 226.289373 184.188452 
L 226.460519 176.536148 
L 226.631664 184.188452 
L 227.487603 184.188452 
L 227.658748 191.840756 
L 229.02728 191.840756 
L 229.198425 199.493059 
L 229.369571 191.840756 
L 229.711651 191.840756 
L 229.882797 199.493059 
L 256.715549 199.493059 
L 256.886483 191.840756 
L 257.057207 199.493059 
L 258.253118 199.493059 
L 258.424053 191.840756 
L 258.594988 199.493059 
L 258.765712 191.840756 
L 258.937279 199.493059 
L 259.108003 191.840756 
L 259.278938 199.493059 
L 260.645783 199.493059 
L 260.816507 191.840756 
L 261.158377 191.840756 
L 261.329101 199.493059 
L 261.500036 199.493059 
L 261.67076 191.840756 
L 261.841694 199.493059 
L 262.525012 199.493059 
L 262.695946 191.840756 
L 262.866881 199.493059 
L 263.550831 199.493059 
L 263.721555 191.840756 
L 263.89249 199.493059 
L 264.575807 199.493059 
L 264.746531 191.840756 
L 264.917466 199.493059 
L 265.08819 199.493059 
L 265.259125 191.840756 
L 265.600783 191.840756 
L 265.771507 199.493059 
L 265.942442 191.840756 
L 266.284101 191.840756 
L 266.454825 199.493059 
L 266.62576 199.493059 
L 266.796484 191.840756 
L 266.968051 199.493059 
L 267.309709 199.493059 
L 267.480644 191.840756 
L 268.335107 191.840756 
L 268.506042 199.493059 
L 268.676977 191.840756 
L 268.847701 199.493059 
L 269.360505 199.493059 
L 269.53144 191.840756 
L 269.702164 191.840756 
L 269.873098 199.493059 
L 270.044033 191.840756 
L 270.214968 199.493059 
L 270.385903 199.493059 
L 270.556627 191.840756 
L 270.899129 191.840756 
L 271.070063 199.493059 
L 271.240998 191.840756 
L 271.411933 199.493059 
L 271.582657 199.493059 
L 271.753592 191.840756 
L 271.924526 191.840756 
L 272.095461 199.493059 
L 272.266396 191.840756 
L 272.949924 191.840756 
L 273.120859 199.493059 
L 273.462728 199.493059 
L 273.633663 191.840756 
L 273.804598 191.840756 
L 273.975533 199.493059 
L 274.146257 191.840756 
L 274.317191 199.493059 
L 274.488126 199.493059 
L 274.659061 191.840756 
L 274.830628 199.493059 
L 275.001563 191.840756 
L 275.172497 199.493059 
L 275.343432 191.840756 
L 275.514156 199.493059 
L 275.685091 191.840756 
L 275.856026 199.493059 
L 276.197895 199.493059 
L 276.36883 191.840756 
L 276.881423 191.840756 
L 277.052358 199.493059 
L 277.223293 191.840756 
L 277.394228 199.493059 
L 277.565162 191.840756 
L 278.077756 191.840756 
L 278.248691 199.493059 
L 278.419625 191.840756 
L 278.761495 191.840756 
L 278.933062 199.493059 
L 279.103997 199.493059 
L 279.274931 191.840756 
L 279.445655 191.840756 
L 279.61659 199.493059 
L 280.471264 199.493059 
L 280.642199 191.840756 
L 280.812923 191.840756 
L 280.983857 199.493059 
L 281.496662 199.493059 
L 281.667597 191.840756 
L 281.838531 199.493059 
L 282.009255 199.493059 
L 282.18019 191.840756 
L 282.351125 199.493059 
L 282.52206 191.840756 
L 282.692994 191.840756 
L 282.864561 199.493059 
L 283.206431 199.493059 
L 283.377155 191.840756 
L 283.719024 191.840756 
L 283.889959 199.493059 
L 284.060894 191.840756 
L 284.231829 199.493059 
L 284.744422 199.493059 
L 284.915357 191.840756 
L 285.086292 191.840756 
L 285.257226 199.493059 
L 286.966995 199.493059 
L 287.13793 191.840756 
L 287.308865 199.493059 
L 288.33616 199.493059 
L 288.507094 191.840756 
L 288.678029 199.493059 
L 307.654527 199.493059 
L 307.825672 208.420747 
L 307.996607 199.493059 
L 308.167542 199.493059 
L 308.338477 208.420747 
L 308.509411 199.493059 
L 309.364296 199.493059 
L 309.535863 208.420747 
L 309.707009 208.420747 
L 309.877943 199.493059 
L 310.219813 199.493059 
L 310.390748 208.420747 
L 310.561682 199.493059 
L 311.245632 199.493059 
L 311.416567 208.420747 
L 312.613321 208.420747 
L 312.784256 199.493059 
L 312.955401 208.420747 
L 327.660849 208.420747 
L 327.831994 216.073051 
L 328.002929 208.420747 
L 330.910084 208.420747 
L 331.080808 216.073051 
L 331.251743 216.073051 
L 331.422467 208.420747 
L 331.93506 208.420747 
L 332.105784 216.073051 
L 332.61901 216.073051 
L 332.789945 208.420747 
L 332.960669 216.073051 
L 333.131604 208.420747 
L 333.302328 216.073051 
L 335.352702 216.073051 
L 335.523426 208.420747 
L 335.69436 216.073051 
L 347.826934 216.073051 
L 347.997869 223.725355 
L 348.168593 223.725355 
L 348.339528 216.073051 
L 348.852121 216.073051 
L 349.022845 223.725355 
L 349.19378 223.725355 
L 349.364504 216.073051 
L 349.535439 223.725355 
L 349.706373 216.073051 
L 349.877097 216.073051 
L 350.048032 223.725355 
L 350.218756 223.725355 
L 350.389691 216.073051 
L 350.560415 216.073051 
L 350.73135 223.725355 
L 350.902284 216.073051 
L 351.073008 223.725355 
L 351.243943 223.725355 
L 351.415299 216.073051 
L 351.586234 223.725355 
L 351.757169 223.725355 
L 351.927893 216.073051 
L 352.098828 223.725355 
L 352.269552 216.073051 
L 352.440486 223.725355 
L 354.661373 223.725355 
L 354.832097 216.073051 
L 355.003032 223.725355 
L 365.597825 223.725355 
L 365.768549 231.377659 
L 365.939484 223.725355 
L 366.623855 223.725355 
L 366.79479 231.377659 
L 366.965725 223.725355 
L 367.136449 231.377659 
L 367.307384 223.725355 
L 367.478318 231.377659 
L 367.820188 231.377659 
L 367.991123 223.725355 
L 368.162058 223.725355 
L 368.332781 231.377659 
L 368.503716 231.377659 
L 368.674651 223.725355 
L 368.845586 231.377659 
L 371.067948 231.377659 
L 371.238883 223.725355 
L 371.409818 231.377659 
L 379.956345 231.377659 
L 380.12728 240.305347 
L 380.298214 231.377659 
L 380.469149 240.305347 
L 380.640084 231.377659 
L 381.152677 231.377659 
L 381.323612 240.305347 
L 381.494547 240.305347 
L 381.665482 231.377659 
L 383.204316 231.377659 
L 383.375251 240.305347 
L 383.546185 231.377659 
L 383.71712 231.377659 
L 383.887844 240.305347 
L 384.060887 240.305347 
L 384.231821 231.377659 
L 384.402756 240.305347 
L 397.225392 240.305347 
L 397.396327 247.95765 
L 397.567261 240.305347 
L 399.447965 240.305347 
L 399.6189 247.95765 
L 399.789835 247.95765 
L 399.96077 240.305347 
L 400.473574 240.305347 
L 400.644719 247.95765 
L 400.815654 247.95765 
L 400.987221 240.305347 
L 401.158156 247.95765 
L 401.329091 240.305347 
L 401.500236 247.95765 
L 415.179653 247.95765 
L 415.350588 255.609954 
L 415.521523 247.95765 
L 416.718909 247.95765 
L 416.890055 255.609954 
L 417.06099 255.609954 
L 417.231924 247.95765 
L 417.402859 247.95765 
L 417.573794 255.609954 
L 417.915663 255.609954 
L 418.086598 247.95765 
L 418.257533 255.609954 
L 418.428468 247.95765 
L 418.599402 255.609954 
L 432.624905 255.609954 
L 432.79605 263.262258 
L 432.966985 255.609954 
L 433.48 255.609954 
L 433.651145 263.262258 
L 433.82208 263.262258 
L 433.993015 255.609954 
L 434.16416 263.262258 
L 434.335095 255.609954 
L 434.506241 263.262258 
L 434.677175 263.262258 
L 434.84811 255.609954 
L 435.019256 263.262258 
L 435.191034 263.262258 
L 435.361968 255.609954 
L 435.532903 263.262258 
L 435.704049 255.609954 
L 435.874983 263.262258 
L 450.583803 263.262258 
L 450.754949 272.189946 
L 450.926094 263.262258 
L 451.7814 263.262258 
L 451.952335 272.189946 
L 452.12348 263.262258 
L 452.294415 272.189946 
L 452.465561 272.189946 
L 452.636706 263.262258 
L 452.978787 263.262258 
L 453.149721 272.189946 
L 453.834093 272.189946 
L 454.005027 263.262258 
L 454.519096 263.262258 
L 454.690031 272.189946 
L 454.861177 263.262258 
L 455.032322 272.189946 
L 455.203257 263.262258 
L 455.374402 272.189946 
L 455.716483 272.189946 
L 455.887628 263.262258 
L 456.058774 272.189946 
L 470.945062 272.189946 
L 471.116207 279.84225 
L 471.629433 279.84225 
L 471.800579 287.494554 
L 471.971514 279.84225 
L 472.142659 287.494554 
L 472.313805 287.494554 
L 472.484739 279.84225 
L 472.997965 279.84225 
L 473.169111 287.494554 
L 473.340889 279.84225 
L 473.512034 287.494554 
L 475.907018 287.494554 
L 476.078163 295.146858 
L 476.249309 287.494554 
L 476.420243 295.146858 
L 477.960553 295.146858 
L 478.131699 304.074545 
L 478.302844 295.146858 
L 478.473779 304.074545 
L 478.644924 295.146858 
L 481.21295 295.146858 
L 481.383674 287.494554 
L 481.554609 295.146858 
L 481.725333 287.494554 
L 481.896268 287.494554 
L 482.066992 295.146858 
L 482.237716 287.494554 
L 483.091968 287.494554 
L 483.262692 279.84225 
L 485.313488 279.84225 
L 485.484211 272.189946 
L 485.655146 279.84225 
L 485.996805 279.84225 
L 486.16774 272.189946 
L 496.933046 272.189946 
L 497.103981 263.262258 
L 497.274705 272.189946 
L 497.616364 272.189946 
L 497.616364 272.189946 
" clip-path="url(#p64cc269639)" style="fill: none; stroke: #1f77b4; stroke-width: 1.5; stroke-linecap: square"/>
   </g>
   <g id="patch_3">
    <path d="M 54.02 318.04 
L 54.02 10.8 
" style="fill: none; stroke: #000000; stroke-width: 0.8; stroke-linejoin: miter; stroke-linecap: square"/>
   </g>
   <g id="patch_4">
    <path d="M 518.74 318.04 
L 518.74 10.8 
" style="fill: none; stroke: #000000; stroke-width: 0.8; stroke-linejoin: miter; stroke-linecap: square"/>
   </g>
   <g id="patch_5">
    <path d="M 54.02 318.04 
L 518.74 318.04 
" style="fill: none; stroke: #000000; stroke-width: 0.8; stroke-linejoin: miter; stroke-linecap: square"/>
   </g>
   <g id="patch_6">
    <path d="M 54.02 10.8 
L 518.74 10.8 
" style="fill: none; stroke: #000000; stroke-width: 0.8; stroke-linejoin: miter; stroke-linecap: square"/>
   </g>
  </g>
  <g id="axes_2">
   <g id="matplotlib.axis_3">
    <g id="ytick_6">
     <g id="line2d_30">
      <defs>
       <path id="m9e50335102" d="M 0 0 
L 3.5 0 
" style="stroke: #000000; stroke-width: 0.8"/>
      </defs>
      <g>
       <use xlink:href="#m9e50335102" x="518.74" y="306.601801" style="stroke: #000000; stroke-width: 0.8"/>
      </g>
     </g>
     <g id="text_17">
      <!-- 1000 -->
      <g style="fill: #ff7f0e" transform="translate(525.74 310.40102) scale(0.1 -0.1)">
       <use xlink:href="#DejaVuSans-31"/>
       <use xlink:href="#DejaVuSans-30" transform="translate(63.623047 0)"/>
       <use xlink:href="#DejaVuSans-30" transform="translate(127.246094 0)"/>
       <use xlink:href="#DejaVuSans-30" transform="translate(190.869141 0)"/>
      </g>
     </g>
    </g>
    <g id="ytick_7">
     <g id="line2d_31">
      <g>
       <use xlink:href="#m9e50335102" x="518.74" y="239.028111" style="stroke: #000000; stroke-width: 0.8"/>
      </g>
     </g>
     <g id="text_18">
      <!-- 1100 -->
      <g style="fill: #ff7f0e" transform="translate(525.74 242.82733) scale(0.1 -0.1)">
       <use xlink:href="#DejaVuSans-31"/>
       <use xlink:href="#DejaVuSans-31" transform="translate(63.623047 0)"/>
       <use xlink:href="#DejaVuSans-30" transform="translate(127.246094 0)"/>
       <use xlink:href="#DejaVuSans-30" transform="translate(190.869141 0)"/>
      </g>
     </g>
    </g>
    <g id="ytick_8">
     <g id="line2d_32">
      <g>
       <use xlink:href="#m9e50335102" x="518.74" y="171.454421" style="stroke: #000000; stroke-width: 0.8"/>
      </g>
     </g>
     <g id="text_19">
      <!-- 1200 -->
      <g style="fill: #ff7f0e" transform="translate(525.74 175.25364) scale(0.1 -0.1)">
       <use xlink:href="#DejaVuSans-31"/>
       <use xlink:href="#DejaVuSans-32" transform="translate(63.623047 0)"/>
       <use xlink:href="#DejaVuSans-30" transform="translate(127.246094 0)"/>
       <use xlink:href="#DejaVuSans-30" transform="translate(190.869141 0)"/>
      </g>
     </g>
    </g>
    <g id="ytick_9">
     <g id="line2d_33">
      <g>
       <use xlink:href="#m9e50335102" x="518.74" y="103.880731" style="stroke: #000000; stroke-width: 0.8"/>
      </g>
     </g>
     <g id="text_20">
      <!-- 1300 -->
      <g style="fill: #ff7f0e" transform="translate(525.74 107.67995) scale(0.1 -0.1)">
       <defs>
        <path id="DejaVuSans-33" d="M 2597 2516 
Q 3050 2419 3304 2112 
Q 3559 1806 3559 1356 
Q 3559 666 3084 287 
Q 2609 -91 1734 -91 
Q 1441 -91 1130 -33 
Q 819 25 488 141 
L 488 750 
Q 750 597 1062 519 
Q 1375 441 1716 441 
Q 2309 441 2620 675 
Q 2931 909 2931 1356 
Q 2931 1769 2642 2001 
Q 2353 2234 1838 2234 
L 1294 2234 
L 1294 2753 
L 1863 2753 
Q 2328 2753 2575 2939 
Q 2822 3125 2822 3475 
Q 2822 3834 2567 4026 
Q 2313 4219 1838 4219 
Q 1578 4219 1281 4162 
Q 984 4106 628 3988 
L 628 4550 
Q 988 4650 1302 4700 
Q 1616 4750 1894 4750 
Q 2613 4750 3031 4423 
Q 3450 4097 3450 3541 
Q 3450 3153 3228 2886 
Q 3006 2619 2597 2516 
z
" transform="scale(0.015625)"/>
       </defs>
       <use xlink:href="#DejaVuSans-31"/>
       <use xlink:href="#DejaVuSans-33" transform="translate(63.623047 0)"/>
       <use xlink:href="#DejaVuSans-30" transform="translate(127.246094 0)"/>
       <use xlink:href="#DejaVuSans-30" transform="translate(190.869141 0)"/>
      </g>
     </g>
    </g>
    <g id="ytick_10">
     <g id="line2d_34">
      <g>
       <use xlink:href="#m9e50335102" x="518.74" y="36.307041" style="stroke: #000000; stroke-width: 0.8"/>
      </g>
     </g>
     <g id="text_21">
      <!-- 1400 -->
      <g style="fill: #ff7f0e" transform="translate(525.74 40.10626) scale(0.1 -0.1)">
       <use xlink:href="#DejaVuSans-31"/>
       <use xlink:href="#DejaVuSans-34" transform="translate(63.623047 0)"/>
       <use xlink:href="#DejaVuSans-30" transform="translate(127.246094 0)"/>
       <use xlink:href="#DejaVuSans-30" transform="translate(190.869141 0)"/>
      </g>
     </g>
    </g>
    <g id="text_22">
     <!-- Pressure (Pa) -->
     <g style="fill: #ff7f0e" transform="translate(562.788438 197.109063) rotate(-90) scale(0.1 -0.1)">
      <defs>
       <path id="DejaVuSans-50" d="M 1259 4147 
L 1259 2394 
L 2053 2394 
Q 2494 2394 2734 2622 
Q 2975 2850 2975 3272 
Q 2975 3691 2734 3919 
Q 2494 4147 2053 4147 
L 1259 4147 
z
M 628 4666 
L 2053 4666 
Q 2838 4666 3239 4311 
Q 3641 3956 3641 3272 
Q 3641 2581 3239 2228 
Q 2838 1875 2053 1875 
L 1259 1875 
L 1259 0 
L 628 0 
L 628 4666 
z
" transform="scale(0.015625)"/>
      </defs>
      <use xlink:href="#DejaVuSans-50"/>
      <use xlink:href="#DejaVuSans-72" transform="translate(58.552734 0)"/>
      <use xlink:href="#DejaVuSans-65" transform="translate(97.416016 0)"/>
      <use xlink:href="#DejaVuSans-73" transform="translate(158.939453 0)"/>
      <use xlink:href="#DejaVuSans-73" transform="translate(211.039062 0)"/>
      <use xlink:href="#DejaVuSans-75" transform="translate(263.138672 0)"/>
      <use xlink:href="#DejaVuSans-72" transform="translate(326.517578 0)"/>
      <use xlink:href="#DejaVuSans-65" transform="translate(365.380859 0)"/>
      <use xlink:href="#DejaVuSans-20" transform="translate(426.904297 0)"/>
      <use xlink:href="#DejaVuSans-28" transform="translate(458.691406 0)"/>
      <use xlink:href="#DejaVuSans-50" transform="translate(497.705078 0)"/>
      <use xlink:href="#DejaVuSans-61" transform="translate(553.507812 0)"/>
      <use xlink:href="#DejaVuSans-29" transform="translate(614.787109 0)"/>
     </g>
    </g>
   </g>
   <g id="line2d_35">
    <path d="M 75.143636 303.844795 
L 78.224256 303.824523 
L 79.762458 303.804251 
L 81.129304 303.547471 
L 81.300028 303.851552 
L 81.812621 303.804251 
L 83.350823 303.655589 
L 84.034351 303.635316 
L 84.205075 290.377358 
L 84.717669 107.212114 
L 85.059327 26.170987 
L 85.571921 25.914207 
L 85.91358 25.812847 
L 88.475704 25.116838 
L 88.988298 25.083051 
L 89.50068 24.98169 
L 90.013274 24.934389 
L 91.893135 24.846543 
L 92.747387 24.778969 
L 93.25998 24.792484 
L 103.171034 24.893845 
L 103.683628 24.893845 
L 105.904937 24.907359 
L 106.246595 24.907359 
L 107.442296 24.968176 
L 115.64611 25.062779 
L 116.158282 25.062779 
L 117.525549 25.049264 
L 118.038143 25.076294 
L 118.380012 25.089808 
L 119.40541 25.103323 
L 119.747912 25.076294 
L 120.602375 25.11008 
L 124.021281 25.211441 
L 125.217613 25.251985 
L 126.58488 25.306044 
L 131.541145 25.387132 
L 132.225306 25.420919 
L 132.73811 25.427677 
L 137.694375 25.515523 
L 138.207179 25.535795 
L 139.574868 25.515523 
L 140.258607 25.52228 
L 141.45515 25.529037 
L 142.822628 25.535795 
L 145.045834 25.556067 
L 150.688367 25.643913 
L 151.372106 25.657427 
L 154.108327 25.664185 
L 154.621131 25.677699 
L 155.647793 25.711486 
L 157.528286 25.718244 
L 157.870367 25.745273 
L 158.72504 25.77906 
L 159.40899 25.75203 
L 160.092308 25.75203 
L 161.459786 25.772303 
L 161.97259 25.75203 
L 162.827264 25.792575 
L 164.02465 25.792575 
L 164.7086 25.799332 
L 178.730519 25.887178 
L 179.415312 25.893935 
L 180.270407 25.90745 
L 181.125502 25.934479 
L 181.980598 25.914207 
L 182.835693 25.947994 
L 185.743692 25.954751 
L 186.598787 25.934479 
L 187.28358 25.988538 
L 189.506785 26.015568 
L 189.67772 25.954751 
L 190.0198 26.00881 
L 193.613856 26.042597 
L 195.66676 26.049355 
L 196.521855 26.083142 
L 197.03487 26.103414 
L 199.600788 26.096656 
L 200.455884 26.130443 
L 201.310768 26.123686 
L 201.994718 26.1372 
L 208.836956 26.238561 
L 209.692473 26.245318 
L 215.339432 26.319649 
L 215.681512 26.333164 
L 216.194738 26.326407 
L 217.050044 26.373708 
L 218.076496 26.353436 
L 219.102947 26.373708 
L 222.525225 26.448039 
L 222.867306 297.891553 
L 223.210229 272.152734 
L 223.723455 251.157589 
L 224.236681 238.757817 
L 224.749906 231.696366 
L 225.262921 228.182534 
L 225.776147 226.202625 
L 226.289373 225.175505 
L 227.145522 224.39165 
L 229.540506 223.932149 
L 230.396023 223.871333 
L 230.909248 223.87809 
L 231.594252 223.85106 
L 233.304653 223.824031 
L 235.699637 223.830788 
L 236.724613 223.824031 
L 237.407931 223.810516 
L 237.920313 223.844303 
L 239.287581 223.830788 
L 242.70459 223.871333 
L 244.242792 223.85106 
L 246.122231 223.898362 
L 253.468842 223.999723 
L 255.007044 224.019995 
L 255.519638 224.00648 
L 257.399077 224.053782 
L 259.791531 224.053782 
L 260.474849 224.060539 
L 268.506042 224.13487 
L 269.018635 224.148385 
L 276.881423 224.229473 
L 277.565162 224.26326 
L 278.419625 224.242988 
L 279.103997 224.270017 
L 289.361557 224.371378 
L 290.21602 224.384893 
L 292.096724 224.39165 
L 292.780252 224.405165 
L 296.882476 224.479496 
L 297.907874 224.465981 
L 304.918517 224.540312 
L 305.431321 224.567342 
L 313.810918 224.661945 
L 314.836737 224.682217 
L 315.691411 224.682217 
L 316.71723 224.702489 
L 319.966466 224.729518 
L 320.650205 224.729518 
L 321.334787 224.736276 
L 322.360607 224.736276 
L 322.873411 224.770063 
L 323.728295 224.749791 
L 324.2411 224.77682 
L 326.464305 224.770063 
L 327.148044 224.810607 
L 327.831994 224.817364 
L 329.372515 224.837636 
L 331.764126 224.837636 
L 332.276719 224.851151 
L 336.036019 224.918725 
L 336.719969 224.878181 
L 337.574221 224.93224 
L 337.91588 224.911967 
L 338.599408 224.911967 
L 339.45345 224.918725 
L 341.504245 224.938997 
L 342.700367 224.952512 
L 343.554619 224.952512 
L 344.409504 224.952512 
L 348.852121 225.040357 
L 349.364504 225.020085 
L 353.294739 225.067387 
L 355.344059 225.087659 
L 356.198311 225.094416 
L 364.914086 225.18902 
L 365.597825 225.18902 
L 366.452288 225.222806 
L 376.53765 225.303895 
L 376.879519 225.330924 
L 377.221178 225.31741 
L 380.469149 225.357954 
L 381.152677 225.324167 
L 381.665482 225.364711 
L 382.349853 225.371469 
L 385.598878 225.405255 
L 386.283038 225.41877 
L 389.188297 225.432285 
L 389.701733 225.425527 
L 390.214538 225.452557 
L 390.898277 225.452557 
L 393.120639 225.452557 
L 394.318236 225.486344 
L 395.685925 225.506616 
L 396.711745 225.493101 
L 397.225392 225.533645 
L 398.251 225.520131 
L 399.789835 225.506616 
L 401.671171 225.553917 
L 402.183975 225.540403 
L 405.262065 225.560675 
L 407.142769 225.57419 
L 407.997654 225.621491 
L 408.682236 225.580947 
L 409.87899 225.628249 
L 412.615211 225.614734 
L 414.495704 225.668793 
L 415.863603 225.648521 
L 416.890055 225.689065 
L 417.231924 225.682307 
L 418.086598 225.689065 
L 419.112207 225.709337 
L 422.190718 225.736366 
L 423.387894 225.716094 
L 423.901541 225.729609 
L 425.098717 225.736366 
L 428.177861 225.763396 
L 429.032956 225.763396 
L 429.545971 225.776911 
L 432.11189 225.783668 
L 435.019256 225.810698 
L 435.874983 225.817455 
L 449.728286 225.918815 
L 451.439109 225.952602 
L 451.952335 225.939088 
L 453.834093 225.95936 
L 454.861177 225.952602 
L 455.716483 225.952602 
L 458.796681 225.972874 
L 459.309906 225.986389 
L 459.994278 225.986389 
L 470.774127 226.033691 
L 470.945062 303.966428 
L 471.116207 304.006972 
L 471.458288 300.62153 
L 471.971514 295.661621 
L 472.484739 292.958673 
L 472.997965 291.397721 
L 473.854114 290.194909 
L 474.709631 289.748923 
L 475.051711 289.620533 
L 475.564937 289.505658 
L 475.736083 290.248968 
L 475.907018 300.479625 
L 476.078163 303.885339 
L 476.249309 304.034001 
L 476.933469 304.034001 
L 477.789618 304.047516 
L 480.528579 304.040759 
L 482.408651 304.013729 
L 483.775285 304.000214 
L 484.116944 303.993457 
L 486.851057 304.000214 
L 489.92704 303.9867 
L 491.293885 304.000214 
L 492.661153 303.9867 
L 493.344681 304.020487 
L 494.369657 304.006972 
L 496.078794 303.973185 
L 496.933046 304.006972 
L 497.616364 304.006972 
L 497.616364 304.006972 
" clip-path="url(#p64cc269639)" style="fill: none; stroke: #ff7f0e; stroke-width: 1.5; stroke-linecap: square"/>
   </g>
   <g id="patch_7">
    <path d="M 54.02 318.04 
L 54.02 10.8 
" style="fill: none; stroke: #000000; stroke-width: 0.8; stroke-linejoin: miter; stroke-linecap: square"/>
   </g>
   <g id="patch_8">
    <path d="M 518.74 318.04 
L 518.74 10.8 
" style="fill: none; stroke: #000000; stroke-width: 0.8; stroke-linejoin: miter; stroke-linecap: square"/>
   </g>
   <g id="patch_9">
    <path d="M 54.02 318.04 
L 518.74 318.04 
" style="fill: none; stroke: #000000; stroke-width: 0.8; stroke-linejoin: miter; stroke-linecap: square"/>
   </g>
   <g id="patch_10">
    <path d="M 54.02 10.8 
L 518.74 10.8 
" style="fill: none; stroke: #000000; stroke-width: 0.8; stroke-linejoin: miter; stroke-linecap: square"/>
   </g>
  </g>
 </g>
 <defs>
  <clipPath id="p64cc269639">
   <rect x="54.02" y="10.8" width="464.72" height="307.24"/>
  </clipPath>
 </defs>
</svg>
