<?xml version="1.0" encoding="utf-8" standalone="no"?>
<!DOCTYPE svg PUBLIC "-//W3C//DTD SVG 1.1//EN"
  "http://www.w3.org/Graphics/SVG/1.1/DTD/svg11.dtd">
<svg xmlns:xlink="http://www.w3.org/1999/xlink" width="576pt" height="360pt" viewBox="0 0 576 360" xmlns="http://www.w3.org/2000/svg" version="1.1">
 <metadata>
  <rdf:RDF xmlns:dc="http://purl.org/dc/elements/1.1/" xmlns:cc="http://creativecommons.org/ns#" xmlns:rdf="http://www.w3.org/1999/02/22-rdf-syntax-ns#">
   <cc:Work>
    <dc:type rdf:resource="http://purl.org/dc/dcmitype/StillImage"/>
    <dc:date>2025-09-04T12:09:40.151290</dc:date>
    <dc:format>image/svg+xml</dc:format>
    <dc:creator>
     <cc:Agent>
      <dc:title>Matplotlib v3.10.3, https://matplotlib.org/</dc:title>
     </cc:Agent>
    </dc:creator>
   </cc:Work>
  </rdf:RDF>
 </metadata>
 <defs>
  <style type="text/css">*{stroke-linejoin: round; stroke-linecap: butt}</style>
 </defs>
 <g id="figure_1">
  <g id="patch_1">
   <path d="M 0 360 
L 576 360 
L 576 0 
L 0 0 
z
" style="fill: #ffffff"/>
  </g>
  <g id="axes_1">
   <g id="patch_2">
    <path d="M 54.02 318.04 
L 518.74 318.04 
L 518.74 10.8 
L 54.02 10.8 
z
" style="fill: #ffffff"/>
   </g>
   <g id="matplotlib.axis_1">
    <g id="xtick_1">
     <g id="line2d_1">
      <path d="M 74.803614 318.04 
L 74.803614 10.8 
" clip-path="url(#p8f9feafad5)" style="fill: none; stroke: #b0b0b0; stroke-width: 0.8; stroke-linecap: square"/>
     </g>
     <g id="line2d_2">
      <defs>
       <path id="md63396f380" d="M 0 0 
L 0 3.5 
" style="stroke: #000000; stroke-width: 0.8"/>
      </defs>
      <g>
       <use xlink:href="#md63396f380" x="74.803614" y="318.04" style="stroke: #000000; stroke-width: 0.8"/>
      </g>
     </g>
     <g id="text_1">
      <!-- 0 -->
      <g transform="translate(71.622364 332.638438) scale(0.1 -0.1)">
       <defs>
        <path id="DejaVuSans-30" d="M 2034 4250 
Q 1547 4250 1301 3770 
Q 1056 3291 1056 2328 
Q 1056 1369 1301 889 
Q 1547 409 2034 409 
Q 2525 409 2770 889 
Q 3016 1369 3016 2328 
Q 3016 3291 2770 3770 
Q 2525 4250 2034 4250 
z
M 2034 4750 
Q 2819 4750 3233 4129 
Q 3647 3509 3647 2328 
Q 3647 1150 3233 529 
Q 2819 -91 2034 -91 
Q 1250 -91 836 529 
Q 422 1150 422 2328 
Q 422 3509 836 4129 
Q 1250 4750 2034 4750 
z
" transform="scale(0.015625)"/>
       </defs>
       <use xlink:href="#DejaVuSans-30"/>
      </g>
     </g>
    </g>
    <g id="xtick_2">
     <g id="line2d_3">
      <path d="M 151.161756 318.04 
L 151.161756 10.8 
" clip-path="url(#p8f9feafad5)" style="fill: none; stroke: #b0b0b0; stroke-width: 0.8; stroke-linecap: square"/>
     </g>
     <g id="line2d_4">
      <g>
       <use xlink:href="#md63396f380" x="151.161756" y="318.04" style="stroke: #000000; stroke-width: 0.8"/>
      </g>
     </g>
     <g id="text_2">
      <!-- 1000 -->
      <g transform="translate(138.436756 332.638438) scale(0.1 -0.1)">
       <defs>
        <path id="DejaVuSans-31" d="M 794 531 
L 1825 531 
L 1825 4091 
L 703 3866 
L 703 4441 
L 1819 4666 
L 2450 4666 
L 2450 531 
L 3481 531 
L 3481 0 
L 794 0 
L 794 531 
z
" transform="scale(0.015625)"/>
       </defs>
       <use xlink:href="#DejaVuSans-31"/>
       <use xlink:href="#DejaVuSans-30" transform="translate(63.623047 0)"/>
       <use xlink:href="#DejaVuSans-30" transform="translate(127.246094 0)"/>
       <use xlink:href="#DejaVuSans-30" transform="translate(190.869141 0)"/>
      </g>
     </g>
    </g>
    <g id="xtick_3">
     <g id="line2d_5">
      <path d="M 227.519899 318.04 
L 227.519899 10.8 
" clip-path="url(#p8f9feafad5)" style="fill: none; stroke: #b0b0b0; stroke-width: 0.8; stroke-linecap: square"/>
     </g>
     <g id="line2d_6">
      <g>
       <use xlink:href="#md63396f380" x="227.519899" y="318.04" style="stroke: #000000; stroke-width: 0.8"/>
      </g>
     </g>
     <g id="text_3">
      <!-- 2000 -->
      <g transform="translate(214.794899 332.638438) scale(0.1 -0.1)">
       <defs>
        <path id="DejaVuSans-32" d="M 1228 531 
L 3431 531 
L 3431 0 
L 469 0 
L 469 531 
Q 828 903 1448 1529 
Q 2069 2156 2228 2338 
Q 2531 2678 2651 2914 
Q 2772 3150 2772 3378 
Q 2772 3750 2511 3984 
Q 2250 4219 1831 4219 
Q 1534 4219 1204 4116 
Q 875 4013 500 3803 
L 500 4441 
Q 881 4594 1212 4672 
Q 1544 4750 1819 4750 
Q 2544 4750 2975 4387 
Q 3406 4025 3406 3419 
Q 3406 3131 3298 2873 
Q 3191 2616 2906 2266 
Q 2828 2175 2409 1742 
Q 1991 1309 1228 531 
z
" transform="scale(0.015625)"/>
       </defs>
       <use xlink:href="#DejaVuSans-32"/>
       <use xlink:href="#DejaVuSans-30" transform="translate(63.623047 0)"/>
       <use xlink:href="#DejaVuSans-30" transform="translate(127.246094 0)"/>
       <use xlink:href="#DejaVuSans-30" transform="translate(190.869141 0)"/>
      </g>
     </g>
    </g>
    <g id="xtick_4">
     <g id="line2d_7">
      <path d="M 303.878041 318.04 
L 303.878041 10.8 
" clip-path="url(#p8f9feafad5)" style="fill: none; stroke: #b0b0b0; stroke-width: 0.8; stroke-linecap: square"/>
     </g>
     <g id="line2d_8">
      <g>
       <use xlink:href="#md63396f380" x="303.878041" y="318.04" style="stroke: #000000; stroke-width: 0.8"/>
      </g>
     </g>
     <g id="text_4">
      <!-- 3000 -->
      <g transform="translate(291.153041 332.638438) scale(0.1 -0.1)">
       <defs>
        <path id="DejaVuSans-33" d="M 2597 2516 
Q 3050 2419 3304 2112 
Q 3559 1806 3559 1356 
Q 3559 666 3084 287 
Q 2609 -91 1734 -91 
Q 1441 -91 1130 -33 
Q 819 25 488 141 
L 488 750 
Q 750 597 1062 519 
Q 1375 441 1716 441 
Q 2309 441 2620 675 
Q 2931 909 2931 1356 
Q 2931 1769 2642 2001 
Q 2353 2234 1838 2234 
L 1294 2234 
L 1294 2753 
L 1863 2753 
Q 2328 2753 2575 2939 
Q 2822 3125 2822 3475 
Q 2822 3834 2567 4026 
Q 2313 4219 1838 4219 
Q 1578 4219 1281 4162 
Q 984 4106 628 3988 
L 628 4550 
Q 988 4650 1302 4700 
Q 1616 4750 1894 4750 
Q 2613 4750 3031 4423 
Q 3450 4097 3450 3541 
Q 3450 3153 3228 2886 
Q 3006 2619 2597 2516 
z
" transform="scale(0.015625)"/>
       </defs>
       <use xlink:href="#DejaVuSans-33"/>
       <use xlink:href="#DejaVuSans-30" transform="translate(63.623047 0)"/>
       <use xlink:href="#DejaVuSans-30" transform="translate(127.246094 0)"/>
       <use xlink:href="#DejaVuSans-30" transform="translate(190.869141 0)"/>
      </g>
     </g>
    </g>
    <g id="xtick_5">
     <g id="line2d_9">
      <path d="M 380.236184 318.04 
L 380.236184 10.8 
" clip-path="url(#p8f9feafad5)" style="fill: none; stroke: #b0b0b0; stroke-width: 0.8; stroke-linecap: square"/>
     </g>
     <g id="line2d_10">
      <g>
       <use xlink:href="#md63396f380" x="380.236184" y="318.04" style="stroke: #000000; stroke-width: 0.8"/>
      </g>
     </g>
     <g id="text_5">
      <!-- 4000 -->
      <g transform="translate(367.511184 332.638438) scale(0.1 -0.1)">
       <defs>
        <path id="DejaVuSans-34" d="M 2419 4116 
L 825 1625 
L 2419 1625 
L 2419 4116 
z
M 2253 4666 
L 3047 4666 
L 3047 1625 
L 3713 1625 
L 3713 1100 
L 3047 1100 
L 3047 0 
L 2419 0 
L 2419 1100 
L 313 1100 
L 313 1709 
L 2253 4666 
z
" transform="scale(0.015625)"/>
       </defs>
       <use xlink:href="#DejaVuSans-34"/>
       <use xlink:href="#DejaVuSans-30" transform="translate(63.623047 0)"/>
       <use xlink:href="#DejaVuSans-30" transform="translate(127.246094 0)"/>
       <use xlink:href="#DejaVuSans-30" transform="translate(190.869141 0)"/>
      </g>
     </g>
    </g>
    <g id="xtick_6">
     <g id="line2d_11">
      <path d="M 456.594326 318.04 
L 456.594326 10.8 
" clip-path="url(#p8f9feafad5)" style="fill: none; stroke: #b0b0b0; stroke-width: 0.8; stroke-linecap: square"/>
     </g>
     <g id="line2d_12">
      <g>
       <use xlink:href="#md63396f380" x="456.594326" y="318.04" style="stroke: #000000; stroke-width: 0.8"/>
      </g>
     </g>
     <g id="text_6">
      <!-- 5000 -->
      <g transform="translate(443.869326 332.638438) scale(0.1 -0.1)">
       <defs>
        <path id="DejaVuSans-35" d="M 691 4666 
L 3169 4666 
L 3169 4134 
L 1269 4134 
L 1269 2991 
Q 1406 3038 1543 3061 
Q 1681 3084 1819 3084 
Q 2600 3084 3056 2656 
Q 3513 2228 3513 1497 
Q 3513 744 3044 326 
Q 2575 -91 1722 -91 
Q 1428 -91 1123 -41 
Q 819 9 494 109 
L 494 744 
Q 775 591 1075 516 
Q 1375 441 1709 441 
Q 2250 441 2565 725 
Q 2881 1009 2881 1497 
Q 2881 1984 2565 2268 
Q 2250 2553 1709 2553 
Q 1456 2553 1204 2497 
Q 953 2441 691 2322 
L 691 4666 
z
" transform="scale(0.015625)"/>
       </defs>
       <use xlink:href="#DejaVuSans-35"/>
       <use xlink:href="#DejaVuSans-30" transform="translate(63.623047 0)"/>
       <use xlink:href="#DejaVuSans-30" transform="translate(127.246094 0)"/>
       <use xlink:href="#DejaVuSans-30" transform="translate(190.869141 0)"/>
      </g>
     </g>
    </g>
    <g id="text_7">
     <!-- Time (s) -->
     <g transform="translate(266.051094 346.316563) scale(0.1 -0.1)">
      <defs>
       <path id="DejaVuSans-54" d="M -19 4666 
L 3928 4666 
L 3928 4134 
L 2272 4134 
L 2272 0 
L 1638 0 
L 1638 4134 
L -19 4134 
L -19 4666 
z
" transform="scale(0.015625)"/>
       <path id="DejaVuSans-69" d="M 603 3500 
L 1178 3500 
L 1178 0 
L 603 0 
L 603 3500 
z
M 603 4863 
L 1178 4863 
L 1178 4134 
L 603 4134 
L 603 4863 
z
" transform="scale(0.015625)"/>
       <path id="DejaVuSans-6d" d="M 3328 2828 
Q 3544 3216 3844 3400 
Q 4144 3584 4550 3584 
Q 5097 3584 5394 3201 
Q 5691 2819 5691 2113 
L 5691 0 
L 5113 0 
L 5113 2094 
Q 5113 2597 4934 2840 
Q 4756 3084 4391 3084 
Q 3944 3084 3684 2787 
Q 3425 2491 3425 1978 
L 3425 0 
L 2847 0 
L 2847 2094 
Q 2847 2600 2669 2842 
Q 2491 3084 2119 3084 
Q 1678 3084 1418 2786 
Q 1159 2488 1159 1978 
L 1159 0 
L 581 0 
L 581 3500 
L 1159 3500 
L 1159 2956 
Q 1356 3278 1631 3431 
Q 1906 3584 2284 3584 
Q 2666 3584 2933 3390 
Q 3200 3197 3328 2828 
z
" transform="scale(0.015625)"/>
       <path id="DejaVuSans-65" d="M 3597 1894 
L 3597 1613 
L 953 1613 
Q 991 1019 1311 708 
Q 1631 397 2203 397 
Q 2534 397 2845 478 
Q 3156 559 3463 722 
L 3463 178 
Q 3153 47 2828 -22 
Q 2503 -91 2169 -91 
Q 1331 -91 842 396 
Q 353 884 353 1716 
Q 353 2575 817 3079 
Q 1281 3584 2069 3584 
Q 2775 3584 3186 3129 
Q 3597 2675 3597 1894 
z
M 3022 2063 
Q 3016 2534 2758 2815 
Q 2500 3097 2075 3097 
Q 1594 3097 1305 2825 
Q 1016 2553 972 2059 
L 3022 2063 
z
" transform="scale(0.015625)"/>
       <path id="DejaVuSans-20" transform="scale(0.015625)"/>
       <path id="DejaVuSans-28" d="M 1984 4856 
Q 1566 4138 1362 3434 
Q 1159 2731 1159 2009 
Q 1159 1288 1364 580 
Q 1569 -128 1984 -844 
L 1484 -844 
Q 1016 -109 783 600 
Q 550 1309 550 2009 
Q 550 2706 781 3412 
Q 1013 4119 1484 4856 
L 1984 4856 
z
" transform="scale(0.015625)"/>
       <path id="DejaVuSans-73" d="M 2834 3397 
L 2834 2853 
Q 2591 2978 2328 3040 
Q 2066 3103 1784 3103 
Q 1356 3103 1142 2972 
Q 928 2841 928 2578 
Q 928 2378 1081 2264 
Q 1234 2150 1697 2047 
L 1894 2003 
Q 2506 1872 2764 1633 
Q 3022 1394 3022 966 
Q 3022 478 2636 193 
Q 2250 -91 1575 -91 
Q 1294 -91 989 -36 
Q 684 19 347 128 
L 347 722 
Q 666 556 975 473 
Q 1284 391 1588 391 
Q 1994 391 2212 530 
Q 2431 669 2431 922 
Q 2431 1156 2273 1281 
Q 2116 1406 1581 1522 
L 1381 1569 
Q 847 1681 609 1914 
Q 372 2147 372 2553 
Q 372 3047 722 3315 
Q 1072 3584 1716 3584 
Q 2034 3584 2315 3537 
Q 2597 3491 2834 3397 
z
" transform="scale(0.015625)"/>
       <path id="DejaVuSans-29" d="M 513 4856 
L 1013 4856 
Q 1481 4119 1714 3412 
Q 1947 2706 1947 2009 
Q 1947 1309 1714 600 
Q 1481 -109 1013 -844 
L 513 -844 
Q 928 -128 1133 580 
Q 1338 1288 1338 2009 
Q 1338 2731 1133 3434 
Q 928 4138 513 4856 
z
" transform="scale(0.015625)"/>
      </defs>
      <use xlink:href="#DejaVuSans-54"/>
      <use xlink:href="#DejaVuSans-69" transform="translate(57.958984 0)"/>
      <use xlink:href="#DejaVuSans-6d" transform="translate(85.742188 0)"/>
      <use xlink:href="#DejaVuSans-65" transform="translate(183.154297 0)"/>
      <use xlink:href="#DejaVuSans-20" transform="translate(244.677734 0)"/>
      <use xlink:href="#DejaVuSans-28" transform="translate(276.464844 0)"/>
      <use xlink:href="#DejaVuSans-73" transform="translate(315.478516 0)"/>
      <use xlink:href="#DejaVuSans-29" transform="translate(367.578125 0)"/>
     </g>
    </g>
   </g>
   <g id="matplotlib.axis_2">
    <g id="ytick_1">
     <g id="line2d_13">
      <path d="M 54.02 297.528239 
L 518.74 297.528239 
" clip-path="url(#p8f9feafad5)" style="fill: none; stroke: #b0b0b0; stroke-width: 0.8; stroke-linecap: square"/>
     </g>
     <g id="line2d_14">
      <defs>
       <path id="m5263c53c47" d="M 0 0 
L -3.5 0 
" style="stroke: #000000; stroke-width: 0.8"/>
      </defs>
      <g>
       <use xlink:href="#m5263c53c47" x="54.02" y="297.528239" style="stroke: #000000; stroke-width: 0.8"/>
      </g>
     </g>
     <g id="text_8">
      <!-- 24.0 -->
      <g style="fill: #1f77b4" transform="translate(24.754375 301.327457) scale(0.1 -0.1)">
       <defs>
        <path id="DejaVuSans-2e" d="M 684 794 
L 1344 794 
L 1344 0 
L 684 0 
L 684 794 
z
" transform="scale(0.015625)"/>
       </defs>
       <use xlink:href="#DejaVuSans-32"/>
       <use xlink:href="#DejaVuSans-34" transform="translate(63.623047 0)"/>
       <use xlink:href="#DejaVuSans-2e" transform="translate(127.246094 0)"/>
       <use xlink:href="#DejaVuSans-30" transform="translate(159.033203 0)"/>
      </g>
     </g>
    </g>
    <g id="ytick_2">
     <g id="line2d_15">
      <path d="M 54.02 242.975682 
L 518.74 242.975682 
" clip-path="url(#p8f9feafad5)" style="fill: none; stroke: #b0b0b0; stroke-width: 0.8; stroke-linecap: square"/>
     </g>
     <g id="line2d_16">
      <g>
       <use xlink:href="#m5263c53c47" x="54.02" y="242.975682" style="stroke: #000000; stroke-width: 0.8"/>
      </g>
     </g>
     <g id="text_9">
      <!-- 24.5 -->
      <g style="fill: #1f77b4" transform="translate(24.754375 246.774901) scale(0.1 -0.1)">
       <use xlink:href="#DejaVuSans-32"/>
       <use xlink:href="#DejaVuSans-34" transform="translate(63.623047 0)"/>
       <use xlink:href="#DejaVuSans-2e" transform="translate(127.246094 0)"/>
       <use xlink:href="#DejaVuSans-35" transform="translate(159.033203 0)"/>
      </g>
     </g>
    </g>
    <g id="ytick_3">
     <g id="line2d_17">
      <path d="M 54.02 188.423125 
L 518.74 188.423125 
" clip-path="url(#p8f9feafad5)" style="fill: none; stroke: #b0b0b0; stroke-width: 0.8; stroke-linecap: square"/>
     </g>
     <g id="line2d_18">
      <g>
       <use xlink:href="#m5263c53c47" x="54.02" y="188.423125" style="stroke: #000000; stroke-width: 0.8"/>
      </g>
     </g>
     <g id="text_10">
      <!-- 25.0 -->
      <g style="fill: #1f77b4" transform="translate(24.754375 192.222344) scale(0.1 -0.1)">
       <use xlink:href="#DejaVuSans-32"/>
       <use xlink:href="#DejaVuSans-35" transform="translate(63.623047 0)"/>
       <use xlink:href="#DejaVuSans-2e" transform="translate(127.246094 0)"/>
       <use xlink:href="#DejaVuSans-30" transform="translate(159.033203 0)"/>
      </g>
     </g>
    </g>
    <g id="ytick_4">
     <g id="line2d_19">
      <path d="M 54.02 133.870568 
L 518.74 133.870568 
" clip-path="url(#p8f9feafad5)" style="fill: none; stroke: #b0b0b0; stroke-width: 0.8; stroke-linecap: square"/>
     </g>
     <g id="line2d_20">
      <g>
       <use xlink:href="#m5263c53c47" x="54.02" y="133.870568" style="stroke: #000000; stroke-width: 0.8"/>
      </g>
     </g>
     <g id="text_11">
      <!-- 25.5 -->
      <g style="fill: #1f77b4" transform="translate(24.754375 137.669787) scale(0.1 -0.1)">
       <use xlink:href="#DejaVuSans-32"/>
       <use xlink:href="#DejaVuSans-35" transform="translate(63.623047 0)"/>
       <use xlink:href="#DejaVuSans-2e" transform="translate(127.246094 0)"/>
       <use xlink:href="#DejaVuSans-35" transform="translate(159.033203 0)"/>
      </g>
     </g>
    </g>
    <g id="ytick_5">
     <g id="line2d_21">
      <path d="M 54.02 79.318011 
L 518.74 79.318011 
" clip-path="url(#p8f9feafad5)" style="fill: none; stroke: #b0b0b0; stroke-width: 0.8; stroke-linecap: square"/>
     </g>
     <g id="line2d_22">
      <g>
       <use xlink:href="#m5263c53c47" x="54.02" y="79.318011" style="stroke: #000000; stroke-width: 0.8"/>
      </g>
     </g>
     <g id="text_12">
      <!-- 26.0 -->
      <g style="fill: #1f77b4" transform="translate(24.754375 83.11723) scale(0.1 -0.1)">
       <defs>
        <path id="DejaVuSans-36" d="M 2113 2584 
Q 1688 2584 1439 2293 
Q 1191 2003 1191 1497 
Q 1191 994 1439 701 
Q 1688 409 2113 409 
Q 2538 409 2786 701 
Q 3034 994 3034 1497 
Q 3034 2003 2786 2293 
Q 2538 2584 2113 2584 
z
M 3366 4563 
L 3366 3988 
Q 3128 4100 2886 4159 
Q 2644 4219 2406 4219 
Q 1781 4219 1451 3797 
Q 1122 3375 1075 2522 
Q 1259 2794 1537 2939 
Q 1816 3084 2150 3084 
Q 2853 3084 3261 2657 
Q 3669 2231 3669 1497 
Q 3669 778 3244 343 
Q 2819 -91 2113 -91 
Q 1303 -91 875 529 
Q 447 1150 447 2328 
Q 447 3434 972 4092 
Q 1497 4750 2381 4750 
Q 2619 4750 2861 4703 
Q 3103 4656 3366 4563 
z
" transform="scale(0.015625)"/>
       </defs>
       <use xlink:href="#DejaVuSans-32"/>
       <use xlink:href="#DejaVuSans-36" transform="translate(63.623047 0)"/>
       <use xlink:href="#DejaVuSans-2e" transform="translate(127.246094 0)"/>
       <use xlink:href="#DejaVuSans-30" transform="translate(159.033203 0)"/>
      </g>
     </g>
    </g>
    <g id="ytick_6">
     <g id="line2d_23">
      <path d="M 54.02 24.765455 
L 518.74 24.765455 
" clip-path="url(#p8f9feafad5)" style="fill: none; stroke: #b0b0b0; stroke-width: 0.8; stroke-linecap: square"/>
     </g>
     <g id="line2d_24">
      <g>
       <use xlink:href="#m5263c53c47" x="54.02" y="24.765455" style="stroke: #000000; stroke-width: 0.8"/>
      </g>
     </g>
     <g id="text_13">
      <!-- 26.5 -->
      <g style="fill: #1f77b4" transform="translate(24.754375 28.564673) scale(0.1 -0.1)">
       <use xlink:href="#DejaVuSans-32"/>
       <use xlink:href="#DejaVuSans-36" transform="translate(63.623047 0)"/>
       <use xlink:href="#DejaVuSans-2e" transform="translate(127.246094 0)"/>
       <use xlink:href="#DejaVuSans-35" transform="translate(159.033203 0)"/>
      </g>
     </g>
    </g>
    <g id="text_14">
     <!-- Temperature (°C) -->
     <g style="fill: #1f77b4" transform="translate(18.674688 207.571563) rotate(-90) scale(0.1 -0.1)">
      <defs>
       <path id="DejaVuSans-70" d="M 1159 525 
L 1159 -1331 
L 581 -1331 
L 581 3500 
L 1159 3500 
L 1159 2969 
Q 1341 3281 1617 3432 
Q 1894 3584 2278 3584 
Q 2916 3584 3314 3078 
Q 3713 2572 3713 1747 
Q 3713 922 3314 415 
Q 2916 -91 2278 -91 
Q 1894 -91 1617 61 
Q 1341 213 1159 525 
z
M 3116 1747 
Q 3116 2381 2855 2742 
Q 2594 3103 2138 3103 
Q 1681 3103 1420 2742 
Q 1159 2381 1159 1747 
Q 1159 1113 1420 752 
Q 1681 391 2138 391 
Q 2594 391 2855 752 
Q 3116 1113 3116 1747 
z
" transform="scale(0.015625)"/>
       <path id="DejaVuSans-72" d="M 2631 2963 
Q 2534 3019 2420 3045 
Q 2306 3072 2169 3072 
Q 1681 3072 1420 2755 
Q 1159 2438 1159 1844 
L 1159 0 
L 581 0 
L 581 3500 
L 1159 3500 
L 1159 2956 
Q 1341 3275 1631 3429 
Q 1922 3584 2338 3584 
Q 2397 3584 2469 3576 
Q 2541 3569 2628 3553 
L 2631 2963 
z
" transform="scale(0.015625)"/>
       <path id="DejaVuSans-61" d="M 2194 1759 
Q 1497 1759 1228 1600 
Q 959 1441 959 1056 
Q 959 750 1161 570 
Q 1363 391 1709 391 
Q 2188 391 2477 730 
Q 2766 1069 2766 1631 
L 2766 1759 
L 2194 1759 
z
M 3341 1997 
L 3341 0 
L 2766 0 
L 2766 531 
Q 2569 213 2275 61 
Q 1981 -91 1556 -91 
Q 1019 -91 701 211 
Q 384 513 384 1019 
Q 384 1609 779 1909 
Q 1175 2209 1959 2209 
L 2766 2209 
L 2766 2266 
Q 2766 2663 2505 2880 
Q 2244 3097 1772 3097 
Q 1472 3097 1187 3025 
Q 903 2953 641 2809 
L 641 3341 
Q 956 3463 1253 3523 
Q 1550 3584 1831 3584 
Q 2591 3584 2966 3190 
Q 3341 2797 3341 1997 
z
" transform="scale(0.015625)"/>
       <path id="DejaVuSans-74" d="M 1172 4494 
L 1172 3500 
L 2356 3500 
L 2356 3053 
L 1172 3053 
L 1172 1153 
Q 1172 725 1289 603 
Q 1406 481 1766 481 
L 2356 481 
L 2356 0 
L 1766 0 
Q 1100 0 847 248 
Q 594 497 594 1153 
L 594 3053 
L 172 3053 
L 172 3500 
L 594 3500 
L 594 4494 
L 1172 4494 
z
" transform="scale(0.015625)"/>
       <path id="DejaVuSans-75" d="M 544 1381 
L 544 3500 
L 1119 3500 
L 1119 1403 
Q 1119 906 1312 657 
Q 1506 409 1894 409 
Q 2359 409 2629 706 
Q 2900 1003 2900 1516 
L 2900 3500 
L 3475 3500 
L 3475 0 
L 2900 0 
L 2900 538 
Q 2691 219 2414 64 
Q 2138 -91 1772 -91 
Q 1169 -91 856 284 
Q 544 659 544 1381 
z
M 1991 3584 
L 1991 3584 
z
" transform="scale(0.015625)"/>
       <path id="DejaVuSans-b0" d="M 1600 4347 
Q 1350 4347 1178 4173 
Q 1006 4000 1006 3750 
Q 1006 3503 1178 3333 
Q 1350 3163 1600 3163 
Q 1850 3163 2022 3333 
Q 2194 3503 2194 3750 
Q 2194 3997 2020 4172 
Q 1847 4347 1600 4347 
z
M 1600 4750 
Q 1800 4750 1984 4673 
Q 2169 4597 2303 4453 
Q 2447 4313 2519 4134 
Q 2591 3956 2591 3750 
Q 2591 3338 2302 3052 
Q 2013 2766 1594 2766 
Q 1172 2766 890 3047 
Q 609 3328 609 3750 
Q 609 4169 896 4459 
Q 1184 4750 1600 4750 
z
" transform="scale(0.015625)"/>
       <path id="DejaVuSans-43" d="M 4122 4306 
L 4122 3641 
Q 3803 3938 3442 4084 
Q 3081 4231 2675 4231 
Q 1875 4231 1450 3742 
Q 1025 3253 1025 2328 
Q 1025 1406 1450 917 
Q 1875 428 2675 428 
Q 3081 428 3442 575 
Q 3803 722 4122 1019 
L 4122 359 
Q 3791 134 3420 21 
Q 3050 -91 2638 -91 
Q 1578 -91 968 557 
Q 359 1206 359 2328 
Q 359 3453 968 4101 
Q 1578 4750 2638 4750 
Q 3056 4750 3426 4639 
Q 3797 4528 4122 4306 
z
" transform="scale(0.015625)"/>
      </defs>
      <use xlink:href="#DejaVuSans-54"/>
      <use xlink:href="#DejaVuSans-65" transform="translate(44.083984 0)"/>
      <use xlink:href="#DejaVuSans-6d" transform="translate(105.607422 0)"/>
      <use xlink:href="#DejaVuSans-70" transform="translate(203.019531 0)"/>
      <use xlink:href="#DejaVuSans-65" transform="translate(266.496094 0)"/>
      <use xlink:href="#DejaVuSans-72" transform="translate(328.019531 0)"/>
      <use xlink:href="#DejaVuSans-61" transform="translate(369.132812 0)"/>
      <use xlink:href="#DejaVuSans-74" transform="translate(430.412109 0)"/>
      <use xlink:href="#DejaVuSans-75" transform="translate(469.621094 0)"/>
      <use xlink:href="#DejaVuSans-72" transform="translate(533 0)"/>
      <use xlink:href="#DejaVuSans-65" transform="translate(571.863281 0)"/>
      <use xlink:href="#DejaVuSans-20" transform="translate(633.386719 0)"/>
      <use xlink:href="#DejaVuSans-28" transform="translate(665.173828 0)"/>
      <use xlink:href="#DejaVuSans-b0" transform="translate(704.1875 0)"/>
      <use xlink:href="#DejaVuSans-43" transform="translate(754.1875 0)"/>
      <use xlink:href="#DejaVuSans-29" transform="translate(824.011719 0)"/>
     </g>
    </g>
   </g>
   <g id="line2d_25">
    <path d="M 75.143636 120.777955 
L 75.329721 100.047983 
L 75.515806 100.047983 
L 75.639812 106.59429 
L 75.701891 106.59429 
L 75.825896 100.047983 
L 76.321613 100.047983 
L 76.44539 106.59429 
L 76.569167 100.047983 
L 77.126428 100.047983 
L 77.188355 106.59429 
L 77.250205 100.047983 
L 77.312131 106.59429 
L 77.374058 100.047983 
L 77.497834 106.59429 
L 78.054867 106.59429 
L 78.178873 113.140597 
L 78.674055 113.140597 
L 78.735905 120.777955 
L 78.797832 113.140597 
L 78.921608 120.777955 
L 79.726041 120.777955 
L 79.787968 127.324261 
L 79.849818 120.777955 
L 79.973594 127.324261 
L 80.035521 120.777955 
L 80.159297 127.324261 
L 80.902033 127.324261 
L 80.963959 133.870568 
L 81.02581 127.324261 
L 81.149815 133.870568 
L 82.20203 133.870568 
L 82.325807 140.416875 
L 83.563954 140.416875 
L 83.687731 148.054233 
L 84.802865 148.054233 
L 84.926642 154.60054 
L 86.35011 154.60054 
L 86.412037 161.146847 
L 86.535737 154.60054 
L 86.659513 161.146847 
L 86.72144 161.146847 
L 86.78329 154.60054 
L 86.907066 161.146847 
L 88.269143 161.146847 
L 88.393225 167.693153 
L 88.455151 167.693153 
L 88.578928 161.146847 
L 88.702781 167.693153 
L 90.436034 167.693153 
L 90.559887 175.330511 
L 90.68374 175.330511 
L 90.74559 167.693153 
L 90.869443 175.330511 
L 90.93137 175.330511 
L 90.993296 167.693153 
L 91.117149 175.330511 
L 91.426858 175.330511 
L 91.488784 167.693153 
L 91.612637 175.330511 
L 93.594131 175.330511 
L 93.656057 181.876818 
L 93.77991 175.330511 
L 93.841837 181.876818 
L 93.965613 175.330511 
L 94.089466 181.876818 
L 94.523104 181.876818 
L 94.58503 175.330511 
L 94.708883 181.876818 
L 97.742821 181.876818 
L 97.804748 188.423125 
L 97.866598 181.876818 
L 97.928524 188.423125 
L 97.990451 181.876818 
L 98.114227 188.423125 
L 98.361857 188.423125 
L 98.423707 181.876818 
L 98.485862 188.423125 
L 98.547789 181.876818 
L 98.609715 188.423125 
L 98.733568 181.876818 
L 98.857421 188.423125 
L 103.069336 188.423125 
L 103.131263 194.969432 
L 103.255116 188.423125 
L 103.317042 194.969432 
L 103.440895 188.423125 
L 103.564748 194.969432 
L 103.626674 188.423125 
L 103.688601 194.969432 
L 103.750527 188.423125 
L 103.81253 194.969432 
L 103.936383 188.423125 
L 104.060236 188.423125 
L 104.122162 194.969432 
L 104.184089 188.423125 
L 104.308247 194.969432 
L 110.873826 194.969432 
L 110.935828 202.60679 
L 111.059681 194.969432 
L 111.555551 194.969432 
L 111.617478 202.60679 
L 111.741407 194.969432 
L 112.608683 194.969432 
L 112.732612 202.60679 
L 112.794538 202.60679 
L 112.856465 194.969432 
L 112.918697 202.60679 
L 113.042626 194.969432 
L 113.166479 194.969432 
L 113.290408 202.60679 
L 113.476264 202.60679 
L 113.600193 194.969432 
L 113.786049 194.969432 
L 113.847975 202.60679 
L 113.971905 194.969432 
L 114.095757 202.60679 
L 114.343845 202.60679 
L 114.467774 194.969432 
L 114.529701 202.60679 
L 114.65363 194.969432 
L 114.715556 194.969432 
L 114.839486 202.60679 
L 114.901412 202.60679 
L 114.963339 194.969432 
L 115.087268 202.60679 
L 115.582909 202.60679 
L 115.644835 194.969432 
L 115.76907 202.60679 
L 115.892923 202.60679 
L 116.016852 194.969432 
L 116.140781 202.60679 
L 116.946207 202.60679 
L 117.00821 194.969432 
L 117.132063 202.60679 
L 136.836663 202.60679 
L 136.898513 209.153097 
L 137.02229 202.60679 
L 164.826351 202.60679 
L 164.888278 194.969432 
L 165.01213 202.60679 
L 165.631777 202.60679 
L 165.693703 194.969432 
L 165.817556 202.60679 
L 165.941485 202.60679 
L 166.003412 194.969432 
L 166.127188 202.60679 
L 166.436897 202.60679 
L 166.56075 194.969432 
L 166.684526 202.60679 
L 166.746453 194.969432 
L 166.870306 202.60679 
L 167.057001 202.60679 
L 167.118928 194.969432 
L 167.242705 202.60679 
L 167.428331 202.60679 
L 167.490181 194.969432 
L 167.552108 202.60679 
L 167.613958 194.969432 
L 167.737734 202.60679 
L 167.799661 194.969432 
L 167.923437 202.60679 
L 167.985287 202.60679 
L 168.109064 194.969432 
L 168.232841 202.60679 
L 168.666249 202.60679 
L 168.728176 194.969432 
L 168.790026 202.60679 
L 168.913879 194.969432 
L 169.037655 202.60679 
L 169.099505 202.60679 
L 169.223358 194.969432 
L 169.285208 194.969432 
L 169.408985 202.60679 
L 169.656614 202.60679 
L 169.718694 194.969432 
L 169.842547 202.60679 
L 169.904397 202.60679 
L 169.966323 194.969432 
L 170.0901 202.60679 
L 170.152026 202.60679 
L 170.213876 194.969432 
L 170.275803 202.60679 
L 170.399579 194.969432 
L 170.461429 194.969432 
L 170.523356 202.60679 
L 170.647132 194.969432 
L 170.832759 194.969432 
L 170.894685 202.60679 
L 171.018462 194.969432 
L 171.080541 202.60679 
L 171.204318 194.969432 
L 171.328171 202.60679 
L 171.390021 194.969432 
L 171.451947 202.60679 
L 171.575724 194.969432 
L 171.637574 194.969432 
L 171.6995 202.60679 
L 171.76135 194.969432 
L 171.823277 202.60679 
L 171.947053 194.969432 
L 172.194606 194.969432 
L 172.318383 202.60679 
L 172.442159 202.60679 
L 172.504315 194.969432 
L 172.628092 202.60679 
L 172.751868 194.969432 
L 172.875645 194.969432 
L 172.999421 202.60679 
L 173.123274 202.60679 
L 173.247051 194.969432 
L 174.423272 194.969432 
L 174.485122 202.60679 
L 174.608975 194.969432 
L 175.228163 194.969432 
L 175.290013 202.60679 
L 175.413789 194.969432 
L 187.920795 194.969432 
L 187.982645 188.423125 
L 188.106498 194.969432 
L 188.53983 194.969432 
L 188.601757 188.423125 
L 188.725533 194.969432 
L 189.221785 194.969432 
L 189.283711 188.423125 
L 189.407564 194.969432 
L 189.65527 194.969432 
L 189.717197 188.423125 
L 189.841049 194.969432 
L 190.212608 194.969432 
L 190.336461 188.423125 
L 190.460543 194.969432 
L 190.52247 188.423125 
L 190.646322 194.969432 
L 190.708249 188.423125 
L 190.770175 194.969432 
L 190.894028 188.423125 
L 190.955955 188.423125 
L 191.017881 194.969432 
L 191.14181 188.423125 
L 191.203737 194.969432 
L 191.32759 188.423125 
L 191.389516 194.969432 
L 191.451443 188.423125 
L 191.575296 194.969432 
L 191.637222 194.969432 
L 191.699149 188.423125 
L 191.761304 194.969432 
L 191.885157 188.423125 
L 192.256792 188.423125 
L 192.318718 194.969432 
L 192.442571 188.423125 
L 192.628427 188.423125 
L 192.690354 194.969432 
L 192.814206 188.423125 
L 206.257897 188.423125 
L 206.319824 181.876818 
L 206.443753 188.423125 
L 207.992831 188.423125 
L 208.054757 181.876818 
L 208.116684 188.423125 
L 208.178686 181.876818 
L 208.302539 188.423125 
L 209.293668 188.423125 
L 209.417597 181.876818 
L 209.479524 188.423125 
L 209.541527 181.876818 
L 209.665456 188.423125 
L 210.099323 188.423125 
L 210.161249 181.876818 
L 210.285179 188.423125 
L 210.718816 188.423125 
L 210.780819 181.876818 
L 210.904672 188.423125 
L 210.966675 181.876818 
L 211.090833 188.423125 
L 211.71048 188.423125 
L 211.772482 181.876818 
L 211.896412 188.423125 
L 212.082267 188.423125 
L 212.206273 181.876818 
L 212.330202 181.876818 
L 212.454437 188.423125 
L 212.516363 188.423125 
L 212.640293 181.876818 
L 212.702296 188.423125 
L 212.826225 181.876818 
L 212.950154 188.423125 
L 213.012157 181.876818 
L 213.074083 188.423125 
L 213.136086 181.876818 
L 213.198013 188.423125 
L 213.260015 181.876818 
L 213.383945 188.423125 
L 213.507874 181.876818 
L 213.5698 188.423125 
L 213.69373 181.876818 
L 213.755732 188.423125 
L 213.817735 181.876818 
L 213.879967 188.423125 
L 213.941894 181.876818 
L 214.003896 188.423125 
L 214.127826 181.876818 
L 214.313758 181.876818 
L 214.437687 188.423125 
L 214.49969 181.876818 
L 214.561693 188.423125 
L 214.685622 181.876818 
L 214.809551 188.423125 
L 214.93348 181.876818 
L 214.995483 181.876818 
L 215.05741 188.423125 
L 215.119413 181.876818 
L 215.181415 188.423125 
L 215.305574 181.876818 
L 215.553509 181.876818 
L 215.615435 188.423125 
L 215.677438 181.876818 
L 215.739441 188.423125 
L 215.86337 181.876818 
L 216.173231 181.876818 
L 216.235234 188.423125 
L 216.359163 181.876818 
L 216.421166 188.423125 
L 216.483169 181.876818 
L 216.545095 188.423125 
L 216.66933 181.876818 
L 216.793259 181.876818 
L 216.855262 188.423125 
L 216.979191 181.876818 
L 217.971007 181.876818 
L 218.03301 188.423125 
L 218.156939 181.876818 
L 218.528804 181.876818 
L 218.59073 188.423125 
L 218.652733 181.876818 
L 218.714659 188.423125 
L 218.838665 181.876818 
L 221.751957 181.876818 
L 221.81396 188.423125 
L 221.937889 181.876818 
L 227.571517 181.876818 
L 227.633672 188.423125 
L 227.757449 181.876818 
L 228.376408 181.876818 
L 228.438258 188.423125 
L 228.562034 181.876818 
L 228.933364 181.876818 
L 228.995443 188.423125 
L 229.11922 181.876818 
L 229.490549 181.876818 
L 229.552476 188.423125 
L 229.676252 181.876818 
L 231.09995 181.876818 
L 231.1618 175.330511 
L 231.409353 106.59429 
L 231.718833 79.318011 
L 231.780912 79.318011 
L 231.966615 66.225398 
L 232.028465 66.225398 
L 232.214168 52.041733 
L 232.461721 52.041733 
L 232.585498 45.495426 
L 232.709274 45.495426 
L 232.833051 38.949119 
L 233.018677 38.949119 
L 233.142683 31.311761 
L 233.514165 31.311761 
L 233.576092 24.765455 
L 233.699868 31.311761 
L 235.619359 31.311761 
L 235.743212 38.949119 
L 236.548256 38.949119 
L 236.610183 45.495426 
L 236.672033 38.949119 
L 236.795886 45.495426 
L 236.857812 38.949119 
L 236.981589 45.495426 
L 237.60093 45.495426 
L 237.66278 52.041733 
L 237.724706 45.495426 
L 237.848559 52.041733 
L 238.405668 52.041733 
L 238.467595 58.58804 
L 238.529521 52.041733 
L 238.653527 58.58804 
L 238.715453 58.58804 
L 238.777379 52.041733 
L 238.901232 58.58804 
L 239.458418 58.58804 
L 239.582271 66.225398 
L 240.510709 66.225398 
L 240.634486 72.771705 
L 241.253598 72.771705 
L 241.315524 79.318011 
L 241.439606 72.771705 
L 241.563383 79.318011 
L 242.4302 79.318011 
L 242.553977 85.864318 
L 243.544724 85.864318 
L 243.668577 93.501676 
L 243.730503 85.864318 
L 243.85428 93.501676 
L 244.659553 93.501676 
L 244.721479 100.047983 
L 244.783482 93.501676 
L 244.907335 100.047983 
L 244.969261 100.047983 
L 245.031188 93.501676 
L 245.155041 100.047983 
L 246.146246 100.047983 
L 246.270175 106.59429 
L 247.385233 106.59429 
L 247.509162 113.140597 
L 248.748073 113.140597 
L 248.809999 120.777955 
L 248.933852 113.140597 
L 248.995779 120.777955 
L 249.119632 113.140597 
L 249.243561 120.777955 
L 250.544475 120.777955 
L 250.668328 127.324261 
L 250.792257 120.777955 
L 250.91611 127.324261 
L 252.588888 127.324261 
L 252.712817 133.870568 
L 254.385289 133.870568 
L 254.447216 140.416875 
L 254.571069 133.870568 
L 254.694922 140.416875 
L 256.552868 140.416875 
L 256.615023 148.054233 
L 256.7388 140.416875 
L 256.862576 140.416875 
L 256.986353 148.054233 
L 257.048279 148.054233 
L 257.110206 140.416875 
L 257.233982 148.054233 
L 259.153626 148.054233 
L 259.277403 154.60054 
L 259.339482 148.054233 
L 259.401408 154.60054 
L 259.463258 148.054233 
L 259.587035 154.60054 
L 259.648961 148.054233 
L 259.710812 154.60054 
L 259.772662 148.054233 
L 259.896515 154.60054 
L 260.020291 154.60054 
L 260.082141 148.054233 
L 260.205918 154.60054 
L 262.558359 154.60054 
L 262.682136 161.146847 
L 262.805989 154.60054 
L 262.929765 154.60054 
L 262.991615 161.146847 
L 263.053542 154.60054 
L 263.115468 161.146847 
L 263.239245 154.60054 
L 263.363021 161.146847 
L 265.96294 161.146847 
L 266.02479 167.693153 
L 266.148567 161.146847 
L 266.272649 161.146847 
L 266.334575 167.693153 
L 266.396425 161.146847 
L 266.458352 167.693153 
L 266.582204 161.146847 
L 266.705981 167.693153 
L 266.767907 161.146847 
L 266.829834 167.693153 
L 266.89176 161.146847 
L 267.015537 167.693153 
L 267.13939 167.693153 
L 267.263243 161.146847 
L 267.387019 161.146847 
L 267.510872 167.693153 
L 270.7312 167.693153 
L 270.793127 175.330511 
L 270.855053 167.693153 
L 270.916903 175.330511 
L 270.97883 167.693153 
L 271.102683 175.330511 
L 271.226459 175.330511 
L 271.350312 167.693153 
L 271.412239 175.330511 
L 271.536015 167.693153 
L 271.597942 167.693153 
L 271.721795 175.330511 
L 271.783492 167.693153 
L 271.907345 175.330511 
L 272.031198 175.330511 
L 272.093048 167.693153 
L 272.216901 175.330511 
L 275.684706 175.330511 
L 275.746556 181.876818 
L 275.870638 175.330511 
L 276.365897 175.330511 
L 276.427823 181.876818 
L 276.551676 175.330511 
L 276.799306 175.330511 
L 276.861156 181.876818 
L 276.985009 175.330511 
L 277.046935 181.876818 
L 277.170712 175.330511 
L 277.294794 181.876818 
L 277.35672 181.876818 
L 277.418647 175.330511 
L 277.542499 181.876818 
L 277.666429 175.330511 
L 277.728355 175.330511 
L 277.852208 181.876818 
L 278.595402 181.876818 
L 278.657557 175.330511 
L 278.781487 181.876818 
L 283.799057 181.876818 
L 283.860983 188.423125 
L 283.92291 181.876818 
L 283.984836 188.423125 
L 284.046762 181.876818 
L 284.170921 188.423125 
L 284.294774 181.876818 
L 284.418627 188.423125 
L 284.542479 181.876818 
L 284.666332 188.423125 
L 284.728259 188.423125 
L 284.852188 181.876818 
L 284.976041 188.423125 
L 292.410881 188.423125 
L 292.472883 194.969432 
L 292.596813 188.423125 
L 292.968524 188.423125 
L 293.030451 194.969432 
L 293.15438 188.423125 
L 293.216306 194.969432 
L 293.278309 188.423125 
L 293.340236 194.969432 
L 293.402238 188.423125 
L 293.464165 194.969432 
L 293.526091 188.423125 
L 293.650021 194.969432 
L 293.77395 194.969432 
L 293.836182 188.423125 
L 293.898108 194.969432 
L 293.960722 188.423125 
L 294.022648 194.969432 
L 294.146578 188.423125 
L 294.208504 188.423125 
L 294.270507 194.969432 
L 294.332433 188.423125 
L 294.456363 194.969432 
L 294.766071 194.969432 
L 294.827998 188.423125 
L 294.951927 194.969432 
L 295.757582 194.969432 
L 295.819508 188.423125 
L 295.943437 194.969432 
L 309.888649 194.969432 
L 309.950651 202.60679 
L 310.012654 194.969432 
L 310.074581 202.60679 
L 310.19851 194.969432 
L 310.260513 194.969432 
L 310.322439 202.60679 
L 310.446521 194.969432 
L 310.508448 202.60679 
L 310.632224 194.969432 
L 310.694074 194.969432 
L 310.756001 202.60679 
L 310.879777 194.969432 
L 310.941627 202.60679 
L 311.065404 194.969432 
L 311.18918 194.969432 
L 311.251107 202.60679 
L 311.374883 194.969432 
L 311.436734 202.60679 
L 311.56051 194.969432 
L 311.622437 194.969432 
L 311.684287 202.60679 
L 311.808292 194.969432 
L 312.117772 194.969432 
L 312.179698 202.60679 
L 312.241548 194.969432 
L 312.303475 202.60679 
L 312.427251 194.969432 
L 312.551028 194.969432 
L 312.612954 202.60679 
L 312.736731 194.969432 
L 312.798657 202.60679 
L 312.922434 194.969432 
L 312.984284 194.969432 
L 313.04621 202.60679 
L 313.170216 194.969432 
L 313.355919 194.969432 
L 313.479696 202.60679 
L 313.603472 202.60679 
L 313.727325 194.969432 
L 313.789175 194.969432 
L 313.912952 202.60679 
L 313.974878 194.969432 
L 314.098655 202.60679 
L 314.222431 202.60679 
L 314.346284 194.969432 
L 314.594066 194.969432 
L 314.717843 202.60679 
L 314.841619 202.60679 
L 314.903546 194.969432 
L 314.965396 202.60679 
L 315.089249 194.969432 
L 315.274876 194.969432 
L 315.336802 202.60679 
L 315.398729 194.969432 
L 315.522505 202.60679 
L 315.646282 194.969432 
L 315.770058 194.969432 
L 315.831985 202.60679 
L 315.95599 194.969432 
L 316.203543 194.969432 
L 316.26547 202.60679 
L 316.389246 194.969432 
L 316.636876 194.969432 
L 316.698726 202.60679 
L 316.822502 194.969432 
L 317.008205 194.969432 
L 317.131982 202.60679 
L 317.193908 202.60679 
L 317.256064 194.969432 
L 317.379841 202.60679 
L 317.503617 194.969432 
L 317.565467 202.60679 
L 317.689244 194.969432 
L 317.936797 194.969432 
L 317.998723 202.60679 
L 318.1225 194.969432 
L 318.18435 202.60679 
L 318.308126 194.969432 
L 318.803462 194.969432 
L 318.927315 202.60679 
L 319.051091 194.969432 
L 319.236718 194.969432 
L 319.360571 202.60679 
L 319.484347 194.969432 
L 319.546197 194.969432 
L 319.669974 202.60679 
L 319.79375 194.969432 
L 319.855677 202.60679 
L 319.979453 194.969432 
L 320.103459 202.60679 
L 320.227236 194.969432 
L 320.351012 194.969432 
L 320.474789 202.60679 
L 320.598565 202.60679 
L 320.660492 194.969432 
L 320.722342 202.60679 
L 320.846118 194.969432 
L 320.908045 202.60679 
L 321.031821 194.969432 
L 321.155598 194.969432 
L 321.279374 202.60679 
L 321.40338 202.60679 
L 321.527157 194.969432 
L 321.65101 202.60679 
L 321.774786 194.969432 
L 322.146268 194.969432 
L 322.208119 202.60679 
L 322.270045 194.969432 
L 322.393898 202.60679 
L 322.517674 194.969432 
L 322.579601 194.969432 
L 322.641527 202.60679 
L 322.765533 194.969432 
L 322.827459 194.969432 
L 322.889386 202.60679 
L 323.013239 194.969432 
L 323.260868 194.969432 
L 323.322795 202.60679 
L 323.384645 194.969432 
L 323.508498 202.60679 
L 323.941907 202.60679 
L 324.065759 194.969432 
L 324.127915 202.60679 
L 324.251692 194.969432 
L 324.313618 194.969432 
L 324.437471 202.60679 
L 324.561247 194.969432 
L 324.6851 202.60679 
L 324.808953 194.969432 
L 324.994733 194.969432 
L 325.118509 202.60679 
L 325.180436 202.60679 
L 325.242362 194.969432 
L 325.304289 202.60679 
L 325.366215 194.969432 
L 325.489992 202.60679 
L 325.614074 194.969432 
L 325.676 202.60679 
L 325.799853 194.969432 
L 325.923706 202.60679 
L 326.047482 194.969432 
L 326.357115 194.969432 
L 326.480891 202.60679 
L 326.604744 194.969432 
L 326.85245 194.969432 
L 326.976532 202.60679 
L 327.038382 194.969432 
L 327.162235 202.60679 
L 327.286088 202.60679 
L 327.409941 194.969432 
L 327.533717 202.60679 
L 327.595644 202.60679 
L 327.65757 194.969432 
L 327.719497 202.60679 
L 327.843349 194.969432 
L 328.400764 194.969432 
L 328.46269 202.60679 
L 328.524617 194.969432 
L 328.586543 202.60679 
L 328.64847 194.969432 
L 328.710396 202.60679 
L 328.834249 194.969432 
L 328.958713 202.60679 
L 329.144416 202.60679 
L 329.206342 194.969432 
L 329.330119 202.60679 
L 329.453972 194.969432 
L 330.259016 194.969432 
L 330.382869 202.60679 
L 330.506722 194.969432 
L 330.568572 202.60679 
L 330.692425 194.969432 
L 330.754351 194.969432 
L 330.816277 202.60679 
L 330.94013 194.969432 
L 331.00198 202.60679 
L 331.126062 194.969432 
L 331.497468 194.969432 
L 331.621321 202.60679 
L 331.683248 194.969432 
L 331.745098 202.60679 
L 331.807024 194.969432 
L 331.868951 202.60679 
L 331.992804 194.969432 
L 332.054654 194.969432 
L 332.178507 202.60679 
L 332.240433 202.60679 
L 332.30236 194.969432 
L 332.426365 202.60679 
L 332.550294 194.969432 
L 333.045706 194.969432 
L 333.107633 202.60679 
L 333.231562 194.969432 
L 333.417341 194.969432 
L 333.479268 202.60679 
L 333.541194 194.969432 
L 333.603121 202.60679 
L 333.726973 194.969432 
L 334.036835 194.969432 
L 334.098838 202.60679 
L 334.160764 194.969432 
L 334.222691 202.60679 
L 334.284617 194.969432 
L 334.40847 202.60679 
L 334.470396 202.60679 
L 334.594326 194.969432 
L 334.656252 194.969432 
L 334.718178 202.60679 
L 334.780105 194.969432 
L 334.842031 202.60679 
L 334.965884 194.969432 
L 335.027811 194.969432 
L 335.15174 202.60679 
L 335.213437 194.969432 
L 335.337367 202.60679 
L 335.399293 202.60679 
L 335.46122 194.969432 
L 335.523146 202.60679 
L 335.646999 194.969432 
L 335.894781 194.969432 
L 335.956708 202.60679 
L 336.018634 194.969432 
L 336.08056 202.60679 
L 336.204413 194.969432 
L 336.328343 194.969432 
L 336.390269 202.60679 
L 336.452196 194.969432 
L 336.576354 202.60679 
L 336.700207 194.969432 
L 336.762133 194.969432 
L 336.82406 202.60679 
L 336.947989 194.969432 
L 337.009915 194.969432 
L 337.071842 202.60679 
L 337.195695 194.969432 
L 337.381551 194.969432 
L 337.443477 202.60679 
L 337.56733 194.969432 
L 337.629256 194.969432 
L 337.691259 202.60679 
L 337.815112 194.969432 
L 337.877038 202.60679 
L 338.001197 194.969432 
L 338.12505 194.969432 
L 338.186976 202.60679 
L 338.310829 194.969432 
L 338.434758 194.969432 
L 338.558611 202.60679 
L 338.620538 202.60679 
L 338.744467 194.969432 
L 339.054099 194.969432 
L 339.116102 202.60679 
L 339.239955 194.969432 
L 339.364037 194.969432 
L 339.42604 202.60679 
L 339.549893 194.969432 
L 339.797675 194.969432 
L 339.859601 202.60679 
L 339.921528 194.969432 
L 339.983454 202.60679 
L 340.107307 194.969432 
L 340.16931 202.60679 
L 340.293163 194.969432 
L 340.478942 194.969432 
L 340.540945 202.60679 
L 340.664798 194.969432 
L 341.036662 194.969432 
L 341.098589 202.60679 
L 341.160515 194.969432 
L 341.284368 202.60679 
L 341.346294 194.969432 
L 341.408221 202.60679 
L 341.532074 194.969432 
L 341.594 194.969432 
L 341.717853 202.60679 
L 341.841782 194.969432 
L 341.965635 194.969432 
L 342.089717 202.60679 
L 342.151644 194.969432 
L 342.21357 202.60679 
L 342.337423 194.969432 
L 342.461352 202.60679 
L 342.585205 194.969432 
L 342.647132 202.60679 
L 342.770985 194.969432 
L 343.266396 194.969432 
L 343.328323 202.60679 
L 343.390249 194.969432 
L 343.515018 202.60679 
L 343.638795 194.969432 
L 343.700721 194.969432 
L 343.824498 202.60679 
L 343.948274 194.969432 
L 344.257678 194.969432 
L 344.319604 202.60679 
L 344.443381 194.969432 
L 344.505231 194.969432 
L 344.629007 202.60679 
L 344.752784 194.969432 
L 344.814939 194.969432 
L 344.876789 202.60679 
L 345.000642 194.969432 
L 345.186269 194.969432 
L 345.310046 202.60679 
L 345.433822 194.969432 
L 345.495749 202.60679 
L 345.619525 194.969432 
L 345.867078 194.969432 
L 345.929005 202.60679 
L 346.052781 194.969432 
L 346.176558 202.60679 
L 346.238713 202.60679 
L 346.36249 194.969432 
L 346.42434 202.60679 
L 346.486266 194.969432 
L 346.548116 202.60679 
L 346.671893 194.969432 
L 346.79567 194.969432 
L 346.919522 202.60679 
L 347.043299 194.969432 
L 347.229002 194.969432 
L 347.290852 202.60679 
L 347.352779 194.969432 
L 347.414629 202.60679 
L 347.476555 194.969432 
L 347.538405 202.60679 
L 347.600561 194.969432 
L 347.724337 202.60679 
L 347.786264 202.60679 
L 347.91004 194.969432 
L 347.97189 202.60679 
L 348.095743 194.969432 
L 348.405223 194.969432 
L 348.467073 202.60679 
L 348.528999 194.969432 
L 348.590849 202.60679 
L 348.714702 194.969432 
L 348.776552 194.969432 
L 348.838479 202.60679 
L 348.962485 194.969432 
L 349.024411 194.969432 
L 349.086261 202.60679 
L 349.210038 194.969432 
L 349.333891 194.969432 
L 349.395741 202.60679 
L 349.519517 194.969432 
L 349.64337 194.969432 
L 349.70522 202.60679 
L 349.828997 194.969432 
L 349.95285 202.60679 
L 350.076626 194.969432 
L 350.200403 194.969432 
L 350.324408 202.60679 
L 350.510111 202.60679 
L 350.571961 194.969432 
L 350.633888 202.60679 
L 350.695814 194.969432 
L 350.757664 202.60679 
L 350.881441 194.969432 
L 350.943367 194.969432 
L 351.005294 202.60679 
L 351.12907 194.969432 
L 351.314773 194.969432 
L 351.376624 202.60679 
L 351.43855 194.969432 
L 351.5004 202.60679 
L 351.562327 194.969432 
L 351.686103 202.60679 
L 351.748259 194.969432 
L 351.872035 202.60679 
L 351.933962 194.969432 
L 352.057738 202.60679 
L 352.181515 202.60679 
L 352.305291 194.969432 
L 352.367218 194.969432 
L 352.429068 202.60679 
L 352.552844 194.969432 
L 352.738547 194.969432 
L 352.800398 202.60679 
L 352.924174 194.969432 
L 352.986101 202.60679 
L 353.047951 194.969432 
L 353.11003 202.60679 
L 353.171956 194.969432 
L 353.233806 202.60679 
L 353.295733 194.969432 
L 353.357583 202.60679 
L 353.419509 194.969432 
L 353.481359 202.60679 
L 353.605136 194.969432 
L 353.728913 202.60679 
L 353.852689 202.60679 
L 353.914539 194.969432 
L 353.976466 202.60679 
L 354.038316 194.969432 
L 354.100242 202.60679 
L 354.224019 194.969432 
L 354.285869 194.969432 
L 354.347795 202.60679 
L 354.471801 194.969432 
L 354.657504 194.969432 
L 354.78128 202.60679 
L 354.905057 202.60679 
L 355.02891 194.969432 
L 355.152686 202.60679 
L 355.214613 194.969432 
L 355.338466 202.60679 
L 355.400316 194.969432 
L 355.462242 202.60679 
L 355.586095 194.969432 
L 355.709872 194.969432 
L 355.833954 202.60679 
L 355.89588 202.60679 
L 356.019657 194.969432 
L 356.081583 202.60679 
L 356.14351 194.969432 
L 356.267363 202.60679 
L 356.576919 202.60679 
L 356.638845 194.969432 
L 356.762622 202.60679 
L 356.948325 202.60679 
L 357.072177 194.969432 
L 357.134104 202.60679 
L 357.195954 194.969432 
L 357.25811 202.60679 
L 357.320036 194.969432 
L 357.443813 202.60679 
L 357.505739 202.60679 
L 357.567665 194.969432 
L 357.691442 202.60679 
L 357.815295 202.60679 
L 357.877221 194.969432 
L 358.000998 202.60679 
L 358.186777 202.60679 
L 358.248704 194.969432 
L 358.310554 202.60679 
L 358.37248 194.969432 
L 358.496333 202.60679 
L 358.55826 202.60679 
L 358.620415 194.969432 
L 358.682265 202.60679 
L 358.744192 194.969432 
L 358.868045 202.60679 
L 359.115674 202.60679 
L 359.1776 194.969432 
L 359.301377 202.60679 
L 359.42523 202.60679 
L 359.487156 194.969432 
L 359.549083 202.60679 
L 359.610933 194.969432 
L 359.734786 202.60679 
L 361.159094 202.60679 
L 361.221021 194.969432 
L 361.345103 202.60679 
L 361.530806 202.60679 
L 361.592732 194.969432 
L 361.716585 202.60679 
L 361.778512 194.969432 
L 361.902364 202.60679 
L 361.964291 202.60679 
L 362.026141 194.969432 
L 362.088067 202.60679 
L 362.149994 194.969432 
L 362.273847 202.60679 
L 363.017041 202.60679 
L 363.140894 194.969432 
L 363.264746 202.60679 
L 363.574302 202.60679 
L 363.636229 194.969432 
L 363.760082 202.60679 
L 364.44196 202.60679 
L 364.50381 194.969432 
L 364.627663 202.60679 
L 369.396534 202.60679 
L 369.458461 194.969432 
L 369.58239 202.60679 
L 375.467694 202.60679 
L 375.52962 194.969432 
L 375.653473 202.60679 
L 399.945824 202.60679 
L 400.007903 209.153097 
L 400.317382 276.798267 
L 400.936341 276.798267 
L 401.060118 284.435625 
L 401.183895 284.435625 
L 401.307671 290.981932 
L 401.555453 290.981932 
L 401.67923 297.528239 
L 402.236262 297.528239 
L 402.360039 304.074545 
L 405.021884 304.074545 
L 405.083734 297.528239 
L 405.207511 304.074545 
L 405.331287 297.528239 
L 406.816987 297.528239 
L 406.879143 290.981932 
L 406.941069 297.528239 
L 407.064846 290.981932 
L 407.188623 290.981932 
L 407.250549 297.528239 
L 407.374326 290.981932 
L 408.241067 290.981932 
L 408.302993 284.435625 
L 408.42677 290.981932 
L 408.48862 290.981932 
L 408.612396 284.435625 
L 408.798099 284.435625 
L 408.921876 290.981932 
L 409.045653 284.435625 
L 409.97432 284.435625 
L 410.036247 276.798267 
L 410.098097 284.435625 
L 410.160023 276.798267 
L 410.22195 284.435625 
L 410.345803 276.798267 
L 411.646029 276.798267 
L 411.707956 270.25196 
L 411.831808 276.798267 
L 411.955585 270.25196 
L 413.50367 270.25196 
L 413.627523 263.705653 
L 414.989905 263.705653 
L 415.051755 257.159347 
L 415.175837 263.705653 
L 415.29969 257.159347 
L 415.423466 257.159347 
L 415.485393 263.705653 
L 415.609246 257.159347 
L 416.847698 257.159347 
L 416.909625 249.521989 
L 416.971551 257.159347 
L 417.095404 249.521989 
L 417.219257 249.521989 
L 417.281107 257.159347 
L 417.40496 249.521989 
L 418.643489 249.521989 
L 418.705416 242.975682 
L 418.829269 249.521989 
L 419.015048 249.521989 
L 419.138825 242.975682 
L 419.200751 249.521989 
L 419.324833 242.975682 
L 420.996771 242.975682 
L 421.120624 236.429375 
L 421.306479 236.429375 
L 421.368406 242.975682 
L 421.492259 236.429375 
L 423.412666 236.429375 
L 423.474593 229.883068 
L 423.536519 236.429375 
L 423.660372 229.883068 
L 425.766482 229.883068 
L 425.890411 222.24571 
L 425.952338 222.24571 
L 426.076191 229.883068 
L 426.138117 229.883068 
L 426.262276 222.24571 
L 428.306383 222.24571 
L 428.36831 215.699403 
L 428.492239 222.24571 
L 428.678018 222.24571 
L 428.739945 215.699403 
L 428.863798 222.24571 
L 428.926029 222.24571 
L 429.049882 215.699403 
L 431.279464 215.699403 
L 431.34139 209.153097 
L 431.465243 215.699403 
L 432.085271 215.699403 
L 432.209048 209.153097 
L 432.270898 209.153097 
L 432.332824 215.699403 
L 432.456601 209.153097 
L 435.428383 209.153097 
L 435.55216 202.60679 
L 435.675937 202.60679 
L 435.737787 209.153097 
L 435.861792 202.60679 
L 435.923642 209.153097 
L 436.047419 202.60679 
L 438.213776 202.60679 
L 438.275702 194.969432 
L 438.399479 202.60679 
L 439.142367 202.60679 
L 439.204217 194.969432 
L 439.327994 202.60679 
L 439.45177 202.60679 
L 439.513697 194.969432 
L 439.637473 202.60679 
L 439.76125 202.60679 
L 439.8231 194.969432 
L 439.947106 202.60679 
L 440.070958 194.969432 
L 444.280736 194.969432 
L 444.342586 188.423125 
L 444.466439 194.969432 
L 444.652142 194.969432 
L 444.714068 188.423125 
L 444.837921 194.969432 
L 445.27133 194.969432 
L 445.333256 188.423125 
L 445.395183 194.969432 
L 445.457338 188.423125 
L 445.581115 194.969432 
L 445.766894 194.969432 
L 445.890671 188.423125 
L 445.952597 194.969432 
L 446.076374 188.423125 
L 450.7204 188.423125 
L 450.844252 181.876818 
L 450.906179 188.423125 
L 450.968334 181.876818 
L 451.092111 188.423125 
L 451.154037 188.423125 
L 451.215964 181.876818 
L 451.27789 188.423125 
L 451.401667 181.876818 
L 451.52552 188.423125 
L 451.587446 188.423125 
L 451.711223 181.876818 
L 451.773149 188.423125 
L 451.897002 181.876818 
L 452.020779 188.423125 
L 452.144632 181.876818 
L 452.268485 181.876818 
L 452.330411 188.423125 
L 452.392567 181.876818 
L 452.454417 188.423125 
L 452.57827 181.876818 
L 452.887825 181.876818 
L 452.949752 188.423125 
L 453.073528 181.876818 
L 453.259308 181.876818 
L 453.321234 188.423125 
L 453.445011 181.876818 
L 453.568864 181.876818 
L 453.63079 188.423125 
L 453.754796 181.876818 
L 459.391936 181.876818 
L 459.453862 175.330511 
L 459.577715 181.876818 
L 459.639718 175.330511 
L 459.763571 181.876818 
L 459.887424 181.876818 
L 460.011353 175.330511 
L 460.135206 181.876818 
L 460.259059 175.330511 
L 460.320985 175.330511 
L 460.382988 181.876818 
L 460.506841 175.330511 
L 460.630923 175.330511 
L 460.692926 181.876818 
L 460.816779 175.330511 
L 461.498122 175.330511 
L 461.560049 181.876818 
L 461.683902 175.330511 
L 468.809262 175.330511 
L 468.871265 167.693153 
L 468.995423 175.330511 
L 469.305208 175.330511 
L 469.367134 167.693153 
L 469.491064 175.330511 
L 469.676919 175.330511 
L 469.738846 167.693153 
L 469.862775 175.330511 
L 469.924778 167.693153 
L 470.048631 175.330511 
L 470.17256 167.693153 
L 470.296718 175.330511 
L 470.358721 175.330511 
L 470.420648 167.693153 
L 470.48265 175.330511 
L 470.606503 167.693153 
L 470.730433 167.693153 
L 470.792435 175.330511 
L 470.854362 167.693153 
L 470.916288 175.330511 
L 470.978291 167.693153 
L 471.040218 175.330511 
L 471.10222 167.693153 
L 471.164147 175.330511 
L 471.226073 167.693153 
L 471.288076 175.330511 
L 471.350003 167.693153 
L 471.412005 175.330511 
L 471.535858 167.693153 
L 471.597861 167.693153 
L 471.722019 175.330511 
L 471.783946 175.330511 
L 471.907875 167.693153 
L 471.969878 175.330511 
L 472.031804 167.693153 
L 472.093731 175.330511 
L 472.155734 167.693153 
L 472.21766 175.330511 
L 472.341589 167.693153 
L 472.465519 175.330511 
L 472.589448 167.693153 
L 472.651374 175.330511 
L 472.775304 167.693153 
L 473.085318 167.693153 
L 473.147321 175.330511 
L 473.209247 167.693153 
L 473.271173 175.330511 
L 473.395103 167.693153 
L 482.38238 167.693153 
L 482.444306 161.146847 
L 482.568312 167.693153 
L 484.118229 167.693153 
L 484.180232 161.146847 
L 484.304161 167.693153 
L 484.552096 167.693153 
L 484.614099 161.146847 
L 484.676026 167.693153 
L 484.738028 161.146847 
L 484.861958 167.693153 
L 484.985963 167.693153 
L 485.04789 161.146847 
L 485.109893 167.693153 
L 485.171895 161.146847 
L 485.233822 167.693153 
L 485.295825 161.146847 
L 485.357827 167.693153 
L 485.419754 161.146847 
L 485.543989 167.693153 
L 485.729921 167.693153 
L 485.85385 161.146847 
L 485.915853 161.146847 
L 486.039782 167.693153 
L 486.101708 167.693153 
L 486.225638 161.146847 
L 486.287641 161.146847 
L 486.41157 167.693153 
L 486.535499 161.146847 
L 486.659505 167.693153 
L 486.783434 161.146847 
L 486.907516 161.146847 
L 486.969366 167.693153 
L 487.031292 161.146847 
L 487.093219 167.693153 
L 487.155069 161.146847 
L 487.278846 167.693153 
L 487.402622 161.146847 
L 487.464549 161.146847 
L 487.588325 167.693153 
L 489.012099 167.693153 
L 489.135876 175.330511 
L 489.321579 175.330511 
L 489.383429 167.693153 
L 489.507205 175.330511 
L 490.435873 175.330511 
L 490.497799 181.876818 
L 490.621576 175.330511 
L 490.745353 181.876818 
L 492.045426 181.876818 
L 492.107353 188.423125 
L 492.169203 181.876818 
L 492.231129 188.423125 
L 492.292979 181.876818 
L 492.416985 188.423125 
L 493.654903 188.423125 
L 493.716753 194.969432 
L 493.840377 188.423125 
L 493.964154 194.969432 
L 495.078295 194.969432 
L 495.140375 202.60679 
L 495.264227 194.969432 
L 495.449854 194.969432 
L 495.573707 202.60679 
L 495.697484 194.969432 
L 495.82126 202.60679 
L 496.13074 202.60679 
L 496.316443 222.24571 
L 496.378293 215.699403 
L 496.502375 222.24571 
L 496.749928 222.24571 
L 496.873704 229.883068 
L 497.616364 229.883068 
L 497.616364 229.883068 
" clip-path="url(#p8f9feafad5)" style="fill: none; stroke: #1f77b4; stroke-width: 1.5; stroke-linecap: square"/>
   </g>
   <g id="patch_3">
    <path d="M 54.02 318.04 
L 54.02 10.8 
" style="fill: none; stroke: #000000; stroke-width: 0.8; stroke-linejoin: miter; stroke-linecap: square"/>
   </g>
   <g id="patch_4">
    <path d="M 518.74 318.04 
L 518.74 10.8 
" style="fill: none; stroke: #000000; stroke-width: 0.8; stroke-linejoin: miter; stroke-linecap: square"/>
   </g>
   <g id="patch_5">
    <path d="M 54.02 318.04 
L 518.74 318.04 
" style="fill: none; stroke: #000000; stroke-width: 0.8; stroke-linejoin: miter; stroke-linecap: square"/>
   </g>
   <g id="patch_6">
    <path d="M 54.02 10.8 
L 518.74 10.8 
" style="fill: none; stroke: #000000; stroke-width: 0.8; stroke-linejoin: miter; stroke-linecap: square"/>
   </g>
  </g>
  <g id="axes_2">
   <g id="matplotlib.axis_3">
    <g id="ytick_7">
     <g id="line2d_26">
      <defs>
       <path id="m43d649a68c" d="M 0 0 
L 3.5 0 
" style="stroke: #000000; stroke-width: 0.8"/>
      </defs>
      <g>
       <use xlink:href="#m43d649a68c" x="518.74" y="310.463924" style="stroke: #000000; stroke-width: 0.8"/>
      </g>
     </g>
     <g id="text_15">
      <!-- 1000 -->
      <g style="fill: #ff7f0e" transform="translate(525.74 314.263143) scale(0.1 -0.1)">
       <use xlink:href="#DejaVuSans-31"/>
       <use xlink:href="#DejaVuSans-30" transform="translate(63.623047 0)"/>
       <use xlink:href="#DejaVuSans-30" transform="translate(127.246094 0)"/>
       <use xlink:href="#DejaVuSans-30" transform="translate(190.869141 0)"/>
      </g>
     </g>
    </g>
    <g id="ytick_8">
     <g id="line2d_27">
      <g>
       <use xlink:href="#m43d649a68c" x="518.74" y="276.186141" style="stroke: #000000; stroke-width: 0.8"/>
      </g>
     </g>
     <g id="text_16">
      <!-- 1050 -->
      <g style="fill: #ff7f0e" transform="translate(525.74 279.98536) scale(0.1 -0.1)">
       <use xlink:href="#DejaVuSans-31"/>
       <use xlink:href="#DejaVuSans-30" transform="translate(63.623047 0)"/>
       <use xlink:href="#DejaVuSans-35" transform="translate(127.246094 0)"/>
       <use xlink:href="#DejaVuSans-30" transform="translate(190.869141 0)"/>
      </g>
     </g>
    </g>
    <g id="ytick_9">
     <g id="line2d_28">
      <g>
       <use xlink:href="#m43d649a68c" x="518.74" y="241.908357" style="stroke: #000000; stroke-width: 0.8"/>
      </g>
     </g>
     <g id="text_17">
      <!-- 1100 -->
      <g style="fill: #ff7f0e" transform="translate(525.74 245.707576) scale(0.1 -0.1)">
       <use xlink:href="#DejaVuSans-31"/>
       <use xlink:href="#DejaVuSans-31" transform="translate(63.623047 0)"/>
       <use xlink:href="#DejaVuSans-30" transform="translate(127.246094 0)"/>
       <use xlink:href="#DejaVuSans-30" transform="translate(190.869141 0)"/>
      </g>
     </g>
    </g>
    <g id="ytick_10">
     <g id="line2d_29">
      <g>
       <use xlink:href="#m43d649a68c" x="518.74" y="207.630574" style="stroke: #000000; stroke-width: 0.8"/>
      </g>
     </g>
     <g id="text_18">
      <!-- 1150 -->
      <g style="fill: #ff7f0e" transform="translate(525.74 211.429793) scale(0.1 -0.1)">
       <use xlink:href="#DejaVuSans-31"/>
       <use xlink:href="#DejaVuSans-31" transform="translate(63.623047 0)"/>
       <use xlink:href="#DejaVuSans-35" transform="translate(127.246094 0)"/>
       <use xlink:href="#DejaVuSans-30" transform="translate(190.869141 0)"/>
      </g>
     </g>
    </g>
    <g id="ytick_11">
     <g id="line2d_30">
      <g>
       <use xlink:href="#m43d649a68c" x="518.74" y="173.35279" style="stroke: #000000; stroke-width: 0.8"/>
      </g>
     </g>
     <g id="text_19">
      <!-- 1200 -->
      <g style="fill: #ff7f0e" transform="translate(525.74 177.152009) scale(0.1 -0.1)">
       <use xlink:href="#DejaVuSans-31"/>
       <use xlink:href="#DejaVuSans-32" transform="translate(63.623047 0)"/>
       <use xlink:href="#DejaVuSans-30" transform="translate(127.246094 0)"/>
       <use xlink:href="#DejaVuSans-30" transform="translate(190.869141 0)"/>
      </g>
     </g>
    </g>
    <g id="ytick_12">
     <g id="line2d_31">
      <g>
       <use xlink:href="#m43d649a68c" x="518.74" y="139.075007" style="stroke: #000000; stroke-width: 0.8"/>
      </g>
     </g>
     <g id="text_20">
      <!-- 1250 -->
      <g style="fill: #ff7f0e" transform="translate(525.74 142.874226) scale(0.1 -0.1)">
       <use xlink:href="#DejaVuSans-31"/>
       <use xlink:href="#DejaVuSans-32" transform="translate(63.623047 0)"/>
       <use xlink:href="#DejaVuSans-35" transform="translate(127.246094 0)"/>
       <use xlink:href="#DejaVuSans-30" transform="translate(190.869141 0)"/>
      </g>
     </g>
    </g>
    <g id="ytick_13">
     <g id="line2d_32">
      <g>
       <use xlink:href="#m43d649a68c" x="518.74" y="104.797223" style="stroke: #000000; stroke-width: 0.8"/>
      </g>
     </g>
     <g id="text_21">
      <!-- 1300 -->
      <g style="fill: #ff7f0e" transform="translate(525.74 108.596442) scale(0.1 -0.1)">
       <use xlink:href="#DejaVuSans-31"/>
       <use xlink:href="#DejaVuSans-33" transform="translate(63.623047 0)"/>
       <use xlink:href="#DejaVuSans-30" transform="translate(127.246094 0)"/>
       <use xlink:href="#DejaVuSans-30" transform="translate(190.869141 0)"/>
      </g>
     </g>
    </g>
    <g id="ytick_14">
     <g id="line2d_33">
      <g>
       <use xlink:href="#m43d649a68c" x="518.74" y="70.51944" style="stroke: #000000; stroke-width: 0.8"/>
      </g>
     </g>
     <g id="text_22">
      <!-- 1350 -->
      <g style="fill: #ff7f0e" transform="translate(525.74 74.318659) scale(0.1 -0.1)">
       <use xlink:href="#DejaVuSans-31"/>
       <use xlink:href="#DejaVuSans-33" transform="translate(63.623047 0)"/>
       <use xlink:href="#DejaVuSans-35" transform="translate(127.246094 0)"/>
       <use xlink:href="#DejaVuSans-30" transform="translate(190.869141 0)"/>
      </g>
     </g>
    </g>
    <g id="ytick_15">
     <g id="line2d_34">
      <g>
       <use xlink:href="#m43d649a68c" x="518.74" y="36.241656" style="stroke: #000000; stroke-width: 0.8"/>
      </g>
     </g>
     <g id="text_23">
      <!-- 1400 -->
      <g style="fill: #ff7f0e" transform="translate(525.74 40.040875) scale(0.1 -0.1)">
       <use xlink:href="#DejaVuSans-31"/>
       <use xlink:href="#DejaVuSans-34" transform="translate(63.623047 0)"/>
       <use xlink:href="#DejaVuSans-30" transform="translate(127.246094 0)"/>
       <use xlink:href="#DejaVuSans-30" transform="translate(190.869141 0)"/>
      </g>
     </g>
    </g>
    <g id="text_24">
     <!-- Pressure (Pa) -->
     <g style="fill: #ff7f0e" transform="translate(562.788438 197.109063) rotate(-90) scale(0.1 -0.1)">
      <defs>
       <path id="DejaVuSans-50" d="M 1259 4147 
L 1259 2394 
L 2053 2394 
Q 2494 2394 2734 2622 
Q 2975 2850 2975 3272 
Q 2975 3691 2734 3919 
Q 2494 4147 2053 4147 
L 1259 4147 
z
M 628 4666 
L 2053 4666 
Q 2838 4666 3239 4311 
Q 3641 3956 3641 3272 
Q 3641 2581 3239 2228 
Q 2838 1875 2053 1875 
L 1259 1875 
L 1259 0 
L 628 0 
L 628 4666 
z
" transform="scale(0.015625)"/>
      </defs>
      <use xlink:href="#DejaVuSans-50"/>
      <use xlink:href="#DejaVuSans-72" transform="translate(58.552734 0)"/>
      <use xlink:href="#DejaVuSans-65" transform="translate(97.416016 0)"/>
      <use xlink:href="#DejaVuSans-73" transform="translate(158.939453 0)"/>
      <use xlink:href="#DejaVuSans-73" transform="translate(211.039062 0)"/>
      <use xlink:href="#DejaVuSans-75" transform="translate(263.138672 0)"/>
      <use xlink:href="#DejaVuSans-72" transform="translate(326.517578 0)"/>
      <use xlink:href="#DejaVuSans-65" transform="translate(365.380859 0)"/>
      <use xlink:href="#DejaVuSans-20" transform="translate(426.904297 0)"/>
      <use xlink:href="#DejaVuSans-28" transform="translate(458.691406 0)"/>
      <use xlink:href="#DejaVuSans-50" transform="translate(497.705078 0)"/>
      <use xlink:href="#DejaVuSans-61" transform="translate(553.507812 0)"/>
      <use xlink:href="#DejaVuSans-29" transform="translate(614.787109 0)"/>
     </g>
    </g>
   </g>
   <g id="line2d_35">
    <path d="M 75.143636 304.074545 
L 75.391724 304.047123 
L 75.701891 304.047123 
L 76.011981 304.019701 
L 76.259763 304.047123 
L 77.002652 303.889445 
L 77.435908 303.608368 
L 77.807314 303.628934 
L 78.364576 303.526101 
L 79.664115 303.334145 
L 79.911744 303.354712 
L 81.02581 303.32729 
L 81.397445 303.347856 
L 82.078254 303.306723 
L 84.245069 303.20389 
L 85.483598 303.039356 
L 86.473887 303.039356 
L 100.901223 302.950234 
L 101.148929 302.95709 
L 101.644646 302.950234 
L 121.408119 302.881679 
L 121.593822 302.847401 
L 122.151465 302.861112 
L 137.826723 302.77199 
L 138.074276 302.778845 
L 138.631309 302.751423 
L 138.941017 302.744567 
L 148.598566 302.655445 
L 148.846195 302.662301 
L 149.15598 302.689723 
L 149.403686 302.655445 
L 149.775092 302.655445 
L 150.084724 302.662301 
L 160.613825 302.552612 
L 161.543104 302.552612 
L 161.976665 302.552612 
L 162.534156 302.532045 
L 172.751868 302.429212 
L 173.185124 302.436067 
L 173.804083 302.408645 
L 174.051865 302.415501 
L 174.361345 302.422356 
L 175.475716 302.388079 
L 175.723269 302.381223 
L 181.604449 302.298956 
L 181.790229 302.285245 
L 181.914082 302.305812 
L 182.099785 302.292101 
L 188.354127 302.209834 
L 188.53983 302.196123 
L 193.991191 302.086434 
L 194.85839 302.059012 
L 195.106172 302.100145 
L 195.291952 302.086434 
L 196.221154 302.086434 
L 196.530863 302.09329 
L 197.274362 302.065867 
L 212.702296 301.983601 
L 212.950154 301.956178 
L 213.507874 301.96989 
L 213.879967 301.963034 
L 214.871554 301.942467 
L 215.305574 301.96989 
L 215.86337 301.956178 
L 216.731333 301.963034 
L 217.041194 301.96989 
L 217.971007 301.963034 
L 218.218942 301.96989 
L 218.528804 301.96989 
L 218.714659 301.928756 
L 219.148526 301.963034 
L 220.326274 301.928756 
L 220.698138 301.942467 
L 230.542917 301.887623 
L 230.604768 302.072723 
L 230.790471 303.718057 
L 231.038024 303.718057 
L 231.347503 26.479344 
L 231.718833 25.752655 
L 231.904689 25.588121 
L 233.142683 24.888855 
L 233.638018 24.813443 
L 233.947574 24.868288 
L 234.25713 24.820299 
L 235.062174 24.89571 
L 235.619359 24.923132 
L 236.052997 24.998543 
L 236.48633 25.012255 
L 236.733959 25.067099 
L 238.096189 25.293332 
L 238.281892 25.300188 
L 238.467595 25.334466 
L 239.148862 25.430444 
L 239.520344 25.492144 
L 239.953753 25.546988 
L 243.916206 26.088577 
L 244.34992 26.136566 
L 244.659553 26.150277 
L 245.216967 26.225688 
L 245.464749 26.232544 
L 246.517881 26.397077 
L 246.70366 26.390221 
L 247.818794 26.493055 
L 248.128427 26.513622 
L 248.314511 26.541044 
L 248.438364 26.554755 
L 248.748073 26.568466 
L 252.031244 26.856399 
L 252.217023 26.849544 
L 253.579864 26.952377 
L 254.19951 27.000366 
L 254.447216 27.000366 
L 256.7388 27.151188 
L 257.419685 27.171755 
L 257.914792 27.226599 
L 258.16265 27.212888 
L 258.348353 27.219744 
L 259.153626 27.315722 
L 259.463258 27.288299 
L 261.444065 27.363711 
L 261.691618 27.404844 
L 262.744062 27.432266 
L 262.929765 27.439122 
L 263.548954 27.487111 
L 263.73458 27.480255 
L 266.458352 27.555666 
L 266.705981 27.589944 
L 266.89176 27.583088 
L 267.201316 27.603655 
L 267.325093 27.589944 
L 267.448946 27.617366 
L 267.94451 27.596799 
L 268.315992 27.631077 
L 268.687475 27.624222 
L 268.935181 27.644788 
L 269.244966 27.644788 
L 272.154974 27.713344 
L 272.340754 27.747622 
L 276.365897 27.823033 
L 276.551676 27.8436 
L 276.675453 27.857311 
L 276.923082 27.850455 
L 277.170712 27.857311 
L 277.418647 27.871022 
L 277.604502 27.857311 
L 278.967266 27.898444 
L 279.710536 27.898444 
L 280.020474 27.932722 
L 280.268256 27.891588 
L 280.639891 27.912155 
L 280.825671 27.912155 
L 281.321159 27.987566 
L 281.445317 27.932722 
L 281.755025 27.932722 
L 285.16182 28.008133 
L 285.3476 28.014988 
L 285.71954 28.042411 
L 286.710516 28.062977 
L 287.082304 28.042411 
L 287.577792 28.062977 
L 287.763571 28.042411 
L 288.197057 28.049266 
L 288.568921 28.049266 
L 288.754776 28.069833 
L 289.622052 28.083544 
L 289.994069 28.110966 
L 290.303854 28.083544 
L 291.543223 28.117822 
L 291.729155 28.104111 
L 291.976937 28.117822 
L 292.906521 28.110966 
L 293.464165 28.158955 
L 293.650021 28.158955 
L 294.022648 28.145244 
L 294.518289 28.1521 
L 294.704145 28.1521 
L 295.137783 28.145244 
L 296.005364 28.158955 
L 309.268926 28.254933 
L 309.454858 28.261788 
L 309.64079 28.227511 
L 309.888649 28.234366 
L 311.065404 28.268644 
L 311.312957 28.261788 
L 311.622437 28.248077 
L 312.117772 28.248077 
L 312.860507 28.268644 
L 313.293993 28.254933 
L 314.346284 28.261788 
L 314.717843 28.282355 
L 315.646282 28.2755 
L 391.641341 28.3372 
L 391.765499 28.357766 
L 392.261293 28.350911 
L 393.067253 28.364622 
L 393.253185 28.357766 
L 393.748979 28.378333 
L 394.244772 28.357766 
L 394.740871 28.357766 
L 395.608528 28.296066 
L 395.79446 28.426322 
L 396.042624 28.357766 
L 399.945824 28.371477 
L 400.069829 303.210745 
L 400.131756 288.580987 
L 400.441159 215.973786 
L 400.750638 193.323027 
L 400.998192 187.365548 
L 401.307671 184.73987 
L 401.67923 183.649837 
L 402.050559 183.183659 
L 402.421965 183.080825 
L 402.917377 182.964281 
L 403.16493 182.964281 
L 405.826699 182.76547 
L 406.136178 182.738047 
L 406.631361 182.724336 
L 407.00292 182.70377 
L 407.312399 182.648925 
L 407.745655 182.676347 
L 408.241067 182.655781 
L 408.550546 182.621503 
L 411.336473 182.539236 
L 411.522253 182.498103 
L 411.831808 182.498103 
L 413.194114 182.450114 
L 413.875381 182.436403 
L 414.30879 182.408981 
L 414.804126 182.388414 
L 415.051755 182.374703 
L 416.414061 182.306147 
L 416.661995 182.340425 
L 417.095404 182.313003 
L 417.343034 182.292436 
L 417.528813 182.299292 
L 418.891195 182.237592 
L 419.138825 182.217025 
L 423.226581 182.127903 
L 423.412666 182.127903 
L 423.784301 182.100481 
L 424.032007 182.107336 
L 424.403642 182.079914 
L 424.713274 182.08677 
L 426.200349 182.02507 
L 426.571984 182.038781 
L 426.695837 182.018214 
L 427.067396 182.02507 
L 427.563189 182.031925 
L 427.810895 181.997647 
L 431.279464 181.935947 
L 431.403317 181.915381 
L 431.775792 181.887958 
L 432.704154 181.90167 
L 432.889781 181.867392 
L 433.137639 181.887958 
L 433.695359 181.867392 
L 433.942912 181.874247 
L 434.128539 181.83997 
L 435.118904 181.83997 
L 436.109345 181.83997 
L 436.542525 181.826258 
L 437.28549 181.812547 
L 437.471116 181.785125 
L 442.91843 181.709714 
L 443.104209 181.668581 
L 443.413765 181.696003 
L 443.661395 181.682292 
L 443.847098 181.675436 
L 444.156883 181.696003 
L 444.714068 181.65487 
L 444.961774 181.689147 
L 445.147477 181.648014 
L 445.395183 181.668581 
L 446.014524 181.627447 
L 446.38593 181.634303 
L 447.438603 181.613736 
L 447.871935 181.627447 
L 448.181491 181.600025 
L 453.073528 181.497192 
L 453.506937 181.476625 
L 453.816722 181.497192 
L 454.188357 181.462914 
L 454.49799 181.504047 
L 454.869625 181.449203 
L 455.241489 181.462914 
L 455.798903 181.442347 
L 456.046685 181.435492 
L 456.294391 181.428636 
L 456.480476 181.449203 
L 457.719158 181.408069 
L 458.214875 181.414925 
L 458.772366 181.387503 
L 459.205927 181.414925 
L 459.391936 181.346369 
L 459.639718 181.366936 
L 460.444914 181.373792 
L 460.692926 181.360081 
L 467.87922 181.270958 
L 468.127078 181.270958 
L 474.88233 181.161269 
L 475.68768 181.181836 
L 483.126337 181.085858 
L 483.374272 181.072147 
L 484.428167 181.079003 
L 484.738028 181.072147 
L 485.729921 181.085858 
L 486.039782 181.058436 
L 487.031292 181.058436 
L 487.216995 181.051581 
L 488.207437 180.928181 
L 488.640693 180.969314 
L 489.259652 180.935036 
L 489.755064 180.996736 
L 489.87884 181.017303 
L 490.621576 181.037869 
L 492.602688 181.161269 
L 492.850241 181.126992 
L 493.345424 181.133847 
L 496.006963 181.085858 
L 496.068813 193.624672 
L 496.13074 303.416412 
L 496.192666 299.090556 
L 496.316443 293.434721 
L 496.502375 303.286156 
L 496.749928 303.457545 
L 497.616364 303.539812 
L 497.616364 303.539812 
" clip-path="url(#p8f9feafad5)" style="fill: none; stroke: #ff7f0e; stroke-width: 1.5; stroke-linecap: square"/>
   </g>
   <g id="patch_7">
    <path d="M 54.02 318.04 
L 54.02 10.8 
" style="fill: none; stroke: #000000; stroke-width: 0.8; stroke-linejoin: miter; stroke-linecap: square"/>
   </g>
   <g id="patch_8">
    <path d="M 518.74 318.04 
L 518.74 10.8 
" style="fill: none; stroke: #000000; stroke-width: 0.8; stroke-linejoin: miter; stroke-linecap: square"/>
   </g>
   <g id="patch_9">
    <path d="M 54.02 318.04 
L 518.74 318.04 
" style="fill: none; stroke: #000000; stroke-width: 0.8; stroke-linejoin: miter; stroke-linecap: square"/>
   </g>
   <g id="patch_10">
    <path d="M 54.02 10.8 
L 518.74 10.8 
" style="fill: none; stroke: #000000; stroke-width: 0.8; stroke-linejoin: miter; stroke-linecap: square"/>
   </g>
  </g>
 </g>
 <defs>
  <clipPath id="p8f9feafad5">
   <rect x="54.02" y="10.8" width="464.72" height="307.24"/>
  </clipPath>
 </defs>
</svg>
